<svg xmlns="http://www.w3.org/2000/svg" viewBox="0 0 512 512" role="img" aria-label="光影小人藏品卡">
  <defs>
    <linearGradient id="g" x1="0" y1="0" x2="1" y2="1">
      <stop offset="0" stop-color="#fff1d3"/>
      <stop offset="1" stop-color="#f4dfbd"/>
    </linearGradient>
    <filter id="s" x="-20%" y="-20%" width="140%" height="140%">
      <feDropShadow dx="0" dy="12" stdDeviation="14" flood-color="#412613" flood-opacity=".22"/>
    </filter>
  </defs>
  <rect width="512" height="512" rx="54" fill="url(#g)"/>
  <rect x="26" y="26" width="460" height="460" rx="42" fill="none" stroke="#c28a2c" stroke-width="10"/>
  <rect x="48" y="48" width="416" height="416" rx="32" fill="none" stroke="#b64024" stroke-width="3" opacity=".55"/>
  
  <g filter="url(#s)">
    <rect x="88" y="112" width="336" height="244" rx="26" fill="#ffe6ae"/>
    <path d="M104 128h304v42c-58 22-102 22-152 0-50 22-94 22-152 0Z" fill="#b64024" opacity=".82"/>
    <circle cx="150" cy="170" r="24" fill="#f8b94b"/>
    <circle cx="362" cy="170" r="24" fill="#f8b94b"/>
    <g fill="#2f241c">
      <circle cx="258" cy="182" r="26"/>
      <path d="M230 220c18-30 52-30 70 0v108h-70Z"/>
      <path d="M226 252c-42 10-70 34-98 72 52-12 88-30 116-58Z"/>
      <path d="M304 252c42 10 70 34 98 72-52-12-88-30-116-58Z"/>
      <path d="M244 328h-38l30 52h28Z"/>
      <path d="M284 328h38l-30 52h-28Z"/>
    </g>
  </g>
</svg>