<svg xmlns="http://www.w3.org/2000/svg" viewBox="0 0 128 128" width="128" height="128" role="img" aria-label="Gloop official icon" shape-rendering="crispEdges">
  <rect width="128" height="128" rx="28" fill="#cfeeff"/>

  <!-- body outline (navy) -->
  <g fill="#103a56">
    <rect x="38" y="28" width="52" height="4"/>
    <rect x="34" y="32" width="60" height="4"/>
    <rect x="30" y="36" width="68" height="4"/>
    <rect x="26" y="40" width="76" height="4"/>
    <rect x="22" y="44" width="84" height="4"/>
    <rect x="18" y="48" width="92" height="4"/>
    <rect x="18" y="52" width="92" height="4"/>
    <rect x="14" y="56" width="100" height="4"/>
    <rect x="14" y="60" width="100" height="4"/>
    <rect x="14" y="64" width="100" height="4"/>
    <rect x="14" y="68" width="100" height="4"/>
    <rect x="14" y="72" width="100" height="4"/>
    <rect x="14" y="76" width="100" height="4"/>
    <rect x="14" y="80" width="100" height="4"/>
    <rect x="14" y="84" width="100" height="4"/>
    <rect x="14" y="88" width="100" height="4"/>
  </g>

  <!-- body fill (slime cyan) -->
  <g fill="#7ed3f2">
    <rect x="40" y="30" width="48" height="4"/>
    <rect x="36" y="34" width="56" height="4"/>
    <rect x="32" y="38" width="64" height="4"/>
    <rect x="28" y="42" width="72" height="4"/>
    <rect x="24" y="46" width="80" height="4"/>
    <rect x="20" y="50" width="88" height="4"/>
    <rect x="20" y="54" width="88" height="4"/>
    <rect x="16" y="58" width="96" height="4"/>
    <rect x="16" y="62" width="96" height="4"/>
    <rect x="16" y="66" width="96" height="4"/>
    <rect x="16" y="70" width="96" height="4"/>
    <rect x="16" y="74" width="96" height="4"/>
    <rect x="16" y="78" width="96" height="4"/>
    <rect x="16" y="82" width="96" height="4"/>
    <rect x="16" y="86" width="96" height="4"/>
  </g>

  <!-- bottom shadow -->
  <rect x="16" y="88" width="96" height="4" fill="#1e7aad"/>
  <rect x="22" y="86" width="84" height="4" fill="#3aa3d6"/>

  <!-- glossy top highlight -->
  <g fill="#c9f3ff">
    <rect x="24" y="54" width="12" height="4"/>
    <rect x="20" y="58" width="8" height="4"/>
  </g>

  <!-- lighter belly patch -->
  <rect x="44" y="72" width="36" height="12" fill="#a7dff5"/>

  <!-- eyes -->
  <g fill="#103a56">
    <rect x="34" y="58" width="16" height="20"/>
    <rect x="66" y="58" width="16" height="20"/>
  </g>
  <g fill="#f4fdff">
    <rect x="38" y="62" width="8" height="12"/>
    <rect x="70" y="62" width="8" height="12"/>
  </g>

  <!-- spiky golden hair -->
  <g fill="#f2c94c">
    <rect x="34" y="10" width="4" height="12"/>
    <rect x="30" y="14" width="12" height="8"/>
    <rect x="52" y="4" width="8" height="8"/>
    <rect x="48" y="8" width="16" height="4"/>
    <rect x="44" y="12" width="20" height="12"/>
    <rect x="74" y="14" width="12" height="8"/>
    <rect x="70" y="18" width="20" height="4"/>
    <rect x="26" y="22" width="64" height="8"/>
    <rect x="30" y="30" width="56" height="4"/>
    <rect x="30" y="34" width="8" height="8"/>
    <rect x="46" y="34" width="8" height="12"/>
    <rect x="62" y="34" width="8" height="8"/>
    <rect x="78" y="34" width="8" height="12"/>
  </g>

  <!-- dark-gold outline strands -->
  <g fill="#7a4e10">
    <rect x="34" y="8" width="4" height="4"/>
    <rect x="30" y="14" width="4" height="8"/>
    <rect x="52" y="2" width="8" height="4"/>
    <rect x="48" y="6" width="4" height="8"/>
    <rect x="44" y="12" width="4" height="12"/>
    <rect x="74" y="12" width="4" height="4"/>
    <rect x="70" y="18" width="4" height="4"/>
    <rect x="40" y="22" width="4" height="8"/>
    <rect x="64" y="22" width="4" height="8"/>
    <rect x="46" y="46" width="8" height="4"/>
    <rect x="78" y="46" width="8" height="4"/>
  </g>

  <!-- bright highlights -->
  <g fill="#ffe9a0">
    <rect x="52" y="6" width="4" height="8"/>
    <rect x="56" y="14" width="4" height="8"/>
    <rect x="34" y="22" width="8" height="4"/>
  </g>

  <!-- loop dots (bottom-right corner) -->
  <g fill="#103a56" opacity="0.6">
    <rect x="72" y="92" width="40" height="4" rx="2"/>
    <rect x="76" y="98" width="8" height="8" rx="2"/>
    <rect x="88" y="98" width="8" height="8" rx="2"/>
    <rect x="100" y="98" width="8" height="8" rx="2"/>
  </g>
  <g fill="#f2c94c" opacity="0.5">
    <rect x="78" y="100" width="4" height="4"/>
    <rect x="90" y="100" width="4" height="4"/>
    <rect x="102" y="100" width="4" height="4"/>
  </g>
  <g fill="#103a56" opacity="0.35">
    <rect x="76" y="110" width="36" height="3" rx="1"/>
    <rect x="76" y="116" width="28" height="3" rx="1"/>
  </g>
</svg>
