<svg xmlns="http://www.w3.org/2000/svg" id="a" viewBox="0 0 900 320"><defs><style>.aa,.ab,.ac,.ad,.ae,.af,.ag,.ah,.al,.am,.ao,.ap,.ar,.as,.at,.au,.av,.ax,.ay,.az,.bb,.bc,.bd,.be,.bg,.bh,.bi,.bj,.bk,.bl,.bm,.o,.p,.q,.r,.v,.w,.x,.y,.z{stroke-width:0}.o{fill:#4b9db7}.p{fill:#46382d}.q{fill:#89909b}.r{fill:#1d2432;opacity:.1}.v{fill:#4298b4}.w{fill:#359496}.x{fill:#317186}.y{fill:#8b6651}.z{fill:#68707f}.aa{fill:#dfbda5}.ab{fill:#8dc1d2}.ac{fill:#7bb7ca}.ad{fill:#9a9fa9}.ae{fill:#275b6c}.af{fill:#4fa9aa}.ag{fill:#c3987b}.ah{fill:#2e6a7d}.al{fill:#347990}.am{fill:#454d5d}.ao{fill:#217677}.ap{fill:#94d5d5}.ar{fill:#b3d5e1}.as{fill:#51596a}.at{fill:#a0cbd9}.au{fill:#343c4b}.av{fill:#404857}.ax{fill:#67acc3}.ay{fill:#4b5464}.az{fill:#e8cab6}.bb{fill:#245362}.bc{fill:#3b88a1}.bd{fill:#388199}.be{fill:#5f5044}.bg{fill:#787f8d}.bh{fill:#5f6878}.bi{fill:#1e7678}.bj{fill:#232a38}.bk{fill:#74665b}.bl{fill:#d9eaf0}.bm{fill:#55a2bb}</style></defs><g id="b"><path d="m95.16 258.92-2.92-10.18 36.7-6.68 84.31-7.71 64.32 4.1 33.24 16.14-37.58 6.02-75.96 5.71s-4.98-4.75-5.7-4.75-9.47 3.39-9.47 3.39l-86.94-6.04ZM282.75 286.52l-7.11-8.57 25.78-7.22 86.23-6.27 83.18-8.48 52.85 11.49 17.42 15.14 41.3 4.61 14.95 13.7-45.41 9.79-9.63-5.78-13.52 5.78-36.18-7.58-6.43-4.7-9.91 4.7-19.42-5.66-46.53.57-7.01-4.91-5.16 3.5-115.4-10.11zM180.49 302.4l-2.41-7.58 22.4-4.82 59.74-.48 44.85 3.48 31.52 5.43-14.7 6.74-84.67 3.56-5.96-5.96-5.79 4.69-44.98-5.06zM586.3 247.43l-1.12-11.63 22.17-3.37 41.91-8.44 40.23 11.33-46.21 16.56-56.98-4.45z" class="r"/><path d="m624.91 264.03 3.39-13.3 56.13-11.32 63.6-3.85h55.61l51.59 9.86-14.7 21.45-97.05 6.78-5.33-6.3-10.58 4.64-102.66-7.96zM647.21 297.95l-.96-5.66 62.45-9.12 62.57 2.35 29.36 4.88-14.34 9.33-67.17 3.64-2.77-3.5-3.25 3.02-65.89-4.94z" class="r"/></g><g id="c"><path d="m303.33 22.04-12.25 213.57 58.48 5.86 16.73-128.24-4.55-91.19-23.04-1.93-35.37 1.93z" class="ab"/><path d="m355.58 25.42 7.68-5.19 19.68-2.17 14.75 218.53-48.13 4.88 6.02-216.05z" class="ax"/><path d="m303.33 22.04 31.66-7 47.95 3.02-27.36 7.36-52.25-3.38z" class="ar"/><path d="m313.94 35.2 31.45 2.04-1.11 19.42L312.27 55l1.67-19.8zM311.9 68.68l31.82 2.22-.86 19-32.19-2.41 1.23-18.81zM310.3 100.19l31.63 2.78-.92 19.79-32.19-2.77 1.48-19.8z" class="bm"/><path d="m318.56 40.47 3.15.37-.37 3.7-3.42-.18.64-3.89zM336.78 41.58l3.52.37-.37 3.98-3.52-.18.37-4.17zM315.7 73.4l2.68.28-.19 3.98-3.05-.19.56-4.07zM335.58 75.25l3.33.28-.28 3.79-3.42-.37.37-3.7zM314.22 104.67l3.14.27-.28 3.43-3.23-.28.37-3.42zM334.01 106.42l2.96.19-.28 3.51-3.33-.37.65-3.33z" class="bd"/></g><g id="d"><path d="m586.3 247.43 6.91-1.2 3.7-14.63-10.73.74-2.1 10.73 2.22 4.36z" class="z"/><path d="m575.57 239.04-.24 7.28 10.97 1.11 3.21-12.99-13.94 4.6z" class="q"/><path d="m640.81 88.05-57.59 3.21-7.65 147.78 58.88 4.29 10.99-85.2-4.63-70.08z" class="ab"/><path d="m634.97 94.59 6.51-7.37 30.58-2.31 10.26 150.1-47.87 8.32.52-148.74z" class="ax"/><path d="m583.22 91.26 31.29-9.87 57.55 3.52-37.09 9.68-51.75-3.33z" class="ar"/><path d="m593.27 107.1 31.08 2.52-1.11 18.91-30.89-2.1.92-19.33zM591.61 141.97l31.45 2.52-.74 18.48-31.45-2.1.74-18.9zM587.35 205.97l31.45 2.52-.74 18.49-31.45-2.1.74-18.91z" class="bm"/><path d="m592.85 210.76-.43 4.23 3.98.42.51-4.32-4.06-.33zM596.6 147.49l3.33.37-.37 3.89-3.51-.19.55-4.07zM614.36 148.79l3.7.37-.37 3.88-3.88-.37.55-3.88zM598.38 112.71l3.6.17-.34 4.46-4.11-.52.85-4.11zM614.55 114.38l3.88.18-.37 3.89-4.25-.37.74-3.7z" class="bd"/></g><g id="e"><path d="m795.63 128.11 15.18-.97-9.79 93.24h-15.73l3.61-57.84 6.73-34.43z" class="bi"/><path d="m800.15 129.98-20.86-5.79-41.68-2.6-9.39 67.71 62.61 6.19 9.32-65.51z" class="af"/><path d="m810.81 127.14-58.82-8.73-14.38 3.18 62.54 8.39 10.66-2.84z" class="ap"/><path d="m781.67 127.5 7.23-3.61-36.91-5.48 4.93 24.46 24.49 31.75 4.25-21.36-3.99-25.76z" class="r"/><path d="m731.8 133.8-23.69 32.8 18 4.11 8.97-25.99-3.28-10.92z" class="ae"/><path d="m746.07 129.98-14.27 3.82-10.88 32.8 49.61 9.87 9.89-38.12-12.3-10.24-22.05 1.87z" class="x"/><path d="m750.87 137.38 11.98 8.77 5.27-18.04-22.05 1.87-5.1 12.89 9.9-5.49z" class="bl"/><path d="m710.18 67.56-.92 53.41 33.23 3.14 10.06 7.42 10.68-9.51 11.39-37.08-7.58-26.84-37.09-5.29-19.77 14.75z" class="aa"/><path d="m746.07 129.98 4.42-4.98 3.96-58.78 24.84 24.28-3.85 12.99-2.33 2.39-.18 6.04-4.81 16.19-17.25 9.27-4.8-7.4z" class="ag"/><path d="m742.49 124.11 14.43 1.33-10.85 4.54-3.58-5.87z" class="y"/><path d="m712.73 83.76 5.79-3.19 4.7 3.17 1.78 3.43 1.9 2.41 2.67-2.28 2.03-3.05 6.22-3.3 5.89 3.99-15.03 17.21-15.95-18.39z" class="ag"/><path d="m775.44 103.49-9.82-1.14 7.31 9.57 2.51-8.43zM769.24 99.35l1.23-6.86 5.05 1.14-6.28 5.72z" class="y"/><path d="m729.57 87.3-4.57-.13-1.46 14.66 2.57 1.01 2.57-.69.89-14.85z" class="az"/><path d="m712.73 83.76-.55-1.73 5.14-3.18 6.22 3.05-.32 1.84-5.36-1.65-5.13 1.67zM731.6 84.25l-.76-1.9 7.23-2.99 6.31 4-.67 1.58-6.1-2.15-6.01 1.46z" class="ay"/><circle cx="735.72" cy="92.98" r="2" class="bj"/><circle cx="718.87" cy="92.12" r="2" class="bj"/><path d="m718.4 107.18 8.47 2.62 9.17-1.92-.78 2.71-8.57 2.01-8.12-2.71-.17-2.71z" class="y"/><path d="m723.54 101.83-7.81 3.33-1.24 3.62 11.65-3.01 12.73 4.15-2.38-5.71-7.81-2.06-5.14-.32z" class="ay"/><path d="m723.54 101.83 2.6 3.94 2.54-3.62-5.14-.32z" class="au"/><path d="M713.32 65.59 708.11 60l27.36-13.58 14.24 2.25 4.74 4.14 9.69-1.87 11.85 1.87-10.37 12.52-11.17.89-25.77 2.16-15.36-2.79z" class="ay"/><path d="m754.45 66.22 4.95 6.35-2.57 3.01 6.84 26.91 3.11-14.3 12.51 2.31 1.67-5.56-2.27-6.91 5.72-4.57-8.42-20.65-21.54 13.41zM754.45 66.22l-33.58-5.8-6.38 5.58 14.11 5.58 25.85-5.36z" class="au"/><path d="m735.47 46.42-14.6 14-6.38 2.25-12.21-5.46 33.19-10.79zM731.58 62.27l18.13-13.6 14.43 2.27-32.56 11.33z" class="z"/><path d="m720.87 60.42 7.73 11.16-18.42-4.02-7.9-10.35 18.59 3.21zM754.45 66.22l29.96 7.24-3.45 11.48-24.13-9.36-2.38-9.36z" class="ay"/><path d="m780.42 138.35 5.24 14.91-11.35 24.14-19.32-10.18 5.2-4.68 20.23-24.19z" class="ae"/></g><g id="f"><path d="m793.8 264.22-13.5-1.67-8.14-15.17 26.27-.74-4.63 17.58z" class="bh"/><path d="m743.48 273.65 12.77-2.77 6.47-18.69-22.94 5-.92 7.21 4.62 9.25zM624.91 264.03l11.09-2.59 9.44-16.28-20.72 4.07.19 14.8z" class="ay"/><path d="m608.71 251.22 1.03 11.15 15.17 1.66 5.55-17.02-21.75 4.21zM744.31 261.94l-.83 11.71-15.91-1.66-2.59-17.02 19.33 6.97z" class="bh"/><path d="m808.96 250.16-1.28 11.28-13.88 2.78-4.07-17.76 19.23 3.7z" class="ay"/><path d="m744.31 261.94 64.65-11.78 7.8-64.56-68.67 23.99-21.54 23.49 17.76 28.86z" class="x"/><path d="m603.78 190.7 4.93 60.52 135.6 10.72 3.78-52.35-27.95-13.55-116.36-5.34z" class="bd"/><path d="m765.48 179.93-17.39 29.66-158.56-12.09-1.94-17.98 92.42-7.28 85.47 7.69z" class="ac"/><path d="m748.09 209.59 81.74-13.18 3.92-23.76-65.68 5.14-17.76 9.55-2.22 22.25z" class="ax"/><path d="M750.31 187.34c-1.11-.3-162.72-7.83-162.72-7.83l90.66-19.8 155.5 12.94-83.44 14.69Z" class="ar"/><path d="m620.47 210.39 111.36 8.51-1.85 30.33-105.81-8.87-3.7-29.97z" class="o"/><path d="m761.8 218.53 39.22-6.66-4.81 30.33-36.63 4.07 2.22-27.74z" class="bd"/><path d="m766.91 174.16-46.67 2.31 20.35-6.72 20.34-3.15 27.97 2.32-21.99 5.24z" class="r"/><path d="m748.73 152.3 5.32 11.25-8.22.41-1.24-2.41 4.14-9.25z" class="ag"/><path d="m760.19 162.54-40.45 9.7-36.01-6.74 13.2-9.81 63.26 6.85z" class="ad"/><path d="m720.24 176.47-49.64-4.01-2.78-9.43 37.37.74 14.55 5.18 5.43 3.14-4.93 4.38z" class="as"/><path d="m760.19 162.54 1.24 8.71-41.19 5.22-.5-7.52 40.45-6.41z" class="av"/><path d="m732.03 148.11 16.7 4.19-2.1 10.48-10.71-.19-1.13-1.23-1.69 1.18-3.74-.87 2.67-13.56z" class="aa"/><path d="m733.1 162.54 3.95-13.17-1.13 13.22-2.82-.05zM721.6 147.93l4.32 10.9-2.68 2.81-2.32-4.72.68-8.99z" class="ag"/><path d="m704.65 152.95 16.95-5.02 1.64 13.71-15.91.66-2.68-9.35z" class="aa"/><path d="m713.41 170.98-57.27-6.43-16.5-51.51 13.96-1.62 47.87 5.04 11.94 54.52z" class="bh"/><path d="m713.41 170.98 6.33-2.03-14.35-54.2-8.36 1.24v2.42l16.38 52.57z" class="av"/><path d="m705.39 114.75-54.2-6.42-11.55 4.71 57.39 5.37 8.36-3.66z" class="ad"/><path d="m672.45 141.02 4.07-5.74 5.18 6.29-3.89 5-5.36-5.55z" class="ap"/></g><g id="g"><path d="m256.63 125 12.37-.96-8.85 107.15-25.22-1.97L251 153.27l5.63-28.27z" class="bd"/><path d="m260.5 126.94-5.63-1.71-33.27-3.51-17.77.31-5.23 53.94 56.28 1.43 5.62-50.46z" class="ac"/><path d="m269 124.04-54.53-4.75-10.64 2.74 56.67 4.91 8.5-2.9z" class="at"/><path d="m247.33 170.28-14.35 5.69-22.63-11.67 6.16-37.69 15.62-5.78 22.75 1.98-6.44 3.08-1.11 44.39z" class="r"/><path d="m187.31 153.24 12.26-19.35v26.76l-5.07 7.2-13.2-2.52 6.01-12.09z" class="bb"/><path d="m211.15 130.12-11.58 3.77-6.86 18.24 20.24 6.42 23.29-1.28 4.64-21-12.74-3.41-16.99-2.74z" class="x"/><path d="m211.15 130.12-2.8 12.64 8.84-5.96 8.82 9.26 2.13-13.2-16.99-2.74z" class="bl"/><path d="m252.46 104.56 2.42 12.51-12.89-9.23 8.69-9.92 1.78 6.64z" class="au"/><path d="m177.72 67.03 4.71 55.89 21.4-.89 13.49 10.89 9.36-4.49 10.12-33.61-13.24-26.39-28.01-5.6-17.83 4.2z" class="aa"/><path d="m211.15 130.12 8.59-7.88 3.82-53.81 17.32 25.97-3.83 11.55-3.51 3.41.79 4.8-6.19 18.7-10.95 3.94-6.04-6.68z" class="ag"/><path d="m203.83 122.03 21.13-.95-13.81 9.04-7.32-8.09zM237.05 105.95l-7.03-1.39 4.31 9.6 2.72-8.21zM232.98 101.5l.67-7.16 4.39.67-5.06 6.49z" class="y"/><path d="M210.35 82.4 198.6 99.97l-15.66-15.94 5.16-2.39 5.16 1.72 3.44 2.29 2.67-2.77 5.25-1.34 5.73.86z" class="ag"/><path d="m193.26 83.36 1.24 16.81 1.94.54 2.16-.74.77-17.09-6.11.48z" class="az"/><path d="m194.5 100.17 2.2 2.48 1.9-2.68-4.1.2z" class="y"/><path d="m189.06 108.47 6.11 5.35 6.49-.19 6.69-5.79-11.46 2.42-7.83-1.79z" style="fill:#3e90aa;stroke-width:0"/><path d="m189.06 108.47 5.02.26 2.93-1.53 3.5 1.21 7.84-.57-11.15 3.5-8.14-2.87z" class="ae"/><circle cx="205.19" cy="92.53" r="2.2" class="bj"/><circle cx="188.58" cy="93.19" r="2.2" class="bj"/><path d="m182.94 84.03 10.32-.67-5.25-2.68-5.07 3.35zM199.37 82.88l10.98-.48-5.92-2.57-5.06 3.05zM177.72 67.03l12.78-13.27 13.33 3.72 1.36-5.81 12.07-1.72 26.59 17.04-7.05 10.62-14.27 5.27-44.81-15.85z" class="am"/><path d="m222.53 82.88 5.1 18.43 5.35-9.21 7.9 2.3-2.84-10.56 3.95.31 1.86-17.16-21.32 15.89z" class="au"/><path d="m190.5 53.76 38.06 24.63 4.42 1.44 2.42-6.54-30.21-21.62-14.69 2.09z" style="stroke-width:0;fill:#576071"/><path d="m228.56 78.39 12.32 16.01 1.11-10.25-6.59-10.86-6.84 5.1zM240.88 94.4l15.4-1.21-3.82 11.37-11.58-10.16z" class="am"/><path d="m192.71 152.13 7.77 20.84 32.5 3 3.26-18.7-43.53-5.14z" style="fill:#2a6275;stroke-width:0"/></g><g id="h"><path d="m253.05 257.15-12.78-1.34-6.68-16.23 19.46 1.72v15.85z" class="bh"/><path d="m267.07 244.18-.8 10.9-13.22 2.07-4.78-13.5 18.8.53zM197.27 266.32l11.5-2.28 7.96-20.39-21.93 4.99-2.86 10.82 5.33 6.86zM95.16 258.92l10.2-1.93 5.55-15.84-15.75 1.94-2.92 5.65 2.92 10.18z" class="ay"/><path d="m197.79 256.02-.52 10.3-15.17-1.36-2.9-15.02 18.59 6.08zM80.91 247.96l.5 9.87 13.75 1.09 3.41-15.03-17.66 4.07z" class="bh"/><path d="m197.79 256.02 69.28-11.84 3.77-60.47-70.57 21.64-15.52 10.3 13.04 40.37z" style="fill:#185e60;stroke-width:0"/><path d="m75.98 190.6 4.93 57.36 116.88 8.06 2.48-50.67-14.28-10.42-110.01-4.33z" class="bi"/><path d="m60.93 178.16 87.07-4.22 58.95 4.22 4.2 13.97-10.88 13.22-137.12-9.92-2.22-17.27z" class="ac"/><path d="m201.03 184.97 10.12-8.93 74.03-3.07-3.84 20.63-81.07 11.75.76-20.38z" class="ax"/><path d="m60.93 178.16 92.75-14.55 131.5 9.36-84.15 12-140.1-6.81z" class="ar"/><path d="m89.74 207.69 96.99 5.74-1.73 30.34-92.25-8.63-3.01-27.45z" class="w"/><path d="m212.87 212.2 43.41-5.92-2.96 30.34-42.42 6.16 1.97-30.58z" class="bi"/><path d="m259.74 171.16-18.86 4.23-33.5 2.01-8.78-1.43-14.15.46-1.51-4.26 18.34-3.38 46.05 1.49 12.41.88z" class="r"/><path d="m132.71 173.47 51.74 2.96 4.8-4.37-3.82-4.51-52.72-2.22v8.14z" class="as"/><path d="m185.43 167.55 6.23-3.45 23.39-.97 1.46 8.86-32.06 4.44.98-8.88z" class="av"/><path d="m215.05 163.13-55.95-2.48-26.39 4.68 52.72 2.22 29.62-4.42z" class="ad"/><path d="m192.71 152.13 6.66 10.31-5.01 1.86-3.59-3.53 1.94-8.64z" class="ag"/><path d="m192.71 152.13-14.08 2.88-.97 7.16 10.75 1.37.84-.86 1.65 1.18 3.46.44-1.65-12.17z" class="aa"/><path d="m187.31 153.24 3.59 10.62-2.49-.32-1.1-10.3z" class="ag"/><path d="m117.72 118.74 56 2.07 4.62 50.2-52.07-3.1-8.55-49.17z" class="bh"/><path d="m178.34 171.01 7.09-3.46-8.01-48.26-10.36 1.52 3.88 2.12 7.4 48.08z" class="av"/><path d="m177.42 119.29-49.21-3.88-10.49 3.33 53.22 4.19 6.48-3.64z" class="ad"/><path d="m142.27 144.86 4.44-5.18 5.55 6.11-5.37 4.99-4.62-5.92z" class="ap"/><path d="m240.88 136.27 6.45 34.01-11.09-2.73-4.13-5.78 8.77-25.5z" class="bb"/><path d="m232.11 161.77-9.58 6.74.7 2.65 4.09 2.78 20.01-3.66-15.22-8.51z" class="bc"/><path d="m222.53 168.51-9.87-1.57v5.23l6.93 3.22 7.73-1.45-4.79-5.43z" class="aa"/><path d="m212.66 166.94-10.2 7 4.92 3.46 12.21-2.01-6.93-8.45z" class="ag"/></g><g id="i"><path d="m462.6 146.81 11.83-3.14-14.04 101.12-18.38 3.09 16.28-90.77 4.31-10.3z" class="bd"/><path d="m464.83 147.61-22.32-6.29-42.38-2.19-13.08 68.71 67.54 3.29 10.24-63.52z" class="ac"/><path d="m474.43 143.67-62.02-8.27-12.28 3.73 64.7 8.48 9.6-3.94z" class="at"/><path d="m447.54 145.35 8.47-4.14-24.47-3.26-7.16 7.85 2.46 23.03 8.73 30.43 11.97-6 3.19-19.32-3.19-28.59z" class="r"/><path d="m391.9 151.54-23.13 34.03 18.01 7.46 10.41-22.33-5.29-19.16z" class="ae"/><path d="m406.94 148.52-15.04 3.02-7.78 39.09 52.37 6.49 6.6-44.83-14.78-6.49-21.37 2.72z" class="x"/><path d="m406.94 148.52-5.18 13.19 7.91-9.42 12.87 11.1 5.77-17.59-21.37 2.72z" class="bl"/><path d="m361.74 79.47 9.73 61.56 28.66-1.9 11.35 9.39 16.13-6.72 9.44-39.69-10.02-30.64-40.45-3.96-24.84 11.96z" class="aa"/><path d="m406.94 148.52 7.6-10.44-2.83-60.33 15.32-6.28 18.97 31.4-5.42 13.15-4.97 4.51.65 5.97-7.95 19.3-18.64 6.49-2.73-3.77z" class="ag"/><path d="m400.13 139.13 20.13-1.63-13.32 11.02-6.81-9.39zM440.58 116.02l-10.02-.94 5.7 11.42 4.32-10.48zM435.61 112.31l.96-7.44 5.01.24-5.97 7.2z" class="y"/><path d="m399.49 96.8-3.9-3.04-7.39 2.39-2.47 3.52-1.79 2.25-2.14-2.12-2.63-3.06-5.8-1.63-4.6 3.62L389 116.68l10.49-19.88z" class="ag"/><path d="m381.8 99.8.35 17.31 3.42 1.02 3.43-1.45-3.27-17.01-3.93.13z" class="az"/><path d="m382.15 117.11 4 3.42 2.85-3.85-6.85.43zM379.91 124.48l6.99 1.8 10.39-3.6.6 2.7-10.69 3.79-7.89-2 .6-2.69z" class="y"/><circle cx="394.99" cy="104.5" r="2.2" class="bj"/><circle cx="376.21" cy="106.19" r="2.2" class="bj"/><path d="m368.77 98.73.35-2.43 8.59-2.89 1.46 3.33-10.4 1.99zM388.2 96.15l1.5-3.64 8.69 1.4 1.1 2.89-11.29-.65zM361.74 79.47l5.06 1.16 9.41-2.05 3.1 4.93 7.47 1.72 7.06-4.64 2.52 1.76 15.35-4.6 16.51-3.13 5.73-12.31-12.75-3.25-6.44.72-1.97-2.87-13.29-3.38-24.8 11.41-12.96 14.53z" class="bk"/><path d="m411.71 77.75 3.05 4.6 6.44 2.69-1.94 4.1 3.78 5.71 14.01-1.58 7.63-8.23-10.73-22.73-22.24 15.44zM386.78 85.23l26.01-28.32 8.41 2.15-24.84 23.29-9.58 2.88zM399.5 53.53l-20.19 29.98-12.51-2.88 32.7-27.1z" class="be"/><path d="m423.04 94.85-.5 5.48 4.3 5.57 5.63-4.54 13.53 1.51-1.32-17.83-21.64 9.81zM419.26 89.14l20.93-13.62-25.43 6.83 4.5 6.79z" class="p"/><path d="m432.47 101.36-9.93-1.03-1.34 14.75h7l4.27-13.72z" class="be"/><path d="m443.09 152.29 7.64 21.65-6.93 19.09-19.42-2.91 18.71-37.83z" class="ae"/><path d="m403.01 177.18 8.44 5.56.72 11.28-12.78-6.94-4.17-4.04 7.79-5.86z" class="ag"/><path d="m443.8 193.03-2.03 5.62-33.72-6.99 3.4-8.92 32.35 10.29z" class="bc"/></g><g id="j"><path d="m468 285.38-12.81-1.96-5.09-15.39 22.46 1.58-1.89 9.53-2.67 6.24z" class="bh"/><path d="m483.21 272.87-.97 10.55-14.24 1.96-3.78-18.73 18.99 6.22zM410.32 298.04l14.06-2.59 3.51-16.93-16.46 7.8-3.7 5.01 2.59 6.71zM282.75 286.52l13.04-2.13 4.17-19.55-13.69 3.74-5.92 10.91 2.4 7.03z" class="ay"/><path d="m267.08 273.39 1.61 11.97 14.06 1.16 3.52-17.94-19.19 4.81zM411.43 286.32l-1.11 11.72-12.17-1.41-5.18-23.51 18.46 13.2z" class="bh"/><path d="m411.43 286.32 71.78-13.45 6.26-63.3-74.71 7.48-.15 4.23-9.1 19.75 5.92 45.29z" class="x"/><path d="m258.15 206.04 8.93 67.35 144.35 12.93 3.18-65.04-21.68-10.9-107.77-8.42-27.01 4.08z" class="bd"/><path d="m247.33 191.16 2.76 23.75 164.52 6.37 9.77-21.99-102.22-6.81-74.83-1.32z" class="ac"/><path d="m414.61 221.28 91.12-8.3 1.93-15.11h-67.37l-24.39 7.2-1.29 16.21z" class="ax"/><path d="m247.33 191.16 78.19-7.24 182.14 13.95-91.76 7.2-168.57-13.91z" class="ar"/><path d="m374.86 196.82 33.69-6.54 25.72 1.97-19.24 3.79-40.17.78z" class="r"/><path d="m276.51 224.69 123.32 6.42-3.94 37.98-114.7-9.13-4.68-35.27z" class="o"/><path d="m426.97 232.34 50.07-7.15-4.2 38.47-47.6 5.43 1.73-36.75z" class="bd"/><path d="m407.32 183.42-56.08-1.75 7.9 10.81h23.92l24.26-9.06z" class="ad"/><path d="m321.15 185.35 1.01 8.1 52.7 4.34 4.5-4.55-4.19-3.7-54.02-4.19z" class="as"/><path d="m303.7 134.54 18.56-.99 41.19 5.65 5.8 38.82-1.99 13.35-53.83-6.33-9.73-50.5z" class="bh"/><path d="m375.17 189.54 32.15-6.12 1.64 9.15-34.1 5.22.31-8.25z" class="av"/><path d="m360.37 140.65-1.28-3.03 7.2-1.68 8.88 53.6-7.91 1.83-6.89-50.72z" class="av"/><path d="m330.28 162.41 5.55-5.18 4.81 5.92-4.94 5.68-5.42-6.42z" class="ap"/><path d="m360.37 140.65 5.92-4.71-50.44-5.24-12.15 3.84 56.67 6.11z" class="ad"/><path d="m388.13 170.5 3.78.96v2.21l1.31.31 9.79 3.2-5.83 8.17-16-1.43 6.95-13.42z" class="aa"/><path d="m391.91 171.46-7.12 12.79 8.43-10.27-1.31-2.52z" class="ag"/></g><g id="k"><path d="m293.41 302.95-10.78-1.39-6.63-11.92 19.75.84-2.34 12.47z" class="v"/><path d="m180.49 302.4 8.31-1.44 7.77-10.84-13.91-1.45-2.17 13.73zM237.22 308.73l10.3-1.45 5.42-13.37-19.7 2.35-1.98 6.51 5.96 5.96z" class="al"/><path d="m169.43 293.52.76 7.62 10.3 1.26 5.42-11.56-16.48 2.68zM236.8 300.98l.42 7.75-11.75-1.27-3.97-11.74 15.3 5.26z" class="v"/><path d="m305.07 293 .19 8.32-11.85 1.63-9.58-13.74 21.24 3.79z" class="al"/><path d="m164.37 241.84 5.06 51.68 67.37 7.46 11.47-57.33-83.9-1.81z" style="fill:#abafb8;stroke-width:0"/><path d="m232.62 249.94 15.65-6.29 55.43-1.81 1.37 51.16-68.27 7.98-4.18-51.04z" class="bg"/><path d="m164.37 241.84 68.25-8.45 71.08 8.45-71.08 8.1-68.25-8.1z" style="fill:#cccfd4;stroke-width:0"/><path d="m176.69 253.62 45.53 6.33.92 12.2-2.68 1.66 2.94 1.78.99 13.26-45.53-5.6-.98-13.45 2.07-.55-2.22-1.48-1.04-14.15z" class="o"/><path d="m177.88 269.8 45.52 5.79-.26-3.44-45.41-4.38.15 2.03z" class="bd"/><path d="m196.45 263.08 2.35-2.53 2.4 3.13-2.83 2.05-1.92-2.65zM196.69 277.89l2.83-2.71 2.11 3.07-2.11 1.93-2.83-2.29z" class="x"/><path d="m247.88 262.11 39.2-4.87 1.99 24.03-39.93 4.87-1.26-24.03z" class="af"/></g><g id="l"><path d="m697.92 291.2 5.96-.9-.36-29.09-7.04 6.51-2.17 11.56 3.61 11.92z" class="z"/><path d="m687.98 280.36 3.71 10.12 6.23.72-1.44-23.48-8.5 12.64zM767.18 293.73l-5.18-.36-7.23-17.71 7.47-.48 6.98 8.55-2.04 10z" class="q"/><path d="m719.12 303.37 5.3-.85 4.82-21.92-8.92 6.96-2.65 10.15 1.45 5.66zM647.21 297.95l4.94-.85 10-20.83-8.67 1.92-5.42 7.59-.85 12.17z" class="z"/><path d="m642.76 280.11-1.69 17.48 6.14.36 6.27-19.76-10.72 1.92zM720.32 287.56l-1.2 15.81-6.02-.48-2.41-20 9.63 4.67z" class="q"/><path d="m771.93 278.05 1.03 14.6-5.78 1.08-4.94-18.55 9.69 2.87z" class="z"/><path d="m648.06 233.87-5.3 46.24 77.56 7.45L731.16 237l-83.1-3.13z" class="ar"/><path d="m723.21 242.06 6.99-6.5 39.58.18 2.15 42.31-51.61 9.51 2.89-45.5z" class="ac"/><path d="m648.06 233.87 49.86-6.74 71.86 8.61-46.57 6.32-75.15-8.19z" class="bl"/><path d="m734.54 251.46 25.04-5.19 1.45 24.46-27.94 5.54 1.45-24.81z" class="bm"/><path d="m658.17 246.16 52.52 4.81-2.17 25.78-53.24-5.06 1.25-10.97 2.97-2.5-2.37-2.88 1.04-9.18z" class="ac"/><path d="m657.13 255.34 10.28 1.17-.72 4.94-10.16-.73.6-5.38z" class="bm"/></g><g id="m"><path d="m468.4 186.85 2.43 21.17 5.42-3.23-4.94-21.55-2.91 3.61z" class="ay"/><path d="m476.25 204.79-20.24-4.32 2.64 6.68 12.91 4.58 4.69-6.94z" class="bh"/><path d="m457.24 182.06-5.3 22.73 6.71 2.36 1.43-25.27-2.84.18z" class="bg"/><path d="m467.49 161.36-4.27-3.47-7.74 12.96 8.86 4.03 3.15-13.52z" class="aa"/><path d="m479.25 188.04-10.85-1.19 8.86-18.23 8.58 11.88.48 3.99-7.07 3.55z" class="ag"/><path d="m455.48 170.85 12.01-9.49 9.77 7.26.91 10.29-9.77 7.94-11.16-4.79-1.76-11.21z" style="fill:#545c6d;stroke-width:0"/><path d="m459.6 172.26 7.8-5.98 5.42 3.69.92 7.27-6.01 4.71-7.02-2.67-1.11-7.02z" style="fill:#eeeff1;stroke-width:0"/><path d="m465.78 170.87 1.33.46-1.1 3.43 4.65-.66.17 1.21-6.15.52 1.1-4.96z" class="z"/><path d="m482.85 183.24-4.68-4.33-6.86-9.97 2.43-2.93 8.19 5.48 3.64 6.79.08 3.33-2.8 1.63z" class="aa"/><path d="m498.59 198.63-19.34-10.59 6.32-9.76 17.97 3.6-4.95 16.75z" class="av"/><path d="m574.28 72.19 13.07-6.16-3.72-9.93-14.7-12.61-.37 19.49 5.72 9.21z" class="au"/><path d="M493.98 278.14 484.9 291l-4.1 5.48 9.93 1.33 7.93-1.86 4.88-13.92-3.5-4.56-6.06.67z" class="aa"/><path d="m484.9 291 12.9 2.89-6.38 7.09-15.22-1.49 8.7-8.49z" class="z"/><path d="m490.76 298.78 7.04-4.89 5.74-11.86 4.53 6.38-2.2 14.72h-4.03l-.59-6.71-8.64 6.71h-16.34l-.07-3.64 14.56-.71zM550.65 291.22l4.77 10.34-3.48 9.15-6.64-2.92 5.35-16.57z" class="av"/><path d="m540.83 287.84 9.82 3.38-2.18 15.75-9.81-3.16-3.44-5.25 1.67-2.94 3.94-7.78z" class="aa"/><path d="m548.47 306.97-13.25-8.41-6.43 8.41 9.76 1.55 9.92-1.55z" class="z"/><path d="M551.94 306.97v3.74h-23.15v-3.74h23.15z" class="av"/><path d="m536.89 295.62 13.76-4.4-8.89-50.79-4.87 55.19z" class="ao"/><path d="m571.11 198.58-17.37 11.62-6.19-9.73 12.69-18.59 9.92 3.42.95 13.28z" class="av"/><path d="m556.54 155.09 28.09 35.07-13.52 8.42-23.35-15.41-9-17.31 17.78-10.77z" class="bg"/><path d="m491.07 50.93 31.91 7.92 28.7 10.5-2.35 13.17-7.55 15.42 3.32-.16 2.35 3.91 3.7-6.91 3-3 4.76 2.31 5.14 5.78-1.5 3.53-4.23 4.93-3.8 5.57-18.95 27.23-16.47 10.68-6.34-14.51.7-11.67-31.81-7.88 1.82-31.96 3.22-14.78 5.07-3.53-3.26-4.77 2.57-11.78z" class="aa"/><path d="m525.34 91.57-4.71-11.08-12.23-.08-5.92 15.5-1.88 2.94 5.57-25.49 1.51-2.19 5.22 1.02 9.6-2.24 4.45 10.22 3.21 5.62-4.82 5.78zM486.68 71.01l8.41 6.1.53 11.25 4.62-18.92.36-5.63-5.59-2.16-6.51 1.06-1.82 8.3z" class="ag"/><path d="m528.34 96.71-25.86-.8-.43-3.75 26.29 4.55zM483.41 86.96l10.82 7.29.96-3.97-11.78-3.32z" class="ag"/><path d="m543.17 66.78-11.46 9.96-3.37 9.53v10.44l-2.31 30.04-9.21 22.72 8.09 2.23 14.4-4.01 9.4-20.88 1.63-10.18 4.18-2.73-8.35-4.93 1.28-7.28-1.28-7.44 13.73-22.42-3.36-8.02-13.37 2.97z" class="ag"/><path d="m554.52 113.9-8.35-4.93 2.51 17.83 5.84-12.9zM481.65 117.75l52.15 10.23-13.55 23.35-3.21 2.03-5.37-10.55-1.38-15.85-28.64-9.21z" class="y"/><path d="m500.6 63.81-6.2-4.31-5.9 3.21 6.05-.47 6.05 1.57zM506.69 70.94l15.81-.99-10.45 4.74-5.36-3.75z" class="au"/><path d="m509.09 73.61-7.04 18.55-1.45 6.69-3.53.67-3.7-1.74 1.84-7.49 1.86-19.87 12.02 3.19z" class="az"/><path d="m500.6 98.85-3.85 3.11-3.38-4.18 7.23 1.07z" class="y"/><path d="m512.57 105.8-12.84 7.16-9.84-6.51 10.48 1.28 12.2-1.93z" style="fill:#3c9fb9;stroke-width:0"/><path d="m558.75 101.9-3.69-3.74-3.91 5.83 7.6-2.09z" class="y"/><path d="m491.07 50.93 29.82-20.13-.96 15.15-4.17 12.48-24.69-7.5z" class="av"/><path d="m520.89 30.8 48.04 12.69 3.8 19.49-10.28 4.23-10.77 2.14-8.51-2.57-27.41-8.35 5.13-27.63z" class="z"/><path d="m572.73 62.98 1.5 9.1 3.8 22.7-16.82-2.67-15.36-5.84 5.83-16.92 21.05-6.37z" class="av"/><path d="m578.03 94.78-32.18-8.51-4.07 11.67 5.67 3.75 6.7-9.91 5.75 2.47 4.15 5.62-5.73 8.46 19.71-13.55z" class="au"/><path d="m568.93 43.49 22.49-8.04 6.43 43.43-28.92-35.39z" class="z"/><path d="m540.95 144.2-29.28-1.39-2.26 8.48 4.82 10.6 19.09-4.47 14.44-8.43-6.81-4.79z" class="av"/><path d="m547.76 148.99 8.78 6.1-8.78 28.08-16.83 2.13-21.83-2.84-13.78-10.85 16.35-28.8 2.56 19.08 33.53-12.9z" style="fill:#71cacc;stroke-width:0"/><path d="m547.76 183.17-52.44-11.56 3.27 27.02 2.71 12.47 40.1-6.31 6.36-21.62z" class="ao"/><path d="M487.26 77.68c0 1.5 1.23 2.73 2.78 2.73s2.73-1.23 2.73-2.73-1.23-2.73-2.73-2.73-2.78 1.23-2.78 2.73ZM512.52 84.02c0 1.55 1.23 2.78 2.73 2.78s2.73-1.23 2.73-2.78c0-1.5-1.23-2.73-2.73-2.73s-2.73 1.23-2.73 2.73Z" class="bj"/><path d="m541.4 204.79-24.43 4.96-18.38-11.12-2.24 35.66 40.54 61.33 17.09-72.5-12.58-18.33z" class="w"/><path d="m541.4 204.79-2.64 9.03 2.64 6.56 12.58 2.74-12.58-18.33z" class="r"/><path d="m536.89 295.62-42.91-17.48 2.37-43.85 15.44-8.71 25.1 70.04z" class="ao"/><path d="m541.4 204.79-29.61 20.79-13.2-26.95 42.81 6.16z" style="fill:#72cbcc;stroke-width:0"/><path d="m512.57 105.8-9.22.41-4.62-1.23-4.52.95-4.32.52 9.23 2.9 13.45-3.55z" style="fill:#28778b;stroke-width:0"/><path d="m547.55 200.47-8.94.47v6.1l8.98 6.78 6.15-3.62-6.19-9.73z" class="aa"/><path d="m538.61 200.94-8.71 11.92 11.5 7.52 6.19-6.56-8.98-12.88z" class="ag"/><path d="m531.71 76.74 30.53 13.87 1.81 9.26-9.9-8.09-23.73-7.38-.26-3.11 1.55-4.55z" class="ah"/><path d="m472.86 84.02 22.33 6.26 4.02-16.4 3.44-.67 3.03 2.12-3.64 16.82 26.29 4.55 3.37-19.97-25.03-5.8-3.73.34-2.71-1.83-23.52-5.45-3.86 20.03Zm52.48 7.55-18.65-3.21 2.63-12.2 17.63 4.01-1.61 11.4Zm-46.68-10.69 1.38-11.53 15.97 4.08-3.26 11.96-14.08-4.51Z" class="bd"/><path d="m499.22 73.89 6.47 1.45 1-4.4-6.45-1.5-1.02 4.45z" class="ah"/></g></svg>