<svg xmlns="http://www.w3.org/2000/svg" width="900" height="350" style="width:100%;height:100%;content-visibility:visible" viewBox="0 0 900 350"><defs><clipPath id="a"><path d="M0 0h900v350H0z"/></clipPath></defs><g clip-path="url(#a)"><g display="block"><path fill="#BB8F2C" d="m253.249 81.419-1.374 7.172h1.374l2.75-7.172h-2.75z"/><path fill="#F4D65D" d="m195.394 53.221-7.757 10.234h16.606l-8.849-10.234z"/><path fill="#CCAC13" d="m191.515 63.455-5.149 7.85h18.967l-4.485-7.85h-9.333zM189.125 79.733l-2.372 3.686 18.58 1.532-2.708-6.528-13.5 1.31z"/><path fill="#F4D65D" d="m188.97 71.305-3.635 8.391 19.998.195-3.758-8.586H188.97z"/><path fill="#BB8F2C" d="M231.989 80.926v7.664L233 86.876l.916-6.25-1.927.3z"/><path fill="#CCAC13" d="m227.375 77.188-4.23 4.968 18.688-.468-3.895-5.436-10.563.936z"/><path fill="#F4D65D" d="m226.459 71.917-3.314 6.13 18.689-1.858-3.5-5.522-11.875 1.25z"/><path fill="#CCAC13" d="M227.023 65.895 223.144 73l18.689-2.16-6.038-5.476-8.772.531z"/><path fill="#F4D65D" d="m231.5 59.371-8.355 8.168 17.688-1.879-9.333-6.289zM264.499 52.922l-11.25 6.954 15.876 2.368-4.626-9.322z"/><path fill="#CCAC13" d="m257.254 60.473-8.754 7.065 20.624 2.087-2.5-8.375-9.37-.777z"/><path fill="#F4D65D" d="m252.258 67.918-5.883 6.793 21.624 2.165-1.746-7.54-13.995-1.418z"/><path fill="#CCAC13" d="m250.364 75.11-5.239 5.515 21.75 2.125-1.581-6.146-14.93-1.494z"/><path fill="#F4D65D" d="m277.038 79.166-7.155 5.794 12.992 1.6-5.837-7.394z"/><path fill="#CCAC13" d="m272.157 85.24-4.158 4.747 14.006.907-1.011-4.566-8.837-1.088z"/><path fill="#BB8F2C" d="m857.753 178.229-.512-5.644-2.35.045 1.149 5.537 1.713.062zM869.553 183.873l-.512-5.644-2.35.045 1.149 5.537 1.713.062z"/><path fill="#E4C728" d="m854.172 154.536 4.91 4.75-10.086 1.572 5.176-6.322z"/><path fill="#CCAC13" d="m856.904 159.625 3.574 5.231-11.134 1.593 2.416-6.023 5.144-.801z"/><path fill="#E4C728" d="m858.969 165.07 3.092 3.841-13.77 2.589 2.708-5.333 7.97-1.097z"/><path fill="#CCAC13" d="m859.8 169.272 3.549 4.083-15.662.521.604-2.375 11.509-2.229z"/><path fill="#E4C728" d="m867.103 162.926 3.814 3.689-7.834 1.221 4.02-4.91z"/><path fill="#CCAC13" d="m869.225 166.879 3.508 3.929-9.22.975 1.718-4.281 3.994-.623zM871.475 174.372l2.342 4.446-10.574-.322 1.477-3.047 6.755-1.077z"/><path fill="#E4C728" d="m870.748 171.019 3.033 4.108-10.59.566 2.645-4.154 4.912-.52z"/><path fill="#C4C4C4" d="m459.587 122.394 22.663-3.505 46.797 10.835 57.061.236 55.791 16.036 32.886 3.504 41.86 11.175-132.609 44.196-124.449-82.477z"/><path fill="#CECECD" d="m661.939 163.209 27.199 27.293 148.452 25.696 62.409-10.698-42.166-29.916-50.667 7.989-60.917-25.821-84.31 5.457z"/><path fill="#C4C4C4" d="m746.867 155.114 11.382 13.636-22.395 29.837-58.757 6.913-22.48-34.372 7.321-7.919 84.929-8.095z"/><path fill="#C4C4C4" d="m746.867 155.114 11.383 13.636-22.395 29.837-58.758 6.913-22.48-34.372 7.321-7.919 84.929-8.095z"/><path fill="#DDDDDC" d="m858.417 173.667-19.46 42.944-69.258-20.894-9.032-43.35 97.75 21.3z"/><path fill="#C4C4C4" d="m850.181 192.215 25.994 17.369-12.508 15.311-24.71-8.284 11.224-24.396z"/><path fill="#CECECD" d="m850.182 192.215 25.995 17.369L900 205.5l-41.583-31.832-8.235 18.547zM.055 179.625l41.444 4.566 22.5 22.679-12.036 15.525 426.089-4.268 119.947-42.475-201.744-77.626-130.962-.752-92.67-16.347L.055 179.625z"/><path fill="#A2A2A2" d="m.055 179.625 41.444 4.566 54.502-52.63-3.116-5.028-92.83 53.092z"/><path fill="#C4C4C4" d="m64 206.87 168.36-90.061 46.902 43.915-227.298 61.671L64 206.87z"/><path fill="#DDDDDC" d="m265.294 103.603 53.09 37.064-33.104 25.53-17.28-13.03-35.64-36.358 32.934-13.206z"/><path fill="#A2A2A2" d="m316.669 139.469-51.376-35.866 33.535-11.532 58.49 24.707 30.718 11.628 37.13 26.094 51.143 61.547-159.64-76.578z"/><path fill="#C4C4C4" d="m171.46 80.927 59.597 37.284 67.772-26.141L171.46 80.927z"/><path fill="#DDDDDC" d="m373.656 122.969 101.556 5.438 40.958 15.759-88.504 11.669-19.562-13.129-34.448-19.737z"/><path fill="#DDDDDC" d="m620.06 172.745-341.002-13.783L0 236.91l59 39.475 70.559 10.709-27.56 35.907 64.37 27h550.275L900 312.375v-77.349l-153.75-79.789-102.583-8.57-23.607 26.078z"/><path fill="#C4C4C4" d="m59 276.385 220.059-117.423 80.407 9.682 130.121 28.106-360.028 90.344L59 276.385z"/><path fill="#CECECD" d="M166.369 350.001H351l37.175-43.046-221.806 43.046zM504.765 268.127l211.88 81.874 128.158-143.619-63.833-29.789-276.205 91.534z"/><path fill="#EBEBEB" d="m389 218.667 212.304-43.125-3.179-3.667-16.702-10.612-65.254-17.097-185.021 11.07L389 218.667z"/></g><g display="block" opacity=".1"><path fill="#2B2B2B" d="m713.875 232.5 13.755-7.054 30.702-9.944 54.167 3.998 59 25.5-71.5 11.5-86.124-24zM118.79 320.352l43.087-14.955 58.606 9.969-56.402 9.967-45.291-4.981zM275.403 262.001l21.94 5.894 87.493 51.043 137.665-34.244 73.921-13.36-56.132-17.73-41.26-15.051-223.627 23.448zM616.335 300.535l58.024-12.717 63.308 12.717-67.186 18.402-54.146-18.402zM220.667 273.583l12.583-4.666 8.084 3.833-12.084 3.083-8.583-2.25zM266.25 287.833l7.583-2.5 8.667 2.418-8.75 2.666-7.5-2.584zM498.334 320.333l6.666-2.166 7.75 2.166L506 322l-7.666-1.667zM573.75 333.167l10.332-1.917 8.834 3.833-15.334 1.167-3.832-3.083zM524.333 315.75l12.417-5.5 9.333 6.25-12 2.333-9.75-3.083zM856.863 276.026l6.004-.842 6.003 1.589-6.837 2.149-5.17-2.896zM857.251 300.697l9-1.125 9 2.125-10.25 2.875-7.75-3.875zM831.918 293.422l12.014-2.757 10.495 1.423-10.667 3.417-11.842-2.083zM73.333 144.668l-7.208 5.708 14.75 4.25L86 147.668l18.333-3-11.667-8.333-19.333 8.333z" opacity="1"/></g><g display="block"><path fill="#755700" d="m844.802 284.883-.418 7.662-2.062-.312-1.136-10.502 3.616 3.152z"/><path fill="#E4C728" d="m831.918 279.378 12.884-13.458 5.365 11.246-5.365 7.717-12.884-5.505z"/><path fill="#F4D65D" d="M844.802 265.92v18.963l11.776-5.379-11.776-13.584z"/><path fill="#755700" d="M866.251 295.946v6.625l1.917-1.624 2.979-7.192-4.896 2.191z"/><path fill="#E4C728" d="m866.501 281.914-10.418 8.366 10.168 5.666 7.082-6.78-6.832-7.252z"/><path fill="#F4D65D" d="m866.5 281.914-.25 14.032 12.665-5.666-12.415-8.366z"/><path fill="#755700" d="M862.866 272.472v4.953l1.277-1.214 1.989-5.377-3.266 1.638z"/><path fill="#E4C728" d="m863.033 261.983-6.95 6.255 6.782 4.235 3.968-4.306-3.8-6.184z"/><path fill="#F4D65D" d="m863.032 261.983-.167 10.49 8.448-4.235-8.28-6.255z"/><path fill="#E4C728" d="m519.082 300.999 13.417 8.75 24.333-2.334-16.333-9.416-21.417 3z"/><path fill="#FFF" d="m531.332 302.666 3.417 2.75 7.333-1.084-4-2.25-6.75.584z"/><path fill="#755700" d="m532.5 309.749 1.75 7 2.832-7.417-4.582.417zM578.332 330.332v5.584l4.584-5.916-4.584.332z"/><path fill="#E4C728" d="m571.832 320.166 6.5 10.166 20.5-.333-9.333-8.167-17.667-1.666z"/><path fill="#FFF" d="m580.166 323.832 1.833 2.667 7.333-.167-2.5-2.5h-6.666z"/><path fill="#755700" d="m504.082 317.749 2.25 3.583 1.084-5.666-3.334 2.083z"/><path fill="#E4C728" d="m494.166 313.75 8.416-4.334 11 3.416-9.5 4.918-9.916-4z"/><path fill="#FFF" d="m500.499 313.249 3.333-1.333 3.667 1.333-3.917 1.417-3.083-1.417z"/><path fill="#755700" d="m273.25 284 .832 5.666 2.5-6.416-3.332.75z"/><path fill="#E4C728" d="m262.999 281.166 10.833-4.167 12.667 3.167-13.333 4.166-10.167-3.166z"/><path fill="#FFF" d="m271 280.999 3.167.417 4.415-1.25-4.332-.75-3.25 1.583z"/><path fill="#755700" d="m233.166 267.415-3.918 8.085-2.166-9.584 6.084 1.499z"/><path fill="#E4C728" d="m216.25 264.832 16.916 2.583 10-8.916-13.5-3.25-13.416 9.583z"/><path fill="#FFF" d="m225.999 262.165 5-3.75 3.5 2.334-8.5 1.416z"/><path fill="#AC923B" d="m720.261 102.7-11.489 30.551 24.294 7.248 49.596-17.696 22.113 12.432 14.554-3.576 25.67 6.2 55-23.663-50.665-6.361-65-9.185-39.279-.939-24.794 4.989z"/><path fill="#CCAC13" d="M817.909 79.992 784.333 98.65l60.666 17.442 55-1.897L873 77.862l-55.091 2.13z"/><path fill="#E4C728" d="m900 114.196-3.333-35.817L873 77.862l27 36.334z"/><path fill="#F4D65D" d="m878 46.999-5 30.863 23.666.517L878 46.999z"/><path fill="#E4C728" d="M849.334 40.99 873 77.862l5-30.863-28.666-6.009z"/><path fill="#AC923B" d="M754.387 57.333 763.72 47h25.192l37.587 3.419L873 77.862 784.333 98.65l-26.39-14.489-3.556-26.828z"/><path fill="#CCAC13" d="m838.334 22.558-97 6.978L873 77.862l-34.666-55.304z"/><path fill="#E4C728" d="M679.333 57.332h75.054L720.26 102.7l-47.017-36.96 6.09-8.408z"/><path fill="#CCAC13" d="m704.973 41.333 49.414 16H698l6.974-16z"/><path fill="#E4C728" d="m704.973 41.333 36.36-11.796L788.911 47l-34.524 10.333-49.414-16z"/><path fill="#F4D65D" d="m772.666-.001-31.334 29.538 97.001-6.978-65.667-22.56z"/><path fill="#858585" d="m792.333 157.039-16.668 3.635-14.999-8.308-13.724-8.566-2.201-7.468-11.676 4.166 25.373 28.362 22.453 7.73 11.442-19.551z"/><path fill="#858585" d="m792.333 157.039-3 39.711-18.667 45.201-21.347-11.414 31.573-53.946-5.002-9.78 16.443-9.772zM834.134 135.235l-10.865 4.644v.001l-3.935-8.22-17-4.106v28.219l-11.42 83.813 18.183-2.124 20.15-85.096 15.752-14.507-10.865-2.624z"/><path fill="#A2A2A2" d="m802.333 127.554-19.672-4.751 9.672 34.236-21.667 84.912 20.247-2.365 20.047-84.906-8.627-27.126zM839.639 136.564l-13.889 8.499-2.751-5.143 11.135-4.686 5.505 1.33z"/><path fill="#A2A2A2" d="m746.249 155.235 14.417-2.87 31.667 4.674-6.989 11.942-33.724-7.742-5.371-6.004zM733.066 140.498l27.6 11.867-15.925-16.032-11.675 4.165z"/><path fill="#CCAC13" d="M754.387 57.333 720.26 102.7l16.406 8.287 47.666-12.337-29.945-41.317z"/><path fill="#BB8F2C" d="m41.391 155.982-2.199-5.224 2.096-1.062 1.586 5.429-1.483.857z"/><path fill="#E4C728" d="m33.424 133.384-2.106 6.5 9.644-3.351-7.538-3.149z"/><path fill="#CCAC13" d="m33.402 139.16-.699 6.296 10.576-3.823-4.961-4.181-4.916 1.708z"/><path fill="#E4C728" d="m34.137 144.937-.925 4.845 12.378-4.252-5.236-2.84-6.217 2.247z"/><path fill="#CCAC13" d="m35.377 149.037-1.657 4.442 13.748-4.605-3.763-2.697-8.328 2.86z"/><path fill="#E4C728" d="m25.95 146.865-1.636 5.05 7.49-2.603-5.854-2.447z"/><path fill="#CCAC13" d="m25.932 151.352-1.251 5.117 8.598-3.471-3.529-2.973-3.818 1.327zM27.467 159.023l.021 5.026 9.183-5.253-2.735-1.995-6.469 2.222z"/><path fill="#E4C728" d="m26.532 155.721-.748 5.053 9.614-4.475-4.286-2.427-4.58 1.849zM51.105 145.079l-1.543 6.335 10.558-6.038-4.178-.866-4.837.569z"/><path fill="#CCAC13" d="m50.828 141.598-2.625 6.364 11.916-2.586-4.541-3.778h-4.75z"/><path fill="#E4C728" d="m53.077 137.847-4.875 5.834 9.5-2.084-4.625-3.75zM74.786 111.325l.415 11.117 9.37-1.603 17.249-12.045-11.636-4.352-15.398 6.883z"/><path fill="#E4C728" d="m76.769 122.442-3.524 13.852 16.102 2.164 15.841-19.078-9.938-6.318-18.481 9.38z"/><path fill="#F4D65D" d="m88.418 123.055.928 15.403 4.108-18.118-5.036 2.715z"/><path fill="#2B2B2B" d="m82.426 122.493 6.238 4.644 4.79-6.797-5.036 2.715-5.992-.562z" opacity=".2"/><path fill="#CCAC13" d="m84.454 109.526 3.964 13.529-16.132 1.035.959-13.893 11.209-.671z"/><path fill="#2B2B2B" d="m90.566 104.484-4.973 8.578-11.111-2.938 16.084-5.64z" opacity=".2"/><path fill="#F4D65D" d="m80.415 92.575-7.171 16.023 11.21.929 9-7.426-13.039-9.526z"/><path fill="#E4C728" d="m64.045 137.068-2.942 7.853 14.012-.29 9.456-6.783-12.285-4.051-8.241 3.271zM80.416 92.574l4.038 16.953-13.95.835 9.912-17.788z"/><path fill="#F4D65D" d="m73.244 136.294 1.87 8.337 14.232-6.172-5.796-6.588-10.306 4.423z"/><path fill="#2B2B2B" d="m83.55 131.871-9.618 7.489-9.886-2.291 19.504-5.198z" opacity=".2"/><path fill="#BB8F2C" d="m75.114 144.631-.328 7.46 1.786-1.397 1.54-7.363-2.998 1.3z"/><path fill="#E4C728" d="M63.918 126.341 60.119 137.4l13.125-1.107 15.083-5.684-5.657-8.167-18.752 3.899z"/><path fill="#CCAC13" d="m72.785 126.341.459 9.952-13.124 1.106 3.634-10.575 9.031-.483z"/><path fill="#2B2B2B" d="m82.705 122.493-9.868 6.732-9.085-2.4 18.953-4.332z" opacity=".2"/><path fill="#F4D65D" d="m69.809 105.485 15.94 15.827-12.965 5.03-14.852.795 11.877-21.652z"/><path fill="#E4C728" d="m69.809 105.485 2.975 20.857-14.852.795 11.877-21.652z"/><path fill="#BB8F2C" d="M89.346 138.458v7.541l1.544-.957 1.734-7.194-3.278.61z"/><path fill="#EBEBEB" d="m24.646 35.61 36.082-11.42 26.817 5.711h39.496l13.165 5.709-22.429 6.8-56.562 2.718-36.569-9.518z"/><path fill="#C4C4C4" d="m117.777 42.409 22.429-6.798-44.859 2.176-35.594-3.128-35.107.952 36.569 9.518 56.562-2.72z"/><path fill="#EBEBEB" d="m569.255 25.592 37.549-14.473 103.257 7.236-14.507 13.377-40.109 5.043-42.669-4.166-29.013.877-14.508-7.894z"/><path fill="#C4C4C4" d="m612.777 32.609 42.668 4.167 40.109-5.044 14.507-13.376-36.695 5.591-104.111 1.645 14.507 7.894 29.015-.877z"/></g><g display="block"><path fill="#B48B70" d="m564.957 165.618 5.639 13.043 12.018-13.862-9.433-28.052-9.469 13.026 1.245 15.845z"/><path fill="#D0AB92" d="m531.406 126.058-6.154 3.476-11.304 25.203 7.966 31.043h35.887l11.213-49.032-9.761-4.946-27.847-5.744z"/><path fill="#B48B70" d="m525.252 129.533-4.219 2.253-10.969 22.325 8.032 17.408 7.156-41.986z"/><path fill="#CCAC13" d="m525.252 129.532 5.923 29.266-18.524-.679 12.601-28.587zM531.176 158.797l27.793-26.997 14.211 4.947-13.967 49.031-28.037-26.981z"/><path fill="#B48B70" d="m529.317 149.611 3.588-5.314-1.73 14.5-1.858-9.186z"/><path fill="#BB8F2C" d="m512.651 158.119 53.982 1.606-7.42 26.054-23.092 8.132-14.207-8.132-9.263-27.66z"/></g><g display="block"><path fill="#D0AB92" d="m519.208 59.99-8.78 46.124 35.757 11.172 16.761-37.294-13.475-23.793-17.817-3.231-12.446 7.022z"/><path fill="#B48B70" d="m534.699 136.747 24.271-4.946 16.397-38.357-12.42-13.451-16.763 37.294-11.485 19.46z"/><path fill="#83614D" d="m555.155 120.259-20.457 16.488-3.657-24.192 24.114 7.704zM563.144 98.461l8.19 4.414-2.507 5.868-5.683-10.282z"/><path fill="#4F5252" d="m569.901 87.525-5.654 9.483.816-14.722 4.838 5.239z"/><path fill="#6E7073" d="m558.97 131.801-2.244 20.273 13.57-5.202 11.849-11.014-1.907-20.019 15.206-19.645-3.075-33.077L567.24 38.53l-34.734-3.87-26.522 27.714 8.834 6.555 4.39-8.938 12.448-7.023 15.219-1.351 16.073 28.376 12.419 13.452-16.397 38.356z"/><path fill="#D0AB92" d="m568.494 85.999-5.35 12.463 8.192 4.413 4.032-9.43-6.874-7.446z"/><path fill="#83614D" d="m567.075 95.294 6.282-1.177-4.101-4.021-2.181 5.198z"/><path fill="#4F5252" d="m531.655 52.968.851-18.309 34.733 3.871-17.769 17.669-17.815-3.231z"/><path fill="#6E7073" d="m592.369 63.116-29.422 16.877 12.42 13.452 20.076 2.749-3.074-33.078z"/><path fill="#858585" d="M567.24 38.529 549.471 56.2l13.476 23.793 29.422-16.877-25.129-24.587z"/><path fill="#4F5252" d="m595.443 96.193-15.206 19.646-21.268 15.962 16.398-38.358 20.076 2.75z"/><path fill="#4F5252" d="m558.97 131.8 23.174 4.057-11.849 11.015L558.97 131.8z"/><path fill="#6E7073" d="m524.876 110.628-5.221 6.438 5.597 12.466 7.829-3.474-2.04-13.503-6.165-1.927z"/><path fill="#AC923B" d="m521.888 95.147 1.284 4.285 6.493 2.343 7.023-2.343-14.8-4.285z"/><path fill="#755700" d="m527.637 96.193-1.543-1.708h-5.356l6.492 3.732 9.458 1.216-5.647-3.24h-3.404z"/><path fill="#D7BBA9" d="m531.041 76.739 3.657.738-3.043 11.542-5.217-1.042 4.603-11.238z"/><path fill="#83614D" d="m526.439 87.977 1.562 2.69 3.654-1.648-5.216-1.042z"/><path fill="#B48B70" d="m534.699 77.477 5.925-3.818 11.123 2.429-10.959 6.199-9.133 6.732 3.044-11.542zM531.041 76.739l-1.755-5.857-8.143-3.212 2.393 10.501 4.108 6.861 3.397-8.293z"/><path fill="#856300" d="m540.624 73.658 3.328-2.083 7.794 4.512-11.122-2.429zM529.287 70.881l-2.866-3.904-5.278.694 8.144 3.21z"/><path fill="#2B2B2B" d="M542.917 80.905c0 1.401-1.063 2.537-2.374 2.537-1.312 0-2.374-1.136-2.374-2.537 0-1.402 1.062-2.539 2.374-2.539 1.311 0 2.374 1.137 2.374 2.539zm-15.667-4.166c0 1.401-1.062 2.538-2.374 2.538s-2.374-1.137-2.374-2.538c0-1.402 1.062-2.539 2.374-2.539s2.374 1.137 2.374 2.539z"/><path fill="#4F5252" d="m531.042 112.555-5.789 16.978 7.828-3.475-2.039-13.503zM519.209 59.99l-13.226 2.384 8.723 21.264 4.503-23.648z"/><path fill="#858585" d="m519.655 117.066 8.748 3.222 2.638-7.733-6.165-1.927-5.221 6.438z"/><path fill="#E4C728" d="m571.81 100.582-1.66.572-1.323-1.15.335-1.722 1.659-.572 1.322 1.151-.333 1.721z"/><path fill="#B48B70" d="m525.252 129.532 9.446 7.214-1.617-10.688-7.829 3.474z"/></g><g display="block"><path fill="#D0AB92" d="m501.535 135.619 11.116 22.5 4.821 14.402-16.137-2.166-9.279-27.968 9.479-6.768z"/><path fill="#E4C728" d="m491.899 142.324 9.636-6.705 1.644 3.33-9.972 6.91-1.308-3.535z"/></g><g display="block"><path fill="#B48B70" d="m492.055 142.388-7.333-2.986 7.573-17.154 8.939 5.215.3 8.157-9.479 6.768z"/><path fill="#F4D65D" d="m504.764 95.294-21.985-3.375-1.353 19.069 6.345 6.956-3.049 21.458-5.348 4.099 13.832 2.358-2.455-6.637-1.65-8.304 4.027-8.111.841-5.807 7.566-3.375 3.229-18.331z"/><path fill="#D0AB92" d="m501.535 135.62 1.052-7.984L493.97 117l-.841 5.807 3.432 4.881-1.868 5.312 2.178 5.95 4.664-3.33z"/><path fill="#AC923B" d="m487.858 92.813-1.479-9.376-7.098-3.688-9.479 4.81 1.052 11.448 11.296 4.784.629-8.872 5.079.894z"/><path fill="#F4D65D" d="M472.435 86.604v7.204l7.748-3.992-7.748-3.212zM474.165 84.522l6.526 4.425-.958-6.682-5.568 2.257zM481.764 88.34l.827-5.12 3.083 1.561-3.91 3.559zM480.691 91.29l-6.526 3.646 6.526 2.95V91.29zM486.028 89.473l-.354-1.827-2.483 2.866 3.19.778-.353-1.817z"/><path fill="#D0AB92" d="m487.771 117.945-5.521.944-.042 17.486 2.866.555 5.677 2.291 2.377-16.414-5.357-4.862z"/><path fill="#CCAC13" d="m484.722 96.194 16.812 2.268-2.535 13.019-7.1 3.979-8.017-4.83.84-14.436z"/><path fill="#F4D65D" d="m495.257 99.56-1.288 1.333 1.288 1.335.962-1.335-.962-1.333zM497.37 101.894l-1.288 1.333 1.288 1.335.962-1.335-.962-1.333zM495.981 104.897l-1.288 1.333 1.288 1.335.962-1.335-.962-1.333zM497.283 98.937l-.604.624.604.624.45-.624-.45-.624z"/></g><g display="block"><path fill="#D0AB92" d="m513.948 221.413-3.161 29.263 10.834 2.215 12.048-27.48-19.721-3.998z"/><path fill="#83614D" d="m513.949 221.414 18.777 6.147 2.451-5.043-6.785-3.373-14.443 2.269z"/><path fill="#CCAC13" d="m521.621 252.891 1.417 4.651-13.788 11.056h-15.164l16.701-17.922 10.834 2.215z"/><path fill="#755700" d="m517.842 261.709-.565 6.89h4.004l3.282-9.474-2.942-6.234-3.779 8.818z"/><path fill="#D0AB92" d="m563.749 223.476-3.913 30.152h-10.608l-7.321-29.194 21.842-.958z"/><path fill="#83614D" d="m563.749 223.961-21.022 3.735-1.246-4.851 7.334-4.351 14.934 5.467z"/><path fill="#CCAC13" d="m549.229 253.628-6.619 20.664h16.602l.624-20.664h-10.607z"/><path fill="#755700" d="m559.837 253.628 4.982 7.724-2.989 12.94h-2.617l.624-20.664z"/><path fill="#9E7700" d="m521.913 185.779-7.966 35.634 49.801 2.548 2.885-21.01-7.421-17.172h-37.299z"/><path fill="#D0AB92" d="m561.83 191.649 19.592-30.386 6.774 20.024-21.563 21.664-4.803-11.302z"/><path fill="#BB8F2C" d="m559.212 185.779-45.265 35.634 39.146-14.504 8.736-15.26-2.617-5.87z"/><path fill="#2B2B2B" d="m553.093 206.909 12.691 2.221.849-6.179-13.54 3.958z" opacity=".2"/><path fill="#B48B70" d="M561.83 191.649h-10.075l6.714 15.26 8.164-3.958-4.803-11.302z"/><path fill="#D0AB92" d="m551.754 191.649-4.689 7.708 6.028 7.552h5.376l-6.715-15.26z"/></g><g display="block"><path fill="#CCAC13" d="m653.46 285.249-11.049 12.588 15.674 2.699 11.467-2.699 1.893-10.019-9.507-6.168-8.478 3.599z"/><path fill="#BB8F2C" d="m653.461 285.248 17.985 2.569 27.489-28.132-31.343-14.689-13.649-7.365-15.898-6.08 15.416 53.697z"/><path fill="#B58A00" d="m667.592 244.997 1.795 19.954 14.643 12.331 14.904-17.597 3.526-17.734-10.138-12.025-24.73 15.071z"/><path fill="#BB8F2C" d="m671.445 287.818-2.912 15.415 15.628 2.698 11.606-2.698-1.969-17.728-11.648-3.854-10.705 6.167z"/><path fill="#755700" d="M642.413 297.838h27.14l-1.02 5.396h-26.12v-5.396zM668.582 303.233h27.139l.047 5.396h-27.186v-5.396z"/><path fill="#9E7700" d="m646.634 261.47 22.754 3.481 2.058 22.867-17.986-2.569-6.826-23.779z"/><path fill="#856300" d="m698.934 259.685-29.546 5.267 2.058 22.867 22.352-2.313 5.136-25.821z"/></g><g display="block"><path fill="#856300" d="m716.645 244.334-7.58-32.808-7.315 22.599-.321 13.017 15.216-2.808z"/><path fill="#9E7700" d="m645.754 167.173-3.08 25.712-4.007 6.283 2.282 8.124-2.903 24.259 15.896 6.081 13.65-25.577v-9.954l-5.652-38.891-16.186 3.963z"/><path fill="#9E7700" d="m712.527 174.39-3.462 37.137-4.351 7.9-12.391 10.499-24.731-17.871-1.591-5.68 1.591-4.274 19.012-22.704 19.013-10.535 6.91 5.528z"/><path fill="#856300" d="m709.065 211.527 18.566 13.919-6.598-44.251-10.984-8.787-.984 39.119z"/><path fill="#BB8F2C" d="m694.407 228.099 14.657-16.572 18.567 13.919-25.169 12.817-8.055-10.164z"/><path fill="#D0AE95" d="m694.407 228.1-2.085 1.826 10.14 12.027v-3.689l-8.055-10.164z"/><path fill="#EBEBEB" d="m671.447 173.572-7.129 6.011-2.379-16.374 9.508 10.363zM699.194 158.73l-27.748 14.843 9.68 9.953 18.068-24.796z"/><path fill="#DDDDDC" d="m659.07 228.1 8.521 3.367 21.547-3.841-21.547-15.571-8.521 16.045z"/><path fill="#856300" d="m653.942 237.632 13.649 7.365 24.731-15.071-3.184-2.301-21.547 3.841-8.522-3.367-5.127 9.533z"/><path fill="#C4C4C4" d="m671.446 173.573-3.854 28.528 13.534-18.575-9.68-9.953zM667.592 212.055v19.412l21.546-3.841-21.546-15.571z"/><path fill="#CCAC13" d="m661.94 163.209-11.392 10.363 5.696 6.509-3.425 4.624 14.773 17.396-5.652-38.892zM667.592 202.102l31.602-43.372 6.422 10.132-10.02 13.103-7.535.692 1.883 5.818-22.352 13.627z"/><path fill="#DDDDDC" d="m671.446 173.573-3.854 28.528-3.274-22.518 7.128-6.01z"/><path fill="#CCAC13" d="m671.447 209.584-2.699-2.697 2.699-2.699 2.697 2.699-2.697 2.697z"/></g><g display="block"><path fill="#BB8F2C" d="m642.675 192.884-1.717 14.407-9.509 5.404-21.28-33.299 9.892-6.653 22.614 20.141z"/><path fill="#856300" d="m645.754 167.172-15.394 14.745 12.315 10.967 3.08-25.712z"/></g><g display="block"><path fill="#EED2C2" d="m647.294 89.986 15.93-7.451 26.463 7.451 3.597 17.85-8.477 43.507-42.909-5.346 5.396-56.011z"/><path fill="#A9846C" d="m691.315 152.162-19.869 21.411-9.507-10.363v-14.717l29.376 3.669z"/><path fill="#D0AE95" d="m671.447 173.573 27.746-14.841 14.004-37.244-19.913-13.651-8.373 42.976-13.464 22.76z"/><path fill="#EED2C2" d="m703.721 116.939-4.355 12.786 9.408 3.528 4.424-11.766-9.477-4.548z"/><path fill="#FFF" d="m652.562 130.581 9.803 1.178 12.421 1.494-5.524 7.452-7.745-.663-5.487-.469-3.468-8.992z"/><path fill="#A9846C" d="m669.733 141.749-7.816-.669-6.595-.564-4.292-11.127 11.841 1.424 13.743 1.653-6.88 9.283zm-12.995-3.119 4.767.408 7.286.623 4.166-5.621-10.556-1.269-8.308-.999 2.645 6.858z"/><path fill="#F7E6DC" d="M661.94 109.384h4.237l-.898 13.42-5.588-.51 2.25-12.91z"/><path fill="#A9846C" d="m659.691 122.294 1.862 3.79 3.726-3.28-5.588-.51z"/><path fill="#856300" d="m670.482 104.631 8.831 1.734 4.4 1.992-3.373-4.175-9.217-1.991-.64 2.44zM659.69 101.932v2.699l-7.129-.642-5.267.899 3.468-2.956h8.928z"/><path fill="#D0AE95" d="m670.482 104.631-4.304 4.753-.898 12.911 7.964-5.356 10.468-8.582-5.33-2.313-7.9-1.413zM659.691 104.631l2.25 4.753-1.673 9.591-12.974-14.087 5.268-.899 7.13.642z"/><path fill="#A9846C" d="m699.365 129.724 6.915 10.156 2.493-6.628-9.408-3.528zM703.433 126.084l6.036-3.789-4.367-1.477-1.669 5.266z"/><path fill="#4F5252" d="m647.294 71.744 15.93 10.791-15.93 7.451V71.744z"/><path fill="#9DA0A1" d="m707.93 78.38-18.243 11.607 30.574 12.715L707.93 78.38z"/><path fill="#4F5252" d="m713.197 121.487-9.477-4.548-1.998 5.865-5.998-3.015 2.441-8.564-4.88-3.389-3.599-17.85 30.574 12.715-7.063 18.786z"/><path fill="#6E7073" d="m658.013 73.028 5.211 9.507 26.463 7.45L707.93 78.38l-34.685-12.639-15.23 7.287z"/><path fill="#858585" d="m663.224 82.535 10.021-16.794-25.952 6.003 15.931 10.791z"/><path fill="#2B2B2B" d="M675.685 115.871a2.44 2.44 0 1 1-4.882 0 2.44 2.44 0 0 1 4.882 0zm-17.672-2.441a2.44 2.44 0 1 1-4.882 0 2.44 2.44 0 0 1 4.882 0z"/></g><g display="block"><path fill="#AC923B" d="m601.883 127.735-1.148-9.711-8.501-3.828-9.41 4.14-.679 12.736 13.764 4.774v-8.111h5.974z"/><path fill="#F4D65D" d="M584.037 121.311v7.478l9.276-4.145-9.276-3.333zM586.108 119.151l7.814 4.594-1.147-6.936-6.667 2.342zM595.208 123.744l.989-5.946 3.693 1.622-4.682 4.324zM593.922 126.176l-7.814 3.783 7.814 3.063v-6.846zM595.588 125.051l5.146 1.126-.844-3.784-4.302 2.658zM595.909 127.735h20.426l-.427 18.527-7.581 5.172-.256 6.38-.467 17.391-3.645 1.794-2.654-1.458 1.284-24.199-6.68-4.961v-18.646z"/><path fill="#EED2C2" d="m611.582 174.77-13.582.881.334-19.735 9.814-.029 3.434 10.404v8.479z"/><path fill="#D0AE95" d="m611.582 163.209-3.434-7.321-.544 19.316 2.565 4.192 5.581-3.812-4.168-12.375z"/><path fill="#F4D65D" d="m607.605 175.204 4.748 7.764h-15.93l4.882-7.427h3.211l3.089-.337z"/><path fill="#EED2C2" d="m608.327 151.433-.179 4.454 3.434 7.321v7.147l4.168 5.228 4.31-2.84v-12.104l-11.733-9.206z"/><path fill="#CCAC13" d="M597.549 130.579h16.018v13.719l-8.009 6.229-7.397-6.229-.612-13.719z"/><path fill="#F4D65D" d="m606.122 132.666-1.288 1.333 1.288 1.335.962-1.335-.962-1.333zM608.235 134.999l-1.288 1.333 1.288 1.335.962-1.335-.962-1.333zM606.846 138.003l-1.288 1.333 1.288 1.335.962-1.335-.962-1.333zM608.148 132.042l-.603.624.603.624.449-.624-.449-.624z"/></g><g display="block"><path fill="#E4C728" d="m302.631 131-16.399 7 13.83 39.333-3.041 16 .419 7.332 34.136 15.364 4.57-8.362 20.801-23.654 8.141-55.608-18.065-3.678L302.631 131z"/><path fill="#BB8F2C" d="m302.63 130.999-2.569 46.334-13.829-39.334 16.398-7zM359.466 168.644l-11.428-43.872 17.048 3.633-5.62 40.239z"/><path fill="#755700" d="m365.087 128.405 10.027 25.034-15.648 15.206 5.621-40.24zM286.232 137.999l-7.867 22.987 21.696 16.347-13.829-39.334z"/><path fill="#CCAC13" d="m300.061 177.332 31.581 14.502 25.305-7.821-23.876-16.681-33.01 10z"/><path fill="#BB8F2C" d="m329.587 140.666-.565 28.418 2.62 22.75 2.892-23.507-4.947-27.661zM323.891 154.833h-19.32v-3.168h19.32v3.168z"/></g><g display="block"><path fill="#BB8F2C" d="m267.545 152.833 32.516 24.501-21.339 11.667-20.259-24.668 9.082-11.5z"/><path fill="#C3977A" d="m256.851 145.266-9.006 13.696 10.618 5.372 9.082-11.5-10.694-7.568z"/><path fill="#DFBCA4" d="m256.851 145.266-11.679-2.148-5.321 9.365 7.995 6.479 9.005-13.696zM267.545 152.834l-4.785-14.684h-5.909v14.684l7.107 4.542 3.587-4.542z"/></g><g display="block"><path fill="#DFBCA4" d="m384.837 143.3 3.199-14.895 4.38-1.353 2.753 8.198-6.197 12.032-2.643 4.797-3.048-2.884 1.556-5.895z"/><path fill="#C3977A" d="m408.289 119.543 2.011 3.532-15.131 12.176-1.755-6.023 14.875-9.685z"/><path fill="#C3977A" d="m395.17 153.25 8.369-3.75-8.369-14.25-6.199 12.032-2.836 4.94 3.683 3.799 5.352-2.771z"/><path fill="#BB8F2C" d="m379.503 82.167 19.544 50.144-3.877 2.94-15.667-46.638v-6.446z"/><path fill="#CCAC13" d="M383.253 115.334v5.417l6.63-1.238 7.37-2.596 3.083-3.333.417-4.417-6.917 1.709-2.437 2.75-8.146 1.708z"/><path fill="#F4D65D" d="m383.253 115.334 2.917.583 8.583-2.833 6-3.917-8.083.834-1.987.851.466 1.274-3.112 1.25-.597-1.134-1.77.759-2.417 2.333z"/><path fill="#CCAC13" d="m380.42 106.834 1.416 4.333 4.665-1.722 5.501-2.611 3.652-3.5-.902-2.333-4.869 1.25-2.89 2.156-6.573 2.427zM377.67 98.917l.75 2.917 4.832-.834 4.085-1.583 5.415-4.642-2.75-2.275-4.582 3.292-2.958 1.542-4.792 1.583zM376.837 93.834l10.332-4-2.332-3.44-8 2.218v5.222z"/><path fill="#BB8F2C" d="m394.753 113.084 2.5 3.833 3.083-3.333.417-4.417-6 3.917zM386.17 115.917l3.714 3.596-6.632 1.237v-5.416l2.918.583z"/><path fill="#F4D65D" d="m380.42 106.834 4.417-.75 5.166-2.021 4.749-3.063h-5.477l-2.105.833.51 1.292-2.875 1.126-.386-1.008-1.999.924-2 2.667z"/><path fill="#BB8F2C" d="m389.883 104.109 2.119 2.725 3.651-3.5-.901-2.334-4.869 3.109zM384.836 106.083l1.665 3.363-4.665 1.721-1.417-4.334 4.417-.75z"/><path fill="#F4D65D" d="m377.67 98.917 4.792-.603 4.916-1.793 2.624-4.02-5.493 2.507.273.702-2.55 1-.2-.571-.445.203-3.917 2.575zM384.836 86.394l-8 7.44v-5.222l8-2.218z"/><path fill="#DFBCA4" d="m402.392 129.439 5.712 13.267-4.566 6.795-8.368-14.25 7.222-5.812z"/><path fill="#BB8F2C" d="m359.465 168.644 25.37-25.344 10.334 9.95-17.049 24.026-18.655-8.632z"/></g><g display="block"><path fill="#755700" d="m299.587 116.145 10.478-6.125-.015 5.748 2.641 6.502-13.104-6.125zM346.451 108.786l10.867 7.992-27.732 23.888 4.071-19.916 12.794-11.964z"/><path fill="#DFBCA4" d="m313.747 53.881 35.063 1.927 11.446-3.364 2.901 54.094-16.705 2.249-6.261 10.477-15.871 5.472-10.774-9.31-14.85-23.232-5.459-12.303-.146-11.765 20.656-14.245z"/><path fill="#C3977A" d="m317.758 54.101 7.228 57.274 21.466-2.589-8.116 6.089 1.491 6.434-10.241 19.357-10.097-11.253-8.443-8.565-8.931-20.948.384-4.632-3.802-3.073 10.117-5.184-5.904-11.887-9.674 4.767-4.082-9.051 19.203-13.243 5.389-3.715 4.012.219zM346.174 85.84l-7.679-15.503-12.013-6.032 15.24-2.061 2.994 5.007 3.738 10.144-2.28 8.445zM350.356 66.843l1.334-4.416 9.034-1.224-10.193 19.664-.175-14.024z"/><path fill="#8A6651" d="m308.816 87.01-10.12 5.186 3.418 7.702 6.702-12.888zM345.341 75.214l-18.756 10.883-5.735-7.487-2.89-.563-1.009-2.149 7.984-2.289 20.406 1.605zM351.002 75.073l10.758 5.42-.122-2.253-1.569-4.237-9.067 1.07z"/><path fill="#856300" d="m309.095 59.17 12.719 27.081-10.089 6.617-8.815-17.743-9.673 4.766-4.083-9.051 10.461-8.966 9.48-2.704z"/><path fill="#E8C9B6" d="m350.357 66.843-5.641.409 1.459 18.589 5.639-.423-1.457-18.575z"/><path fill="#8A6651" d="m304.289 85.407-2.531-6.504-5.783 2.686 8.314 3.818z"/><path fill="#856300" d="m326.483 64.305 11.159-5.09 4.081 3.028-15.24 2.062zM351.691 62.427l5.032-3.716 4 2.493-9.032 1.223z"/><path fill="#8A6651" d="m359.947 89.643-15.373 1.151-16.395 1.227 10.633 7.57 8.893-.58 4.865-.317 7.377-9.051z"/><path fill="#FFF" d="m355.971 91.861-22.314 1.646 5.841 4.518 11.917-.806 4.556-5.358z"/><path fill="#8A6651" d="m351.815 85.416-2.961 3.41-2.679-2.987 5.64-.423z"/><path fill="#856300" d="m317.96 78.046-14.312-1.432-.738-1.49 7.908-.842 6.158 1.67.984 2.094z"/><path fill="#8A6651" d="m346.452 108.786-28.068 3.384 21.443 9.138 6.625-12.522z"/><path fill="#BB8F2C" d="m352.256 35.068-52.286 4.301-11.664 13.553 33.568-6.573 30.382-11.281z"/><path fill="#755700" d="m317.757 54.101-28.603 16.74-.847-17.92 24.31-7.202 5.14 8.382z"/><path fill="#856300" d="m317.758 54.101-5.969-3.402.828-4.98 39.64-10.65-.59 10.791-2.858 9.947-31.051-1.706z"/><path fill="#BB8F2C" d="m352.256 35.068-3.447 20.739 11.446-3.364 17.09-19.228-25.089 1.853z"/><path fill="#464646" d="m323.735 68.769-28.281 2.091-2.218 9.031 9.674-4.767 21.577 1.188.423-4.069-1.175-3.474zM350.356 66.843l-5.641.409-.659 2.216 1.038 2.603 5.636-.471.908-1.842-1.282-2.915z"/><path fill="#4F5252" d="m367.957 65.57 1.108 14.88-18.063-5.377-.646-8.23 17.601-1.273zm-22.616 9.644-20.103 8.638-1.503-15.082 20.98-1.518.626 7.962z"/><path fill="#9E7700" d="m322.961 125.738-23.375-9.594L305.484 131l24.102 9.666-6.625-14.928z"/></g><g display="block"><path fill="#BB8F2C" d="M297.021 193.333v25.987l9.651 23.601 17.549-11.388 11.924-23.866-39.124-14.334zM316.829 246.331 312.001 257h-22.788l7.807-16.124 19.809 5.455z"/><path fill="#E4C728" d="M310.684 262.002h-21.471V257h22.786l-1.315 5.002z"/><path fill="#856300" d="m297.021 228.25 9.564 11.82 13.863-.986 5.211-10.429-28.638-9.335v8.93z"/><path fill="#9E7700" d="m297.021 228.251 24.504 8.679-4.697 9.401-19.807-5.455v-12.625z"/><path fill="#E4C728" d="m302.631 242.298-5.609 6.576h10.132v-5.291l-4.523-1.285z"/><path fill="#E1A942" d="m302.63 242.297 4.524 1.286 1.346-5.959-5.234-1.383-.636 6.056z"/><path fill="#9E7700" d="m297.021 193.333 27.633 20.5 3.713-9.659-31.346-10.841z"/></g><g display="block"><path fill="#84604F" d="m212.866 182.868-23.05 24.001 16.073 11.055 16.813-27.545-9.836-7.511z"/><path fill="#412B22" d="m217.292 186.251-.637 3.083 4.621 3.128 1.424-2.083 12.878-5.008-6.977-5.722-6.326-5.78-4.983 12.382z"/><path fill="#BB8F2C" d="m225.677 119.318-2.533 51.683 4.653 7.671.073-52.795-2.193-6.559z"/><path fill="#CCAC13" d="m233.147 154.348 1.844 5.513-7.171.995-8.381-.133-4.273-2.342-1.927-4.355 7.62-.614 3.418 1.969 8.87-1.033z"/><path fill="#F4D65D" d="m233.147 154.348-2.77 1.585-9.699.038-7.439-1.945 8.51-1.903 2.312.192-.04 1.455 3.591.211.221-1.357 2.06.17 3.254 1.554z"/><path fill="#CCAC13" d="m233.139 144.733.032 4.89-5.333-.164-6.488-.785-4.907-2.319.124-2.682 5.381-.384 3.675 1.21 7.516.234zM233.243 135.739l.23 3.224-5.203.796-4.696-.222-7.091-2.879 2.025-3.251 5.783 1.791 3.536.563 5.416-.022zM232.36 130.284l-11.878-.555 1.204-4.297 8.897-.464 1.777 5.316z"/><path fill="#BB8F2C" d="m220.678 155.97-1.239 4.753-4.273-2.342-1.926-4.356 7.438 1.945zM230.376 155.933l-2.557 4.923 7.172-.995-1.844-5.513-2.771 1.585z"/><path fill="#F4D65D" d="m233.139 144.733-4.751.739-5.946-.298-5.875-1.501 5.574-1.863 2.427.131-.082 1.488 3.309.167.051-1.155 2.349.258 2.944 2.034z"/><path fill="#BB8F2C" d="m222.579 145.181-1.229 3.494-4.909-2.32.124-2.682 6.014 1.508zM228.387 145.472l-.55 3.987 5.334.164-.032-4.89-4.752.739z"/><path fill="#F4D65D" d="m233.243 135.74-5.082 1.015-5.614-.15-4.04-3.198 6.444.683-.038.804 2.935.152.011-.649.521.055 4.863 1.288zM221.686 125.432l10.674 4.852-1.778-5.316-8.896.464z"/><path fill="#674636" d="m235.501 169.746-7.613-3.869-1.054 9.121.893 5.123-3.349.834 2.701 7.722 8.499-3.306-.077-15.625z"/><path fill="#84604F" d="m228.717 179.874-.829-13.997-7.312 2.26-2.527.781-5.184 13.95-1.579 1.997 5.383 4.569.624-3.183 4.327-2.584 1.099-6.74.307-.529 1.352 4.558 4.339-1.082z"/><path fill="#755700" d="m212.866 182.868 9.836 7.511-2.22 4.271-10.73-8.53 3.114-3.252z"/></g><g display="block"><path fill="#84604F" d="m128.034 186.252 12.844-11.431 24.247-7.924 10.717-2.629-8.506 38.8-39.302-16.816z"/><path fill="#BB8F2C" d="m175.843 178.672 15.203 13.855-2.459 29.868-40.822 8.033-1.075-11.432-4.996-8.769 5.477-10.456 16.778-2.423 11.894-18.676z"/><path fill="#CCAC13" d="m163.949 197.347-22.255 12.88-13.659-23.976 35.914 11.096z"/><path fill="#E4C728" d="m191.045 192.527-15.007 4.821h-12.089l11.893-33.08 15.203 28.259z"/><path fill="#674636" d="m163.949 197.348-3.488-11.096 5.484 5.547-1.996 5.549z"/></g><path fill="#84604F" d="m141.694 210.227-22.904 22.721 5.009-42.924 4.236-3.772 13.659 23.975z" display="block"/><path fill="#674636" d="m153.354 219.89-17.527-3.844-17.037 16.902 31.031-2.521 3.533-10.537z" display="block"/><g display="block"><path fill="#674636" d="m150.499 284.5-4.694 14.147 4.694 1.353 8-14.25-8-1.25z"/><path fill="#CCAC13" d="M137.503 320.834h19.664l-4.477-20.267-9.281-2.763-5.906 23.03z"/><path fill="#674636" d="m145.792 298.513-2.981 10.166 9.188-.054-1.389-8.677-4.818-1.435z"/><path fill="#755700" d="m143.409 297.803-8.16 8.197-.5 14.833h2.754l5.906-23.03z"/><path fill="#CCAC13" d="m175.37 300.553 10.799 18.022h12.517l-9.933-20.62-13.383 2.598z"/><path fill="#755700" d="m175.37 300.553-1.35.262-1.456 7.525 5.306 10.235h2.856v-9.083l-5.356-8.939z"/><path fill="#674636" d="m180.727 299.513 6.3 8.754 6.138-1.149-4.412-9.163-8.026 1.558z"/><path fill="#755700" d="m132.451 293.288 10.958 4.516 3.858-10.709-3.858-10.709-10.958 16.902z"/><path fill="#BB8F2C" d="m188.586 222.395-37.76 6.761-7.417 9.371v59.276l18.205 5.422 27.14-5.269 9.103-61.712-7.523-3.952-1.748-9.897z"/><path fill="#CCAC13" d="m165.056 225.354-21.647 51.031 54.448-40.142-9.272-13.848-23.529 2.959z"/></g><path fill="#674636" d="m175.842 164.268 26.782 29.265-12.807 13.337 1.228-14.343-15.203-28.259z" display="block"/><g display="block"><path fill="#84604F" d="m165.291 97.9 21.462 42.762-37.289 19.673-21.999-33.802 5.634-30.047 12.608-6.975 19.584 8.389z"/><path fill="#674636" d="m163.95 173.046-1.897 9.162-21.174-7.386-29.243-34.608 15.83-13.682 22.227 33.803 14.257 12.711z"/><path fill="#412B22" d="m163.95 173.045 4.328-22.636-23.106 12.339 18.778 10.297z"/><path fill="#84604F" d="m121.393 151.759 7.95-6.715-9.705-11.745-8.001 6.916 9.756 11.544z"/><path fill="#412B22" d="m129.343 145.044-2.597 13.052-5.353-6.336 7.95-6.716zM115.259 140.751l8.048 1.778-4.024-4.326-4.024 2.548z"/><path fill="#8B6C5D" d="m152.145 118.351 5.456 11.849 5.366-3.309-7.201-10.553-3.621 2.013z"/><path fill="#412B22" d="m162.967 126.89-1.23 4.672-4.136-1.362 5.366-3.31z"/><path fill="#674636" d="m155.767 116.338.939-4.828 6.171-3.756 3.13-1.337-3.935 19.176-6.305-9.255zM152.146 118.351l-4.803-2.437-8.075 4.36-3.182 2.06 21.516 7.866-5.456-11.849z"/><path fill="#2B2B2B" d="M165.484 116.338a2.517 2.517 0 1 1-5.035 0 2.517 2.517 0 0 1 5.035 0zM150.214 125.575a2.517 2.517 0 1 1-5.035 0 2.517 2.517 0 0 1 5.035 0z"/><path fill="#856300" d="m156.707 111.51 6.171-3.755 3.129-1.337-4.472-1.078-5.768 3.398.94 2.772zM147.343 115.914l-1.188-2.258-8.362 4.204-1.706 4.474 3.182-2.06 8.074-4.36z"/><path fill="#2B2B2B" d="m124.349 129.226 3.116 13.544-7.826-9.471 4.71-4.073z"/><path fill="#755700" d="m154.25 141.667 18-9.792-6.75.875-1.551 2.167-3.062.083-6.637 6.667z"/><path fill="#856300" d="m172.25 131.876-.413 8.792-8.067 4.376-9.52-3.376 18-9.792z"/><path fill="#EBEBEB" d="m155.945 140.745 8.31 1.547 4.958-2.875 1.548-6.731-14.816 8.059z"/><path fill="#2B2B2B" d="m145.707 89.511 12.496-4.56 5.746 3.64 1.342 9.31-19.584-8.39z"/><path fill="#464646" d="m172.625 80.927-12.164-1.036-2.258 5.06 12.093 22.922 2.329-26.946z"/><path fill="#4F5252" d="m145.262 67.334-4.382 11.569 4.828 10.609 26.916-8.584-27.362-13.594z"/><path fill="#464646" d="m100.398 88.437 12.857 8.05h19.843l12.608-6.976-.446-22.178-44.862 21.104z"/><path fill="#6E7073" d="m93.413 120.533 21.846-5.715 17.84-18.332-32.701-8.049-6.985 32.096z"/><path fill="#4F5252" d="m89.102 138.158 12.162 4.613 10.373-2.555 15.829-13.682 5.634-30.047-39.687 24.047-4.311 17.624z"/><path fill="#464646" d="m121.394 151.76-8.138 16.195-24.154-29.798 22.535 2.058 9.757 11.545zM140.879 174.821l-12.845 11.432-9.795-12.102 9.795-2.276 12.845 2.946z"/><path fill="#2B2B2B" d="m121.394 151.76 19.486 23.062-22.64-.67-4.984-6.197 8.138-16.195z"/></g><g display="block"><path fill="#AC923B" d="m175.416 191.081.5-9.166 7.417-3.666 9.573 4.718-.305 11.367-11.348 4.487v-7.623l-5.837-.117z"/><path fill="#F4D65D" d="M191.042 185.163v7.026l-7.648-3.893 7.648-3.133zM189.334 183.131l-6.442 4.316.945-6.516 5.497 2.2zM181.833 187.449l-.816-5.588-3.046 1.526 3.862 4.062zM182.892 189.734l6.442 3.556-6.442 2.878v-6.434zM181.519 188.676l-4.244 1.059.696-3.556 3.548 2.497zM182.302 190.711h-20.426l.427 18.526 7.581 5.172.256 6.38-.598 18.287 3.645 1.793 1.416-7.923 1.019-18.629 6.68-4.96v-18.646z"/><path fill="#674636" d="m166.37 212.011 12.603 5.912-1.476 11.222-13.009 1.282-.539-8.957 2.421-9.459z"/><path fill="#CCAC13" d="M164.081 192.84h16.018v13.718l-8.009 6.228-7.397-6.228-.612-13.718z"/><path fill="#F4D65D" d="m172.654 194.926-1.288 1.334 1.288 1.334.962-1.334-.962-1.334zM174.766 197.259l-1.288 1.335 1.288 1.333.962-1.333-.962-1.335zM173.377 200.264l-1.288 1.333 1.288 1.333.962-1.333-.962-1.333zM174.68 194.303l-.604.623.604.625.45-.625-.45-.623z"/><path fill="#84604F" d="m153.352 219.889 13.017-7.878-1.882 18.416h-14.668l3.533-10.538z"/><path fill="#DDDDDC" d="M164.081 240.87h15.316l-4.794-7.924h-4.86l-5.662 7.924z"/></g><g display="block"><path fill="#755700" d="m328.366 204.173-22.228 57.828 81.897 44.998 35.301-48.624-25.75-21.247-69.22-32.955z"/><path fill="#9E7700" d="m328.367 204.172 68.638 37.215 7.248-33.072-72.612-16.482-3.274 12.339z"/><path fill="#9E7700" d="M397.586 237.129 388.036 307l116.8-38.5-10.662-55-96.588 23.629z"/><path fill="#E1A942" d="m331.64 191.833 66.112 32.667 91.834-27.751-91.834-25.833-66.112 20.917z"/><path fill="#BB8F2C" d="m489.586 196.75-91.833 27.75-.749 16.886 97.17-27.886-4.588-16.75z"/><path fill="#DDDDDC" d="m358.003 193 41.044-14.666 61.538 16.91-61.082 18.256-41.5-20.5z"/><path fill="#755700" d="m364.385 196.152 35.077-14.402-.414-3.416L358.002 193l6.383 3.152z"/><path fill="#856300" d="m398.5 182.375 51.911 15.91 10.175-3.041-61.539-16.909-.547 4.04z"/><path fill="#858585" d="m366.595 197.244 42.699-16.018 8.147 2.163-43.352 17.557-7.494-3.702zM378.732 203.239l44.604-18.403 9.484 2.778-46.254 19.496-7.834-3.871zM389.746 208.68l51.09-19.101 9.55 2.863-52.8 20.111-7.84-3.873z"/><path fill="#A2A2A2" d="m417.995 209.753-49.162-21.896.921-2.892 4.336.376 39.371 19.831 4.534 4.581z"/><path fill="#C4C4C4" d="m390.974 188.098-1.808-2.148-7.167.632-5.483 7.06 2.216 5.407 2.533 3.145 6.349-2.767-.558-3.455 3.918-7.874z"/><path fill="#EBEBEB" d="m390.974 188.099-4.557.211-5.584 7.931.432 5.954 7.641-3.132.966-1.836-2.816-1.254 2.006-3.16 2.138 1.145.725-1.785-.951-4.074z"/><path fill="#C4C4C4" d="m399.994 193.642-2.99-2.056-3.226 1.319-4.612 6.946 2.46 6.217 2.282 1.024 2.582-4.314.538-3.565 2.966-5.571zM407.643 198.226l-5.144-1.163-3.038 5.132-.64 5.916 2.428 1.066 2.956-4.946 1.019-3.177 2.419-2.828zM409.879 201.601l-2.363 4.955.127 3.237 3.002-.254 1.104-4.257 3.005-3.681h-4.875z"/><path fill="#EBEBEB" d="m399.994 193.642-4.824 1.37-3.168 5.356 1.905 6.724 5.233-1.924.854-3.566-2.991-1.199 1.288-2.821 2.957 1.439 1.25-1.958-2.504-3.421zM407.643 198.225l-3.108 2.132-3.286 3.815v5.005l5.023-4.645-1.553-.69 1.106-2.506.545.265.883.381.39-3.757zM411.136 209.5l-3.492.294 3.855-7.104 3.256-1.088.601 1.696-1.527 2.244-.367-.369-1.65 1.765.786.412-1.462 2.15z"/><path fill="#A2A2A2" d="m441.613 200.609-49.114-20.442 1.42-4.839 3.901-.195 8.304 5.118 30.955 15.777 4.534 4.581z"/><path fill="#C4C4C4" d="m416.166 178.29-4.357-2.47-10.515 8.158.533 5.054 4.681 3.424 4.723-2.173-.201-3.669 5.136-8.324z"/><path fill="#EBEBEB" d="m416.166 178.291-11.833 7.576 2.175 6.59 6.46-2.705.521-1.67 1.328-3.269 4.458-2.758-3.109-3.764z"/><path fill="#C4C4C4" d="m425.17 183.502-5.896-1.447-6.306 3.319v10.042l3.62 1.535 3.519-3.317.538-3.566 4.525-6.566zM431.134 187.413l-2.585-1.546-3.928 3.886-1.6 3.506-.689 4.908 4.549 2.482.942-5.562 1.017-3.178 2.294-4.496zM433.497 192.456l-2.727 4.649.491 3.543 3.588.708.234-5.332 3.289-3.568h-4.875z"/><path fill="#EBEBEB" d="m425.17 183.501-7.253 3.912-1.329 9.538 4.831-2.855.912-2.075-1.273-.558 1.254-2.821 1.596.751 1.262-5.892zM431.134 187.413l-4.617 2.841-1.347 4.971-.241 4.388 1.953 1.036 2.64-5.424-1.185-.527 1.106-2.506 1.003.624 3.741-1.398-3.053-4.005zM433.437 199l1.061-1.938.748.298.608.616 1.285-2.491-.6-1.695-2.719 1.574-2.697 3.199-.622 3.631 2.513.496 1.725-3.011-1.302-.679z"/></g><g display="block"><path fill="#F4D65D" d="m434.402 181.226-5.79-16.032 21.364-24.045-2.556-26.11 9.556-10.857-3.667 11.897 4.267 32.964-20.017 20.93-3.157 11.253zM420.067 177.154l3.27-18.982 13.254-20.363-5.765-40.723 6.066-19.624-12.17 15.881 2.817 38.795-16.213 22.913 8.741 22.103zM367.109 194.308zM384.109 204.308zM435.109 197.308zM391.109 207.308zM426.109 193.308zM385.109 193.308zM420.109 193.308zM447.109 193.308z"/></g></g></svg>