<svg xmlns="http://www.w3.org/2000/svg" viewBox="0 0 240 240">
  <defs>
    <linearGradient id="bg" x1="0" x2="1" y1="0" y2="1"><stop stop-color="#fff3d6"/><stop offset="1" stop-color="#d7b184"/></linearGradient>
    <linearGradient id="skin" x1="0" x2="0" y1="0" y2="1"><stop stop-color="#f6caa5"/><stop offset="1" stop-color="#d99872"/></linearGradient>
  </defs>
  <rect width="240" height="240" rx="32" fill="url(#bg)"/>
  <ellipse cx="120" cy="118" rx="69" ry="75" fill="#ece4d8"/>
  <path d="M48 126c3-48 33-86 72-86 41 0 70 37 73 86-15-20-31-33-50-38-6 12-23 21-48 25-17 2-32 6-47 13z" fill="#f5efe6"/>
  <ellipse cx="120" cy="124" rx="56" ry="62" fill="url(#skin)"/>
  <path d="M62 119c10-36 34-56 58-56 27 0 49 20 58 57-18-13-36-19-55-18-25 1-44 6-61 17z" fill="#f8f2ea"/>
  <path d="M80 118c9-5 19-5 28 0M133 118c9-5 19-5 28 0" stroke="#6b4b35" stroke-width="3.5" stroke-linecap="round" fill="none"/>
  <path d="M95 133c5 4 13 4 18 0M129 133c5 4 13 4 18 0" stroke="#8d6249" stroke-width="2" stroke-linecap="round" fill="none" opacity=".45"/>
  <path d="M120 130c-2 12-5 20 2 25 3 2 7 2 10 0" stroke="#9a6046" stroke-width="3" stroke-linecap="round" fill="none"/>
  <path d="M99 166c13 10 30 10 43 0" stroke="#8b4b39" stroke-width="3.5" stroke-linecap="round" fill="none"/>
  <circle cx="81" cy="149" r="8" fill="#e7a17f" opacity=".35"/>
  <circle cx="161" cy="149" r="8" fill="#e7a17f" opacity=".35"/>
  <path d="M76 92c19-20 54-27 93 9" stroke="#ede2d5" stroke-width="13" stroke-linecap="round" opacity=".9"/>
</svg>
