<svg xmlns="http://www.w3.org/2000/svg" viewBox="0 0 240 240">
  <defs>
    <linearGradient id="bg" x1="0" x2="1" y1="0" y2="1"><stop stop-color="#fff6df"/><stop offset="1" stop-color="#e5c49a"/></linearGradient>
    <linearGradient id="skin" x1="0" x2="0" y1="0" y2="1"><stop stop-color="#f8c79c"/><stop offset="1" stop-color="#d98b61"/></linearGradient>
  </defs>
  <rect width="240" height="240" rx="32" fill="url(#bg)"/>
  <path d="M58 116c0-48 27-78 64-78 38 0 64 30 64 80 0 45-23 78-64 78s-64-34-64-80z" fill="#3c2b25"/>
  <ellipse cx="120" cy="124" rx="56" ry="65" fill="url(#skin)"/>
  <path d="M66 111c14-42 38-61 71-58 28 3 43 24 48 56-29-25-62-28-119 2z" fill="#32231f"/>
  <circle cx="96" cy="126" r="5" fill="#442a1f"/>
  <circle cx="145" cy="126" r="5" fill="#442a1f"/>
  <path d="M84 116c10-6 21-6 30 0M130 116c10-6 21-6 30 0" stroke="#3a241c" stroke-width="4" stroke-linecap="round" fill="none"/>
  <path d="M118 126c-3 13-6 24 4 29" stroke="#945338" stroke-width="4" stroke-linecap="round" fill="none"/>
  <path d="M98 165c15 10 31 10 46 0" stroke="#88472f" stroke-width="4" stroke-linecap="round" fill="none"/>
</svg>
