<svg xmlns="http://www.w3.org/2000/svg" viewBox="0 0 240 240">
  <defs>
    <linearGradient id="bg" x1="0" x2="1" y1="0" y2="1"><stop stop-color="#fff4d8"/><stop offset="1" stop-color="#f0c176"/></linearGradient>
    <linearGradient id="skin" x1="0" x2="0" y1="0" y2="1"><stop stop-color="#ffc58d"/><stop offset="1" stop-color="#df8556"/></linearGradient>
  </defs>
  <rect width="240" height="240" rx="32" fill="url(#bg)"/>
  <ellipse cx="120" cy="126" rx="58" ry="61" fill="url(#skin)"/>
  <path d="M57 104c5-38 32-64 66-64 37 0 61 27 64 62-18-12-36-18-54-19-7 11-25 20-55 22-7 0-14 0-21-1z" fill="#3c2419"/>
  <path d="M78 92c13-24 35-34 58-31 20 3 34 14 42 31-18-8-35-10-51-7-16 3-31 6-49 7z" fill="#553321"/>
  <circle cx="96" cy="128" r="5" fill="#3b261c"/>
  <circle cx="144" cy="128" r="5" fill="#3b261c"/>
  <path d="M86 118c8-4 17-4 25 0M131 118c8-4 17-4 25 0" stroke="#3b261c" stroke-width="3" stroke-linecap="round" fill="none"/>
  <path d="M119 132c-2 9-4 15 3 20" stroke="#9b5637" stroke-width="3" stroke-linecap="round" fill="none"/>
  <path d="M105 165c9 7 22 7 31 0" stroke="#81412b" stroke-width="3" stroke-linecap="round" fill="none"/>
</svg>
