<?xml version="1.0" encoding="UTF-8"?>
<!DOCTYPE svg PUBLIC "-//W3C//DTD SVG 1.1//EN" "http://www.w3.org/Graphics/SVG/1.1/DTD/svg11.dtd">
<svg xmlns="http://www.w3.org/2000/svg" version="1.1" width="70px" height="69px" style="shape-rendering:geometricPrecision; text-rendering:geometricPrecision; image-rendering:optimizeQuality; fill-rule:evenodd; clip-rule:evenodd" xmlns:xlink="http://www.w3.org/1999/xlink">
<g><path style="opacity:1" fill="#010102" d="M -0.5,-0.5 C 22.8333,-0.5 46.1667,-0.5 69.5,-0.5C 69.5,22.5 69.5,45.5 69.5,68.5C 46.1667,68.5 22.8333,68.5 -0.5,68.5C -0.5,45.5 -0.5,22.5 -0.5,-0.5 Z"/></g>
<g><path style="opacity:1" fill="#263c60" d="M 11.5,17.5 C 11.5,26.5 11.5,35.5 11.5,44.5C 12.8333,44.5 14.1667,44.5 15.5,44.5C 16.1667,44.5 16.8333,44.5 17.5,44.5C 17.5,46.5 17.5,48.5 17.5,50.5C 16.5489,49.0813 16.2155,47.4147 16.5,45.5C 14.5,45.5 12.5,45.5 10.5,45.5C 10.1731,35.985 10.5064,26.6517 11.5,17.5 Z"/></g>
<g><path style="opacity:1" fill="#79a0df" d="M 11.5,17.5 C 27.1667,17.5 42.8333,17.5 58.5,17.5C 58.5,28.5 58.5,39.5 58.5,50.5C 45.1667,50.5 31.8333,50.5 18.5,50.5C 18.5,48.8333 18.5,47.1667 18.5,45.5C 30.0123,45.8281 41.3456,45.4948 52.5,44.5C 52.5,37.5 52.5,30.5 52.5,23.5C 53.492,30.9818 53.8254,38.6484 53.5,46.5C 42.1667,46.5 30.8333,46.5 19.5,46.5C 19.5,47.5 19.5,48.5 19.5,49.5C 32.1667,49.5 44.8333,49.5 57.5,49.5C 57.5,39.1667 57.5,28.8333 57.5,18.5C 53.5,18.5 49.5,18.5 45.5,18.5C 34.5,18.5 23.5,18.5 12.5,18.5C 12.5,26.8333 12.5,35.1667 12.5,43.5C 13.791,43.2627 14.791,43.596 15.5,44.5C 14.1667,44.5 12.8333,44.5 11.5,44.5C 11.5,35.5 11.5,26.5 11.5,17.5 Z"/></g>
<g><path style="opacity:1" fill="#0e1630" d="M 52.5,23.5 C 52.5,30.5 52.5,37.5 52.5,44.5C 52.1667,44.5 51.8333,44.5 51.5,44.5C 51.5,37.8333 51.5,31.1667 51.5,24.5C 40.5,24.5 29.5,24.5 18.5,24.5C 18.2066,31.2554 18.5399,37.9221 19.5,44.5C 18.8333,44.5 18.1667,44.5 17.5,44.5C 17.5,37.5 17.5,30.5 17.5,23.5C 29.1667,23.5 40.8333,23.5 52.5,23.5 Z"/></g>
<g><path style="opacity:1" fill="#010207" d="M 51.5,44.5 C 40.8333,44.5 30.1667,44.5 19.5,44.5C 18.5399,37.9221 18.2066,31.2554 18.5,24.5C 29.5,24.5 40.5,24.5 51.5,24.5C 51.5,31.1667 51.5,37.8333 51.5,44.5 Z"/></g>
<g><path style="opacity:1" fill="#7594d2" d="M 42.5,30.5 C 48.4759,31.951 48.9759,34.6177 44,38.5C 42.5,37 41,35.5 39.5,34C 40.7101,32.9609 41.7101,31.7942 42.5,30.5 Z"/></g>
<g><path style="opacity:1" fill="#7595d3" d="M 28.5,30.5 C 33.9618,31.3364 34.9618,33.503 31.5,37C 26.3823,36.8242 25.3823,34.6576 28.5,30.5 Z"/></g>
<g><path style="opacity:1" fill="#74a7ee" d="M 45.5,18.5 C 45.0825,19.2216 44.4158,19.7216 43.5,20C 46.4225,21.6029 49.4225,22.7696 52.5,23.5C 40.8333,23.5 29.1667,23.5 17.5,23.5C 17.5,30.5 17.5,37.5 17.5,44.5C 16.8333,44.5 16.1667,44.5 15.5,44.5C 14.791,43.596 13.791,43.2627 12.5,43.5C 12.5,35.1667 12.5,26.8333 12.5,18.5C 23.5,18.5 34.5,18.5 45.5,18.5 Z"/></g>
<g><path style="opacity:1" fill="#72a7f7" d="M 45.5,18.5 C 49.5,18.5 53.5,18.5 57.5,18.5C 57.5,28.8333 57.5,39.1667 57.5,49.5C 44.8333,49.5 32.1667,49.5 19.5,49.5C 19.5,48.5 19.5,47.5 19.5,46.5C 30.8333,46.5 42.1667,46.5 53.5,46.5C 53.8254,38.6484 53.492,30.9818 52.5,23.5C 49.4225,22.7696 46.4225,21.6029 43.5,20C 44.4158,19.7216 45.0825,19.2216 45.5,18.5 Z"/></g>
<g><path style="opacity:1" fill="#47628d" d="M 17.5,44.5 C 18.1667,44.5 18.8333,44.5 19.5,44.5C 30.1667,44.5 40.8333,44.5 51.5,44.5C 51.8333,44.5 52.1667,44.5 52.5,44.5C 41.3456,45.4948 30.0123,45.8281 18.5,45.5C 18.5,47.1667 18.5,48.8333 18.5,50.5C 31.8333,50.5 45.1667,50.5 58.5,50.5C 44.8333,51.8333 31.1667,51.8333 17.5,50.5C 17.5,48.5 17.5,46.5 17.5,44.5 Z"/></g>
</svg>
