<svg xmlns="http://www.w3.org/2000/svg" viewBox="0 0 1920 1080" preserveAspectRatio="xMidYMid slice">
  <defs>
    <linearGradient id="sky3" x1="0" y1="0" x2="0" y2="1">
      <stop offset="0" stop-color="#e8e4d0"/>
      <stop offset="0.5" stop-color="#d0d8c0"/>
      <stop offset="1" stop-color="#a8b888"/>
    </linearGradient>
    <linearGradient id="water3" x1="0" y1="0" x2="0" y2="1">
      <stop offset="0" stop-color="#a8c8c8"/>
      <stop offset="0.5" stop-color="#88a8a8"/>
      <stop offset="1" stop-color="#5a8080"/>
    </linearGradient>
    <linearGradient id="tile3" x1="0" y1="0" x2="0" y2="1">
      <stop offset="0" stop-color="#e0b850"/>
      <stop offset="1" stop-color="#a07820"/>
    </linearGradient>
    <linearGradient id="tile3G" x1="0" y1="0" x2="0" y2="1">
      <stop offset="0" stop-color="#5a8060"/>
      <stop offset="1" stop-color="#2a4a30"/>
    </linearGradient>
    <linearGradient id="willow3" x1="0" y1="0" x2="0" y2="1">
      <stop offset="0" stop-color="#a8c898"/>
      <stop offset="1" stop-color="#6a8a58"/>
    </linearGradient>
    <linearGradient id="mountain3" x1="0" y1="0" x2="0" y2="1">
      <stop offset="0" stop-color="#7a9a78" stop-opacity="0.85"/>
      <stop offset="1" stop-color="#5a7a58"/>
    </linearGradient>
  </defs>

  <!-- 米黄天空 -->
  <rect width="1920" height="1080" fill="url(#sky3)"/>

  <!-- 远山层叠(青绿) -->
  <path d="M0 360 Q200 300 400 340 Q600 290 800 330 Q1000 280 1200 320 Q1400 280 1600 320 Q1800 290 1920 330 L1920 580 L0 580 Z" fill="#7a9a78" opacity="0.5"/>
  <path d="M0 420 Q300 360 600 400 Q900 360 1200 400 Q1500 360 1920 410 L1920 580 L0 580 Z" fill="url(#mountain3)" opacity="0.85"/>

  <!-- 湖水 -->
  <rect x="0" y="560" width="1920" height="520" fill="url(#water3)"/>

  <!-- 远景:连绵殿宇(沿岸) -->
  <g transform="translate(120, 480)" opacity="0.92">
    <rect x="-60" y="40" width="120" height="20" fill="url(#tile3)"/>
    <rect x="-55" y="0" width="110" height="42" fill="#d8c088"/>
    <path d="M-65 0 Q0 -50 65 0 L70 8 L-70 8 Z" fill="url(#tile3)"/>
  </g>
  <g transform="translate(380, 500)" opacity="0.92">
    <rect x="-80" y="50" width="160" height="22" fill="url(#tile3)"/>
    <rect x="-75" y="0" width="150" height="52" fill="#d8c088"/>
    <path d="M-85 0 Q0 -60 85 0 L92 10 L-92 10 Z" fill="url(#tile3)"/>
  </g>
  <g transform="translate(720, 490)" opacity="0.92">
    <rect x="-90" y="50" width="180" height="22" fill="url(#tile3)"/>
    <rect x="-85" y="0" width="170" height="52" fill="#d8c088"/>
    <path d="M-95 0 Q0 -70 95 0 L102 10 L-102 10 Z" fill="url(#tile3)"/>
    <rect x="-4" y="-78" width="8" height="14" fill="#a4243b"/>
  </g>
  <g transform="translate(1200, 500)" opacity="0.92">
    <rect x="-80" y="50" width="160" height="22" fill="url(#tile3G)"/>
    <rect x="-75" y="0" width="150" height="52" fill="#d8c088"/>
    <path d="M-85 0 Q0 -60 85 0 L92 10 L-92 10 Z" fill="url(#tile3G)"/>
  </g>
  <g transform="translate(1560, 510)" opacity="0.92">
    <rect x="-60" y="40" width="120" height="20" fill="url(#tile3)"/>
    <rect x="-55" y="0" width="110" height="42" fill="#d8c088"/>
    <path d="M-65 0 Q0 -50 65 0 L70 8 L-70 8 Z" fill="url(#tile3)"/>
  </g>
  <g transform="translate(1820, 530)" opacity="0.92">
    <rect x="-50" y="30" width="100" height="20" fill="url(#tile3)"/>
    <rect x="-45" y="0" width="90" height="32" fill="#d8c088"/>
    <path d="M-55 0 Q0 -40 55 0 L60 6 L-60 6 Z" fill="url(#tile3)"/>
  </g>

  <!-- 拱桥(中央,五孔石桥) -->
  <g transform="translate(960, 660)">
    <ellipse cx="0" cy="80" rx="400" ry="14" fill="#000" opacity="0.2"/>
    <!-- 主桥面(弧形) -->
    <path d="M-380 0 L-380 -30 L-340 -55 L-220 -60 L-110 -55 L0 -60 L110 -55 L220 -60 L340 -55 L380 -30 L380 0 Z" fill="#c8b888"/>
    <!-- 桥栏(白色) -->
    <rect x="-380" y="-42" width="760" height="8" fill="#f0ece0"/>
    <g fill="#f0ece0">
      <rect x="-360" y="-72" width="6" height="30"/>
      <rect x="-300" y="-72" width="6" height="30"/>
      <rect x="-240" y="-72" width="6" height="30"/>
      <rect x="-180" y="-72" width="6" height="30"/>
      <rect x="-120" y="-72" width="6" height="30"/>
      <rect x="-60" y="-72" width="6" height="30"/>
      <rect x="0" y="-72" width="6" height="30"/>
      <rect x="60" y="-72" width="6" height="30"/>
      <rect x="120" y="-72" width="6" height="30"/>
      <rect x="180" y="-72" width="6" height="30"/>
      <rect x="240" y="-72" width="6" height="30"/>
      <rect x="300" y="-72" width="6" height="30"/>
      <rect x="354" y="-72" width="6" height="30"/>
    </g>
    <!-- 桥洞(5孔) -->
    <g>
      <ellipse cx="-280" cy="20" rx="42" ry="22" fill="#5a8080"/>
      <ellipse cx="-140" cy="20" rx="42" ry="22" fill="#5a8080"/>
      <ellipse cx="0" cy="20" rx="52" ry="28" fill="#5a8080"/>
      <ellipse cx="140" cy="20" rx="42" ry="22" fill="#5a8080"/>
      <ellipse cx="280" cy="20" rx="42" ry="22" fill="#5a8080"/>
    </g>
  </g>

  <!-- 亭台(中后,六角攒尖) -->
  <g transform="translate(960, 440)">
    <rect x="-70" y="60" width="140" height="40" fill="#c8a888"/>
    <rect x="-75" y="56" width="150" height="8" fill="#a48868"/>
    <rect x="-55" y="-50" width="6" height="110" fill="#a4243b"/>
    <rect x="49" y="-50" width="6" height="110" fill="#a4243b"/>
    <rect x="-3" y="-50" width="6" height="110" fill="#a4243b"/>
    <path d="M-80 -50 Q-55 -110 0 -130 Q55 -110 80 -50 Z" fill="url(#tile3)"/>
    <path d="M-80 -50 L0 -130 L80 -50" fill="none" stroke="#5a3818" stroke-width="2"/>
    <rect x="-4" y="-140" width="8" height="14" fill="#a4243b"/>
    <circle cx="0" cy="-142" r="3" fill="#fcd34d"/>
  </g>

  <!-- 湖面波纹 -->
  <g opacity="0.45" stroke="#fff" fill="none">
    <path d="M0 700 Q200 695 400 700" stroke-width="1.5"/>
    <path d="M200 740 Q400 735 600 740" stroke-width="1.2"/>
    <path d="M1200 740 Q1400 735 1600 740" stroke-width="1.2"/>
    <path d="M0 800 Q300 795 600 800" stroke-width="1.5"/>
    <path d="M1100 810 Q1400 805 1700 810" stroke-width="1.5"/>
    <path d="M300 860 Q600 855 900 860" stroke-width="1.2"/>
    <path d="M1000 870 Q1300 865 1600 870" stroke-width="1.2"/>
    <path d="M0 930 Q400 925 800 930" stroke-width="1.5"/>
    <path d="M1200 940 Q1600 935 1920 940" stroke-width="1.5"/>
    <path d="M0 1000 Q500 995 1000 1000" stroke-width="1.2"/>
    <path d="M1200 1010 Q1600 1005 1920 1010" stroke-width="1.2"/>
  </g>

  <!-- 垂柳(左前) -->
  <g transform="translate(180, 0)">
    <path d="M0 0 L-5 700" stroke="#5a3818" stroke-width="12" fill="none"/>
    <g stroke="url(#willow3)" stroke-width="2.5" fill="none" opacity="0.95">
      <path d="M0 0 Q-30 60 -50 130 Q-60 200 -70 280"/>
      <path d="M0 0 Q-15 50 -30 120 Q-40 190 -50 280"/>
      <path d="M0 0 Q5 60 10 130 Q15 200 20 280"/>
      <path d="M0 0 Q-45 70 -80 150 Q-100 230 -120 320"/>
      <path d="M0 0 Q30 60 50 130 Q60 200 70 280"/>
      <path d="M0 0 Q15 50 25 120 Q30 190 35 280"/>
    </g>
    <g fill="#7aa868" opacity="0.85">
      <ellipse cx="-50" cy="130" rx="2.5" ry="8"/>
      <ellipse cx="-30" cy="120" rx="2.5" ry="8"/>
      <ellipse cx="10" cy="130" rx="2.5" ry="8"/>
      <ellipse cx="50" cy="130" rx="2.5" ry="8"/>
      <ellipse cx="-60" cy="190" rx="2.5" ry="8"/>
      <ellipse cx="-40" cy="180" rx="2.5" ry="8"/>
      <ellipse cx="20" cy="190" rx="2.5" ry="8"/>
      <ellipse cx="60" cy="190" rx="2.5" ry="8"/>
      <ellipse cx="-70" cy="280" rx="2.5" ry="8"/>
      <ellipse cx="-50" cy="280" rx="2.5" ry="8"/>
      <ellipse cx="20" cy="280" rx="2.5" ry="8"/>
      <ellipse cx="70" cy="280" rx="2.5" ry="8"/>
    </g>
  </g>

  <!-- 垂柳(右前) -->
  <g transform="translate(1740, 0)">
    <path d="M0 0 L5 700" stroke="#5a3818" stroke-width="12" fill="none"/>
    <g stroke="url(#willow3)" stroke-width="2.5" fill="none" opacity="0.95">
      <path d="M0 0 Q30 60 50 130 Q60 200 70 280"/>
      <path d="M0 0 Q15 50 30 120 Q40 190 50 280"/>
      <path d="M0 0 Q-5 60 -10 130 Q-15 200 -20 280"/>
      <path d="M0 0 Q45 70 80 150 Q100 230 120 320"/>
    </g>
    <g fill="#7aa868" opacity="0.85">
      <ellipse cx="50" cy="130" rx="2.5" ry="8"/>
      <ellipse cx="30" cy="120" rx="2.5" ry="8"/>
      <ellipse cx="-10" cy="130" rx="2.5" ry="8"/>
      <ellipse cx="-50" cy="130" rx="2.5" ry="8"/>
      <ellipse cx="60" cy="190" rx="2.5" ry="8"/>
      <ellipse cx="40" cy="180" rx="2.5" ry="8"/>
      <ellipse cx="-20" cy="190" rx="2.5" ry="8"/>
      <ellipse cx="-60" cy="190" rx="2.5" ry="8"/>
      <ellipse cx="70" cy="280" rx="2.5" ry="8"/>
      <ellipse cx="50" cy="280" rx="2.5" ry="8"/>
      <ellipse cx="-20" cy="280" rx="2.5" ry="8"/>
      <ellipse cx="-70" cy="280" rx="2.5" ry="8"/>
    </g>
  </g>

  <!-- 前景:芦苇 -->
  <g>
    <line x1="450" y1="950" x2="455" y2="850" stroke="#7a9050" stroke-width="2"/>
    <ellipse cx="455" cy="850" rx="3" ry="14" fill="#a4a468"/>
    <line x1="480" y1="950" x2="485" y2="870" stroke="#7a9050" stroke-width="2"/>
    <ellipse cx="485" cy="870" rx="3" ry="12" fill="#a4a468"/>
    <line x1="510" y1="950" x2="515" y2="860" stroke="#7a9050" stroke-width="2"/>
    <ellipse cx="515" cy="860" rx="3" ry="13" fill="#a4a468"/>
    <line x1="1430" y1="960" x2="1435" y2="850" stroke="#7a9050" stroke-width="2"/>
    <ellipse cx="1435" cy="850" rx="3" ry="14" fill="#a4a468"/>
    <line x1="1460" y1="960" x2="1465" y2="880" stroke="#7a9050" stroke-width="2"/>
    <ellipse cx="1465" cy="880" rx="3" ry="12" fill="#a4a468"/>
    <line x1="1490" y1="960" x2="1495" y2="870" stroke="#7a9050" stroke-width="2"/>
    <ellipse cx="1495" cy="870" rx="3" ry="13" fill="#a4a468"/>
  </g>
</svg>