<svg width="512" height="512" viewBox="0 0 32 32" xmlns="http://www.w3.org/2000/svg" shape-rendering="crispEdges">
  <rect width="32" height="32" fill="#cfeeff"/>

  <g transform="translate(0.5,4)">
    <!-- staff (left side) -->
    <rect x="2" y="3" width="5" height="5" fill="#2e1d4d"/>
    <rect x="3" y="4" width="3" height="3" fill="#7fe0ff"/>
    <rect x="4" y="4" width="1" height="1" fill="#eafbff"/>
    <rect x="4" y="8" width="2" height="15" fill="#4a2f17"/>
    <rect x="4" y="8" width="1" height="15" fill="#9a6a33"/>

    <!-- body outline (navy) -->
    <g fill="#103a56">
      <rect x="11" y="7" width="12" height="2"/>
      <rect x="10" y="8" width="14" height="2"/>
      <rect x="9" y="9" width="16" height="2"/>
      <rect x="8" y="10" width="18" height="2"/>
      <rect x="7" y="11" width="20" height="2"/>
      <rect x="6" y="12" width="22" height="2"/>
      <rect x="6" y="13" width="22" height="2"/>
      <rect x="5" y="14" width="24" height="2"/>
      <rect x="5" y="15" width="24" height="2"/>
      <rect x="5" y="16" width="24" height="2"/>
      <rect x="5" y="17" width="24" height="2"/>
      <rect x="5" y="18" width="24" height="2"/>
      <rect x="5" y="19" width="24" height="2"/>
      <rect x="5" y="20" width="24" height="2"/>
      <rect x="5" y="21" width="24" height="2"/>
    </g>
    <!-- body fill (slime cyan) -->
    <g fill="#7ed3f2">
      <rect x="12" y="8" width="10" height="1"/>
      <rect x="11" y="9" width="12" height="1"/>
      <rect x="10" y="10" width="14" height="1"/>
      <rect x="9" y="11" width="16" height="1"/>
      <rect x="8" y="12" width="18" height="1"/>
      <rect x="7" y="13" width="20" height="1"/>
      <rect x="7" y="14" width="20" height="1"/>
      <rect x="6" y="15" width="22" height="1"/>
      <rect x="6" y="16" width="22" height="1"/>
      <rect x="6" y="17" width="22" height="1"/>
      <rect x="6" y="18" width="22" height="1"/>
      <rect x="6" y="19" width="22" height="1"/>
      <rect x="6" y="20" width="22" height="1"/>
      <rect x="6" y="21" width="22" height="1"/>
    </g>
    <!-- bottom shadow -->
    <rect x="6" y="22" width="22" height="1" fill="#1e7aad"/>
    <rect x="8" y="21" width="18" height="1" fill="#3aa3d6"/>
    <!-- glossy top highlight -->
    <g fill="#c9f3ff">
      <rect x="10" y="14" width="3" height="1"/>
      <rect x="9" y="15" width="2" height="1"/>
    </g>
    <!-- lighter belly patch -->
    <rect x="13" y="18" width="8" height="3" fill="#a7dff5"/>
    <!-- eyes -->
    <g fill="#103a56">
      <rect x="11" y="15" width="4" height="5"/>
      <rect x="19" y="15" width="4" height="5"/>
    </g>
    <g fill="#f4fdff">
      <rect x="12" y="16" width="2" height="3"/>
      <rect x="20" y="16" width="2" height="3"/>
    </g>
    <!-- wizard hat -->
    <g fill="#2e1d4d">
      <rect x="14" y="1" width="4" height="3"/>
      <rect x="13" y="2" width="5" height="3"/>
      <rect x="13" y="3" width="6" height="3"/>
      <rect x="12" y="4" width="7" height="3"/>
      <rect x="12" y="5" width="8" height="3"/>
      <rect x="9" y="6" width="13" height="3"/>
    </g>
    <g fill="#6a4aa0">
      <rect x="15" y="2" width="2" height="1"/>
      <rect x="14" y="3" width="3" height="1"/>
      <rect x="14" y="4" width="4" height="1"/>
      <rect x="13" y="5" width="5" height="1"/>
      <rect x="10" y="7" width="11" height="1"/>
    </g>
    <!-- gold hat band -->
    <rect x="13" y="6" width="6" height="1" fill="#f2c94c"/>
  </g>
</svg>
