<svg xmlns="http://www.w3.org/2000/svg" viewBox="0 0 32 32" width="32" height="32" role="img" aria-label="Gloop the knight slime" shape-rendering="crispEdges">
  <rect x="1" y="1" width="30" height="30" rx="7" ry="7" fill="#cfeeff"/>

  <!-- body outline (navy) -->
  <g fill="#103a56">
    <rect x="9" y="7" width="12" height="2"/>
    <rect x="8" y="8" width="14" height="2"/>
    <rect x="7" y="9" width="16" height="2"/>
    <rect x="6" y="10" width="18" height="2"/>
    <rect x="5" y="11" width="20" height="2"/>
    <rect x="4" y="12" width="22" height="2"/>
    <rect x="4" y="13" width="22" height="2"/>
    <rect x="3" y="14" width="24" height="2"/>
    <rect x="3" y="15" width="24" height="2"/>
    <rect x="3" y="16" width="24" height="2"/>
    <rect x="3" y="17" width="24" height="2"/>
    <rect x="3" y="18" width="24" height="2"/>
    <rect x="3" y="19" width="24" height="2"/>
    <rect x="3" y="20" width="24" height="2"/>
    <rect x="3" y="21" width="24" height="2"/>
  </g>
  <!-- body fill (slime cyan) -->
  <g fill="#7ed3f2">
    <rect x="10" y="8" width="10" height="1"/>
    <rect x="9" y="9" width="12" height="1"/>
    <rect x="8" y="10" width="14" height="1"/>
    <rect x="7" y="11" width="16" height="1"/>
    <rect x="6" y="12" width="18" height="1"/>
    <rect x="5" y="13" width="20" height="1"/>
    <rect x="5" y="14" width="20" height="1"/>
    <rect x="4" y="15" width="22" height="1"/>
    <rect x="4" y="16" width="22" height="1"/>
    <rect x="4" y="17" width="22" height="1"/>
    <rect x="4" y="18" width="22" height="1"/>
    <rect x="4" y="19" width="22" height="1"/>
    <rect x="4" y="20" width="22" height="1"/>
    <rect x="4" y="21" width="22" height="1"/>
  </g>
  <!-- bottom shadow -->
  <rect x="4" y="22" width="22" height="1" fill="#1e7aad"/>
  <rect x="6" y="21" width="18" height="1" fill="#3aa3d6"/>
  <!-- glossy top highlight -->
  <g fill="#c9f3ff">
    <rect x="6" y="14" width="3" height="1"/>
    <rect x="5" y="15" width="2" height="1"/>
  </g>
  <!-- lighter belly patch -->
  <rect x="11" y="18" width="8" height="3" fill="#a7dff5"/>
  <!-- eyes -->
  <g fill="#103a56">
    <rect x="9" y="15" width="4" height="5"/>
    <rect x="17" y="15" width="4" height="5"/>
  </g>
  <g fill="#f4fdff">
    <rect x="10" y="16" width="2" height="3"/>
    <rect x="18" y="16" width="2" height="3"/>
  </g>
  <!-- spiky golden hair -->
  <g fill="#f2c94c">
    <rect x="9" y="4" width="1" height="3"/>
    <rect x="8" y="5" width="3" height="2"/>
    <rect x="13" y="2" width="2" height="2"/>
    <rect x="12" y="3" width="4" height="1"/>
    <rect x="11" y="4" width="5" height="3"/>
    <rect x="18" y="5" width="3" height="2"/>
    <rect x="17" y="6" width="5" height="1"/>
    <rect x="7" y="7" width="16" height="2"/>
    <rect x="8" y="9" width="14" height="1"/>
    <rect x="8" y="10" width="2" height="2"/>
    <rect x="12" y="10" width="2" height="3"/>
    <rect x="16" y="10" width="2" height="2"/>
    <rect x="20" y="10" width="2" height="3"/>
  </g>
  <!-- dark-gold outline strands -->
  <g fill="#7a4e10">
    <rect x="9" y="3" width="1" height="1"/>
    <rect x="8" y="5" width="1" height="2"/>
    <rect x="13" y="1" width="2" height="1"/>
    <rect x="12" y="2" width="1" height="2"/>
    <rect x="11" y="4" width="1" height="3"/>
    <rect x="18" y="4" width="1" height="1"/>
    <rect x="17" y="6" width="1" height="1"/>
    <rect x="11" y="7" width="1" height="2"/>
    <rect x="17" y="7" width="1" height="2"/>
    <rect x="12" y="13" width="2" height="1"/>
    <rect x="20" y="13" width="2" height="1"/>
  </g>
  <!-- bright highlights -->
  <g fill="#ffe9a0">
    <rect x="13" y="2" width="1" height="2"/>
    <rect x="14" y="5" width="1" height="2"/>
    <rect x="9" y="7" width="2" height="1"/>
  </g>
  <!-- sword (right side) -->
  <rect x="28" y="4" width="2" height="14" fill="#c7d2dd"/>
  <rect x="28" y="4" width="1" height="14" fill="#eef3f8"/>
  <rect x="28" y="4" width="2" height="1" fill="#eef3f8"/>
  <rect x="29" y="3" width="1" height="1" fill="#c7d2dd"/>
  <rect x="26" y="18" width="5" height="2" fill="#f2c94c"/>
  <rect x="28" y="20" width="2" height="3" fill="#5a3a1a"/>
  <rect x="27" y="23" width="3" height="2" fill="#f2c94c"/>
</svg>
