<svg xmlns="http://www.w3.org/2000/svg" width="640" height="480" viewBox="0 0 640 480">
  <defs>
    <linearGradient id="geelyBody" x1="0%" y1="0%" x2="100%" y2="100%">
      <stop offset="0%" stop-color="#FF8C00"/>
      <stop offset="50%" stop-color="#FF6B00"/>
      <stop offset="100%" stop-color="#E65C00"/>
    </linearGradient>
    <filter id="geelyShadow" x="-15%" y="-15%" width="130%" height="130%">
      <feDropShadow dx="0" dy="18" stdDeviation="22" flood-color="#000" flood-opacity="0.28"/>
    </filter>
  </defs>
  <rect width="640" height="480" fill="#F8F8F8"/>
  <ellipse cx="320" cy="430" rx="240" ry="28" fill="#DDDDDD"/>
  <g filter="url(#geelyShadow)">
    <path d="M60 255 L140 155 L380 150 L520 165 L570 195 L570 255 L550 295 L60 295 Z" fill="url(#geelyBody)"/>
    <path d="M160 155 L440 155 L470 175 L460 235 L170 235 Z" fill="#E65C00"/>
    <path d="M180 165 L420 165 L435 180 L425 235 L185 235 Z" fill="#1A1A2E" opacity="0.8"/>
    <path d="M470 175 L530 185 L520 235 L460 230 Z" fill="#1A1A2E" opacity="0.8"/>
    <ellipse cx="140" cy="295" rx="38" ry="38" fill="#333"/>
    <ellipse cx="140" cy="295" rx="32" ry="32" fill="#555"/>
    <ellipse cx="140" cy="295" rx="12" ry="12" fill="#111"/>
    <ellipse cx="460" cy="295" rx="38" ry="38" fill="#333"/>
    <ellipse cx="460" cy="295" rx="32" ry="32" fill="#555"/>
    <ellipse cx="460" cy="295" rx="12" ry="12" fill="#111"/>
    <path d="M560 195 L570 195 L570 225 L560 225" fill="#FF6B00"/>
    <rect x="90" y="275" width="50" height="15" fill="#E65C00" rx="3"/>
    <rect x="500" y="275" width="50" height="15" fill="#E65C00" rx="3"/>
    <path d="M290 245 L310 255 L320 240 L330 255 L350 245" stroke="#FFFFFF" stroke-width="4" fill="none"/>
    <circle cx="320" cy="250" r="6" fill="#FFFFFF"/>
    <path d="M140 160 L145 150 L155 150 L150 160 Z" fill="#FF6B00"/>
    <path d="M530 185 L535 175 L545 175 L540 185 Z" fill="#FF6B00"/>
  </g>
  <text x="320" y="415" font-family="Arial, sans-serif" font-size="24" font-weight="bold" fill="#FF6B00" text-anchor="middle">吉利 星瑞</text>
</svg>