<svg xmlns="http://www.w3.org/2000/svg" id="a" viewBox="0 0 900 350"><defs><style>.j{fill:#735283}.aa,.ab,.ac,.ad,.ae,.ag,.ai,.aj,.al,.am,.an,.ao,.ap,.aq,.ar,.as,.au,.av,.aw,.ax,.az,.bb,.bc,.bd,.be,.bg,.bh,.bi,.bj,.bk,.bl,.bm,.bn,.j,.k,.m,.n,.o,.q,.s,.t,.u,.w{stroke-width:0}.ab,.ac,.ai,.aj,.am,.an,.aq,.ar,.au,.av,.aw,.bc,.bh,.k,.u{fill-rule:evenodd}.az,.k{fill:#5e436b}.m{fill:#89909b}.n{fill:#1d2432;opacity:.1}.bh,.o{fill:#7a578a}.s{fill:#9f80ae}.q{fill:#545c6d}.bm{fill:#f3eff5}.an,.t{fill:#9471a4}.u{fill:#c3987b}.ad{fill:#734d61}.w{fill:#4a3554}.aa,.au{fill:#583f64}.ab{fill:#734c5f}.ac,.bd{fill:#787f8d}.ae,.av{fill:#b3889d}.be{fill:#5f6878}.ag{fill:#abafb8}.ai{fill:#8e699f}.aj,.bg{fill:#96637c}.bn{fill:#ab90b8}.al{fill:#6c4d7b}.am,.bj{fill:#cfbfd6}.ao{fill:#404857}.ap{fill:#c3b0cc}.aq{fill:#543042}.ar{fill:#dfbda5}.as{fill:#654873}.aw{fill:#5e3a4c}.ax{fill:#d1a1b8}.bb{fill:#dbcfe0}.bc{fill:#8b6651}.bi{fill:#b7a0c2}.bk{fill:#232a38}.bl{fill:#88619a}</style></defs><g id="b"><path d="m323.82 325.88-4.07-4.88 59.63-11.27 107.56-8.15 62.57 2.89 21.5 1.98 56.82 11.64-55.18 15.36-131.14 4.8-9.37-5.31-2.88 3.83-105.44-10.89zM651.85 310.29v-15.31l127.46-9.06 69.68 6.77 41.29 10.93-49.5 15.76-90.1 3.8-8.13-6.11-6.55 3.88-84.15-10.66zM8.78 296.27l31.14-4.55 41.65-2.84 97.21 5.54 32.97-8.9 17.19 12.59-18.67 2.4-10.08 8.58-78.6 10.83-9-5.81-3.89 8.07-73.93-3.27-25.99-22.64z" class="n"/></g><g id="c"><path d="m832.3 312.19-12.33-1.76-9.29-19.22 25.66 3.93-4.04 17.05z" class="be"/><path d="m848.41 297.17-1.82 13.26-14.29 1.76-5.15-21.65 21.26 6.63zM750.68 323.18l13.89-2.73 8.45-21.95-21.45 12.26-3.32 3.57 2.43 8.85z" class="ao"/><path d="m751.57 310.76-.89 12.42-14.68-2.23-5.36-20.28 20.93 10.09z" class="be"/><path d="m651.85 310.29 11.1-1.53 8.51-18.56-17.16.29-5.75 5.36 3.3 14.44z" class="ao"/><path d="m638.21 295.17.67 12.88 12.97 2.24 3.69-20.09-17.33 4.97z" class="be"/><path d="m633.23 227.19 4.98 67.98 113.36 15.59 19.79-73.04-19.79-6.67-118.34-3.86z" class="t"/><path d="m751.57 310.76 96.84-13.59 9.95-77.66-68.85 2.91-33.93 19.82-4.01 68.52z" class="j"/><path d="m614.27 197.44 2.57 12.76 4.33 3.52-3.11 2.48 2.53 12.58 134.99 13.46 20.89-33.31-162.2-11.49z" class="ae"/><path d="m755.58 242.24 120.19-16.05 2.26-10.99-3.88-1.42 5.12-4.58 1.95-9.5-92.88 1.94-31.45 15.71-1.31 24.89z" class="bg"/><path d="m881.22 199.7-57.28-5.28-94.64-11.39-115.03 14.41 142.62 19.91 124.33-17.65z" class="ax"/><path d="m616.84 210.2 139.53 16.99 5.35 2.99-5.63 2.38-138.03-16.36-1.22-6z" class="bi"/><path d="m756.37 227.19 122.9-17.99-1.24 6-121.94 17.36.28-5.37z" class="s"/><path d="m648.72 241.5 90.34 10.34-3.29 43.85-85.05-11.87-1.14-25.95 2.8-1.93-3.06-3.05-.6-11.39z" class="bi"/><path d="m649.58 257.87 10.08 1.12.25-4.73-10.59-1.37.26 4.98z" class="bl"/><path d="m773.11 253.24 64.27-11.34-5.36 41.39-62.15 8.51 3.24-38.56z" class="t"/><path d="m848.66 196.7-15.62 7.98-63.78.31h-30.83l11.76-8.29 34.19-5.86 39.56 3.58 24.72 2.28z" class="n"/></g><g id="d"><path d="m670.03 104.09.3 5.09 1.28 1.2-1.2.21.23 4.02.65.82-.55.77.23 4.03.66.63-.59.58.25 4.23.89.86-.79.91.26 4.5 18.7 5.57 6.91-7.82-4.18-27.46-8-1.09-15.05 2.95z" class="as"/><path d="m692.05 118.47.12-1.27-21.53-2.59.1 1.59 21.31 2.27zM691.44 111.62l-21.11-2.44.08 1.41 20.91 2.37.12-1.34zM691.5 122.35l-20.53-2.12.07 1.21 20.22 2.13.24-1.22zM691.32 128.3l-20.03-2.63.1 1.77 19.75 1.77.18-.91zM687.47 77.19l8.04-5.34 11.64.25-8.98 9.45-10.7-4.36z" class="t"/><path d="m687.47 77.19 17.01-4.37-5.09-30.31-13.45 2.94 1.53 31.74z" class="as"/><path d="m715.13 65.06-15.74-22.55-1.94 35.89-9.98-1.21-1.53-31.74-18.6 16.95 2.69 41.69 17.59 1.77 1.28 27.83-17.25-1.75 3.74 57.84 37.82 5.02 6.79-90.69-4.87-39.05z" class="j"/><path d="m715.13 65.06 17.7-3.63 4.39 129.98-24.01 3.39 1.92-129.74z" class="as"/><path d="m699.39 42.51 19.4-4.12 14.04 23.04-17.7 3.63-15.74-22.55z" class="t"/><path d="m708.24 45.54 8.73-2.42 8.12 14.31-8 1.33-8.85-13.22z" class="al"/><path d="m708.81 48.85 11.55-2.09.73 1-11.55 2.36-.73-1.27zM712.54 53.49l10.91-1.91.55 1-10.82 2.18-.64-1.27z" class="t"/><path d="m711.72 44.03 9.46 15.18 1-.18-9.73-15.46-.73.46zM680.05 89.22l.38 2.94 22.96 1.88.19-2.63-23.53-2.19zM703.66 90.22l.21-2.85-24.16-2.63.26 3.05 23.69 2.43zM720.78 70.13l6.53-1.19.39 3.17-6.82 1.09-.1-3.07zM721.38 77.84l6.13-.89.19 2.67-6.22.89-.1-2.67zM721.67 85.36l6.12-.99.21 2.67-6.33 1.18v-2.86zM680.3 144.48l2.58.31.33 4.54-2.68-.12-.23-4.73zM681.27 154.85l2.44.12.3 4.3-2.58-.24-.16-4.18zM682.09 164.97l2.33.25.33 4.06-2.34-.37-.32-3.94zM682.93 175.04l2.42.13.24 4.54-2.36-.26-.3-4.41z" class="t"/><path d="m759.65 72.76 12.36 2.19 5.64 24.19-2 78.23-8.18 16.87-16.27-2.77 8.45-118.71z" class="ax"/><path d="m772.01 74.95 12.37-2.19 3.46 118.14-20.37 3.34 4.54-119.29z" class="ae"/><path d="m764.1 78.77 2.91.54-.45 6.09-2.82-.54.36-6.09zM763.65 88.68l2.36.45-.27 5.19-2.64-.64.55-5zM776.74 79.04l2.46-.73.36 6.28-2.91.54.09-6.09zM776.74 89.13l2.73-.63.18 5.45-2.63.46-.28-5.28z" class="bm"/><path d="m759.65 72.76 3.73-8.85 1.81-1.24-.63-1.55 5.61-13.31 3.66 14.41-1.82 12.73-12.36-2.19z" class="o"/><path d="m770.17 47.81 7.48 13.13-.91 2.06 2.48.71 5.16 9.05-12.37 2.19-1.84-27.14z" class="al"/><path d="m764.56 61.12 6.6 1.2 1.94 1.62-1.76 1.12-7.96-1.15 1.18-2.79z" class="al"/><path d="m771.16 62.32 6.49-1.38 1.57 2.77-7.88 1.35-.18-2.74z" class="az"/><path d="m776.33 120.74-7.07 74.06 31.27 3.97-3.9-78.66-20.3.63z" class="bg"/><path d="m792.5 125.44 4.13-5.33 40.76-1.13-1.57 8.77-4.72 4.12 3.7 1.63-.6 3.34-2.32 2.31 1.62 1.63-.84 4.72-1.56 2.36.8 1.87-.8 4.53-3.06 2.35 2.31 1.82-.81 4.54-2.64 2.31 1.9 1.85-.76 4.27-2.57 3.6 1.51 2.33-3.04 17.09-23.41 4.35-1.9-17.33 1.9-3.01-2.38-1.41-.52-4.72 1.57-2.23-1.95-1.22-.54-5.01 1.44-1.87-1.81-1.49-.54-4.91 1.45-2.24-1.86-1.55-.57-5.22 1.52-1.96-1.92-1.68-.47-4.29 1.44-1.94-1.89-2.14-1-9.11z" class="ad"/><path d="m776.33 120.74 36.78-5.83 24.28 4.07-44.89 6.46-16.17-4.7z" class="ax"/><path d="m798.93 118.28 12.38-1.25 3.22 1.65-13.17 1.64-2.43-2.04z" class="n"/><path d="m796.51 120.32 1.53-28.16 2.37.47.95 27.69h-4.85z" class="j"/><path d="m782.02 128.05 6.91 1.91.27 2.91-7.73-2 .55-2.82zM781.47 134.24l7.64 2.27.18 2.64-8.46-2 .64-2.91z" class="ax"/><path d="m826.98 177.33 1.06-5.93-29.89 5.62.48 4.42 28.35-4.11zM832.66 145.5l-37.27 6.28.41 3.79 36.1-5.84.76-4.23zM835.82 127.75l-42.32 6.8.45 4.08 40.85-5.13 1.02-5.75zM833.5 140.78l.7-3.94-39.78 6.08.4 3.64 38.68-5.78zM828.8 167.13l.74-4.16-32.29 5.88.38 3.45 31.17-5.17zM830.35 158.43l.75-4.17-34.76 6.22.37 3.36 33.64-5.41z" class="ae"/><path d="m697.93 172.98 2.43 27.03 7.75 1.02 2.34-2.86 2.17 3.45 4.02.52 1.18-1.71 2.98 2.25 4.82.63 1.93-1.69 1.81 2.18 9.07 1.19 13.09-28.5-23.76-.24-29.83-3.27z" class="o"/><path d="m738.43 204.99 35.4-6.67 3.64-30.07-34.8 11.52-2.06 2.3-2.18 22.92zM711.09 184.8l-4.37-.67 1.39 16.9 4.51.59-1.53-16.82zM725.62 203.31l3.74.49 1.55-16.46-4.36-.6-.93 16.57zM720.97 186.07l-4.85-.61.52 16.68 4.16.54.17-16.61z" class="as"/><path d="m692.96 148.48-1.7 25.22 49.35 8.37 1.82-15.76 4.3-14.79-53.77-3.04z" class="bl"/><path d="m738.06 156.49 15.52-7.16 31.77-3.63-.85 26.91-43.89 9.46-2.55-25.58z" class="aa"/><path d="m699.63 156.61 30.67 4.73.37 3.39-31.16-4.73.12-3.39zM699.99 164.85l30.56 5.09.36 3.64-31.28-4.97.36-3.76z" class="bj"/><path d="m746.79 161.7 6.43-1.46.36 3.16-6.66 1.45-.13-3.15zM747.28 169.1l6.18-1.34.12 3.64-6.06 1.21-.24-3.51z" class="ap"/><path d="m692.96 148.48 37.55-12.32 54.84 9.54-47.29 10.79-45.1-8.01z" class="bn"/><path d="m738.43 151.39-7.92-15.23 54.84 9.54-22.5 5.13-24.42.56z" class="n"/><path d="m707.51 136.24 1.45 10.22 29.47 4.93 8.85-14.06-30.31-.24-9.46-.85z" class="o"/><path d="m738.43 151.39 26.67-5.21 1.09-9.34-26.06 4.01-.97 2.25-.73 8.29z" class="as"/><path d="m697.26 103.62 45.29 1.62-3.39 37.86-41.35-6.41-.55-33.07z" class="bl"/><path d="m737.22 111.27 9.45-7.65 35.11-.95-2.72 34.84-39.9 5.59-1.94-31.83z" class="aa"/><path d="m697.26 103.62 36.67-9.58 47.85 8.63-44.56 8.6-39.96-7.65z" class="bn"/><path d="m703.02 110.78 27.65 5.21.12 3.39-27.4-4.97-.37-3.63zM703.51 119.51l27.16 4.6.24 3.64-27.28-4.61-.12-3.63zM704.11 127.75l26.92 4.61.37 3.64-27.16-4.61-.13-3.64z" class="bj"/><path d="m708.84 109.81 1.22 23.76 1.81.97-1.81-23.76-1.22-.97zM715.27 111.75l1.58 23.28 1.33.12-1.09-22.56-1.82-.84zM722.79 113.2l1.33 23.28 1.21-.36-.72-23.4-1.82.48z" class="bl"/><path d="m744.37 116.11 29.95-5.82-.49 3.88-29.22 5.7-.24-3.76zM744.73 124.23l29.1-4.72-.48 3.51-28.37 4.85-.25-3.64zM745.22 132.72l28.01-4-.25 3.15-27.64 4.13-.12-3.28z" class="ap"/><path d="m750.92 113.14.85 23.58.97-.24-.55-24.19-1.27.85zM758.55 112.35l.43 22.61.97-.18.42-23.1-1.82.67zM766.74 110.11l-1.4 24.13 1.28-.06.97-24.01-.85-.06z" class="aa"/><path d="m754.92 178.99 5.45-1.18 2.19-20.75 15.09 12.22-8.39 35.71-16.52-2.7 1.01-10.84 2.08-1.2-1.77-2.12.25-2.67 2.97-.17-2.74-2.33.38-3.97z" class="bl"/><path d="m769.26 204.99 17.42-2.31 1.48-12.48-2.2-.86 2.5-1.73.28-2.32-2.78-1.16 3.23-2.69 1.62-13.68-12.25-.63-6.55 4.27-2.75 33.59z" class="aa"/><path d="m790.81 167.76-13.34-13.86-14.91 3.16 9.45 14.34 18.8-3.64z" class="t"/><path d="m754.54 182.96 16.36 2 2.08 1.66-2.3.99-16.37-2.15.23-2.5zM754.06 188.13l16.37 2.5 2.55 1.93-2.83 1.51-16.4-2.62.31-3.32z" class="ap"/><path d="m770.9 184.96 18.29-3.52-.45 3.85-18.06 2.32.22-2.65zM770.43 190.63l18.03-3.02-.3 2.59-18.01 3.87.28-3.44z" class="t"/><path d="m760.37 177.81-5.83 5.15.38-3.97 5.45-1.18z" class="n"/></g><g id="e"><path d="m396.14 141.79-10.03 126.07-8.78 2.91-2.2-21.03 3.96-93.42 5.62-13.02 11.43-1.51z" class="ax"/><path d="m383.71 143.3-6.38 127.47-6.81-2.76 1.83-131.22 11.36 6.51z" class="ae"/><path d="m455.06 111.73-100.67 7.48v23.2l5.63 10.22 92.15-11.59 2.89-29.31z" class="o"/><path d="m362.76 127.25-11.87-7.27-43.77-3.53 4.72 26.9 48.18 9.28 2.74-25.38z" class="al"/><path d="m455.06 111.73-61.27-9.13-86.67 13.85 55.64 10.8 92.3-15.52z" class="s"/><path d="m419.37 106.41-25.58-3.81-44.14 7.05 4.11 4.52 40.37.56 25.24-8.32z" class="n"/><path d="m387.32 83.87.71 27.86h-5.44l-5.56-30.56 10.29 2.7z" class="ad"/><path d="m435.27 108.78-41.48-6.18 5.36-86.12 49.09 10.03-12.97 82.27z" style="fill:#9f80ae;opacity:.2;stroke-width:0"/><path d="m349.65 96.12 2.42 6.48 5.46-9.04 2.2 7.75 5.9-10.39-3.09-1.75-12.89 6.95z" class="bb"/><path d="m330.11 89.17 1.16 9.16 5.24-6.88 1.06 9.06 4.92-6.94 2.03 9.03 5.13-6.48-7.15-6.95h-12.39z" class="bb"/><path d="m347.22 73.36 2.43 22.76 15.98-5.2 21.69-7.05 8.09-.36 6.23 4.02 15.59 3.99 14.25-26.07-20.43-12.26-63.83 20.17z" class="bi"/><path d="M335.65 73.06v6.17l-3.38 3.67-2.16 6.27 19.54 6.95 1.7-9.23-1.7-3.99 3.44-5.44-3.44-4.87-14 .47z" class="s"/><path d="m411.05 53.19-28.46-5.03-46.94 24.9 17.44 4.4 57.96-24.27z" class="bb"/><path d="m353.09 77.46-8.04 5.17 6.3 4.26 1.74-9.43zM335.65 73.06l3.46 8.11-6.84 1.73 3.38-9.84zM409.58 59.7l5.94 9.77-10.34 4.4-3.16-7.34 7.56-6.83z" class="al"/><path d="m415.52 69.47-13.5-2.94-4.88 4.41 7.59 6.52 10.79-7.99z" class="bl"/><path d="m387.32 83.87 8.67-7.59 5.65 11.25-14.32-3.66z" class="s"/><path d="m370.97 34.15 77.27-7.64-12.97 82.27-73.24 12.32 8.94-86.95z" style="fill:#f3eff5;opacity:.2;stroke-width:0"/><path d="m311.92 27.51 59.05 6.64-8.94 86.95-36.42-7.61-13.69-85.98z" style="fill:#cfbfd6;opacity:.2;stroke-width:0"/><path d="m311.92 27.51 87.23-11.03 49.09 10.03-77.27 7.64-59.05-6.64z" style="fill:#f7f5f6;opacity:.3;stroke-width:0"/></g><g id="f"><path d="m213.59 171.64 15.35 126.47 82.17-7.81-14.79-119.04-82.73.38z" class="m"/><path d="m228.94 298.11-11.88-1.93-58.75-10.09L173 172.79l50.55 1.15 8.43 8.04-3.04 116.13z" style="fill:#68707f;stroke-width:0"/><path d="m173 172.79 58.98 9.19 64.34-10.72-68.11-10.28L173 172.79z" class="ag"/><path d="m188.08 169.56 21.47 5.07 25.87-1.84-7.21-11.81-40.13 8.58z" class="n"/><path d="m245.64 191.92 37.53-5.62 3.83 37.53-42.58 8.51 1.22-40.42z" class="o"/><path d="m183.85 183.51 33.45 4.85-1.98 14.49-32.95-5.15 1.48-14.19z" class="as"/><path d="M190.74 190.41 209 192.7l-.51 2.05-18.13-2.43.38-1.91zM254.38 198.26l21.07-3.35.09 1.91-21.35 3.26.19-1.82zM259.36 203.04l11.59-1.81.28 1.91-11.68 2.01-.19-2.11z" class="s"/><path d="m260.32 214.73 11.58-1.63.39 6.7-11.3 2.2-.67-7.27z" class="ae"/><path d="m258.85 55.7 4.29 15.12L255 77.8l-3.44-21.24 7.29-.86z" class="q"/><path d="m240.22 144.66 8.95-7.19-6.52-2.1-7.45 6.81 2.15 4.66 2.87-2.18z" class="ag"/><path d="m216.93 82.64 17.2-18.27 29.01 6.45-26.86 18.48-19.35-6.66z" class="bn"/><path d="m238.96 74.04-1.61-3.22 8.58-3.82 7.59 1.68-14.56 5.36z" class="n"/><path d="m263.14 70.82 6.06 10.02.39 10.51 10.96 8.27-19.99 12.25-28.58-8.81 3.87-19.34 27.29-12.9z" class="t"/><path d="m235.85 83.72 1.5 10.53-14.61 20.63-28.81-6.23 6.88-4.94-.75-10.8 6.34-16.29h22.25l7.2 7.1z" class="o"/><path d="m237.35 94.25 21.5 10.74-4.95 20.85-25.79 3.23-9.03-21.07 18.27-13.75z" class="bl"/><path d="m280.55 99.62-4.4 5.37 1.15 5.54-2.96 9.94-4.53 3.22 1.72 6.24-18.92-1.94-2.79-8.16 9.03-14.84 21.7-5.37z" class="o"/><path d="m193.93 108.65 6.24 3.98.8 6.3 6.94 10.14 3.43-.22-1.07 3.66 14.83.43 6.88-9.25-12.9-15.69-25.15.65z" class="al"/><path d="m271.53 129.93-10.86-1.11-.61 4.97-10.89 3.68-10.21 1.95-3.76 2.76-8.38-8.17 5.16-10.32 17.84-3.86 21.71 10.1z" class="al"/><path d="m210.27 132.51 21.71-8.82 3.22 18.49-2.84-2.76-6.6-.9-4.81-1.87-3.23-4.14h-7.45z" class="az"/><path d="m255.26 85.79-9.02 2.3-4.88 8.16 1.15 3.37 5.8.11 5 3.98 6.29 5.69 20.95-9.78-11.35-18.78-6.06 2.95-2.86 11.96-8.6-2.84 3.73-3.61-.15-3.51z" class="o"/><path d="m241.36 96.25-1.14 5.74 3.58 3 4.51-5.26-6.95-3.48zM232.77 111.87l3.58-5.59 2.61.86-1.61 7.63-4.58-2.9z" class="as"/><path d="m248.31 99.73 3.92 7.15-6.93 2.56-1.03 11.59 6.18 1.38 8.4-7.53v-9.89l-10.54-5.26z" class="as"/><path d="m258.85 104.99 21.7-5.37-3.25 10.91-8.35-.91-2.58 4.4 7.97 6.45-2.81 9.46-10.57-2.37-11.14-7.73 9.03-14.84z" class="az"/><path d="m249.82 119.83 1.74 7.09 8.5 6.87 11.47-3.86-21.71-10.1zM249.17 137.47l-14.93-.82-1.16 2.52 2.12 3.01 13.97-4.71z" class="aa"/><path d="m234.24 136.65-8.48 1.87 9.44 3.66-.96-5.53z" class="w"/><path d="m228.65 91.35 3.33-3.87 3.22 3.87-4.62 2.9-1.93-2.9zM218.11 94.25l8.71 3.87-1.54 5.22-6.2 4.66-8.81 3.59-16.34-2.94 6.13-15.74 6.34 7.71 7.63-1 4.08-5.37z" class="az"/><path d="m219.08 108-7.63 10 5.37 4.94 8.35 3.52-4.91 4.54-9.99 1.51-2.36-3.44 2.79-3.87-3.44-6.88-6.29.61-7.04-10.28 25.15-.65z" class="aa"/><path d="m225.17 126.46-4.22 10.19-10.68-4.14 14.9-6.05z" class="w"/><path d="m235.85 83.72-1.72-19.35-27.73 12.25 29.45 7.1z" class="t"/><path d="m275.54 168.12-4.31-9.88-44.21 3.39 2.56 6.18 5.84 4.98 40.12-4.67z" class="ae"/><path d="m235.42 172.79-36.76-5.49 3.64-7.72h22.02l9.21 5.74 1.89 7.47z" class="bg"/><path d="m271.23 158.24-37.05-5.53-31.88 6.87 31.23 5.74 37.7-7.08z" class="ax"/><path d="m217.04 156.4 12.54 6.05 28.54-4.21-5.24-2.74-18.7-2.79-17.14 3.69z" class="n"/><path d="m232.77 158.69 2.43-16.51 5.02 2.48 1.14 14.03h-8.59zM230.48 60.14l4.51 13.9h3.97l1.26-11.32-.18-2.58h-9.56z" class="m"/><path d="m230.48 60.14 15.9-6.44 12.47 2-18.63 7.02-9.74-2.58z" class="ag"/></g><g id="g"><path d="m200.19 309.09-12.02-1.85-9.39-17.13 22.41 1.61.64 8.79-1.64 8.58z" class="q"/><path d="m54.38 313.22 11.13-1.28 6.66-14.68-17.79 2.75-1.53 5.23 1.53 7.98z" class="bd"/><path d="m39.19 300.58 4.72 11.11 10.47 1.53 4.3-14.43-19.49 1.79zM108.7 322.18l-12.64-2.17-6.32-12.92 17.42 1.43 5.43 5.59-3.89 8.07z" class="q"/><path d="m125.49 309.01-3.9 10.91-12.89 2.26-1.85-8.07 9.32-7.02 9.32 1.92zM217.06 296.18l-3.23 10.84-13.64 2.07-2.76-10.81 9.81-5.36 9.82 3.26z" class="bd"/><path d="m213.83 244.92-60.51-17.13-27.83 5.64 68.93 22.44 19.41-10.95z" class="t"/><path d="m137.74 233.43 54.9 15.58 8.55 19.02-3.76 30.25-67.09-14.3 7.4-50.55z" class="aa"/><path d="m127.25 143.62 23.51 114.83-25.02 14.81-51.06-.55-13.53-46.17-1.28-67.69 67.38-15.23z" class="ae"/><path d="m59.87 158.85-12.75 1.14L53 270.92l21.68 1.79-14.81-113.86zM73.74 152.23l19.85 122.2 4.09.51-21.13-125.01-2.81 2.3zM91.1 147.65l22.09 121.78 2.55-2.04-21.58-121.53-3.06 1.79zM108.7 144.57l23.68 121.29 2.81-1.28L112 142.54l-3.3 2.03z" class="bg"/><path d="m59.87 158.85 67.38-15.23 6.15-13.31-74.3 10.94.77 17.6z" class="al"/><path d="M64.47 145.33v-7.15l-14.03-8.38-9.97 13.81 6.65 16.38 12.75-1.14 4.6-13.52z" class="aa"/><path d="m133.4 130.31-13.74-9.43-69.22 8.92 14.03 15.53 68.93-15.02zM47.87 145.39l2.85-5.1 6.34 8.11-5.11 5.61-4.08-8.62z" class="t"/><path d="m150.76 258.45 44.35 15.99-76.64 22.57-43.79-24.3 76.08-14.26z" class="ax"/><path d="m125.49 309.01 71.94-10.73 5.29-15.19-7.61-8.65-79.33 10.82 9.71 23.75z" class="ae"/><path d="m43.78 244.92-1.11 13.53 8.58 17.81-11.33 15.46-.73 8.86 67.66 13.53 3.06-55.4-36.76-9.7-29.37-4.09z" class="aa"/><path d="m99.7 260.24 1.02-3.32h18.64l6.13 52.09-18.64 5.1-7.15-53.87z" class="al"/><path d="m43.78 244.92 15.07-3.57 60.51 15.57-19.66 3.32-55.92-15.32z" class="t"/><path d="m192.64 249.01 21.19-4.09 3.23 51.26-19.63 2.1-4.79-49.27z" class="al"/><path d="m42.67 258.45 43.04 12.19 5.39 29.87-51.18-8.79.66-7.98 7.29-6.24-5.99-9.49.79-9.56z" class="j"/><path d="m40.58 283.74 33.97 4.24 1.98-8.5-34.65-11.47-1.3 15.73z" class="aa"/><path d="m107.61 267.77 6.77-2.04 4.34 38.68-6.51 2.04-4.6-38.68zM200.42 254.75l6.9-1.66 3.06 38.17-6.38.89-3.58-37.4z" class="bg"/></g><g id="h"><path d="m492.61 164.18-14.21 37.26.54 16.11 12.49 1.61 11.38-12.42-1.29-39.08-8.91-3.48z" class="ab"/><path d="m467.67 220.84 10.73-19.4 19.65 12.54-6.62 5.18-14.82 11.28-10.39-3.53 1.45-6.07z" class="aq"/><path d="m490.61 233.24 2.12 39.44 12.98 18.31 14.87-5.24 9.6-21.7-6.66-11.93-32.91-18.88zM580.64 208.17l-20.4-16.56 14.6-32.13 17.74 29.75-11.94 18.94z" class="ab"/><path d="m532.1 178.52-9.91-17.34-24.87 2.31-1.71 7.7-4.18 47.97 45.32 18.31 35.12-9.86-.85-57.89-12.31-4.81-10.34-15.16-16.27 28.77z" class="aj"/><path d="m524.01 167.84-28.4 3.35-3-7.01 28.36-10.55 3.04 14.21z" class="au"/><path d="m541.15 286.42-10.97-22.37 14.41-16.12 26.95-10.38-.35 45.01-13.88 9.43-16.16-5.57z" class="aj"/><path d="m490.61 233.24 39.57 30.81 41.36-26.5-42.32-7.87-38.61 3.56z" class="aw"/><path d="m571.19 282.56-30.04 3.86 8.36 18.05 10.8 2.8 10.7-.82.18-23.89z" style="fill:#734d61;fill-rule:evenodd;stroke-width:0"/><path d="m515.04 310.81-15.12 1.36-22.13-1.36 16.3-16.44 9.86-.55L515 299.6l.04 11.21z" style="fill:#815c92;fill-rule:evenodd;stroke-width:0"/><path d="M515.04 316.01h-37.25v-5.19h37.25z" class="aa"/><path d="m549.51 304.47-6.32 14.19 14.94 1.43 15.34-1.43-2.46-12.21-21.5-1.98z" class="an"/><path d="M573.47 323.33h-30.28v-4.68h30.28z" class="aa"/><path d="m514.95 210.99-3.08 22.2 13.63 2.14 29-1.87-1.43-16.54-7.81-24.37-11.41-18.69-13.47 17.1-5.43 20.03z" class="ab"/><path d="m539.26 162.02 31.76 7.7 3.82-10.24-26.47-9.73-9.11 12.27z" class="au"/><path d="m548.37 149.75 4.7 67.17-19.22-43.06 3.01-14.38 11.51-9.73zM533.85 173.86l-18.9 37.13 7.02-52.36 9.5 4.31 2.38 10.92zM531.1 196.86l-4 2.99 3.82 5.09 4.5-4.04-4.32-4.04zM530.92 212.48l4.22 4.86-4.73 3.4-3.95-4.45 4.46-3.81z" class="av"/><path d="m571.87 227.61-29.89-3.1-10.88.22-11.43-2.58-28.24-2.99-.82 14.08 28.63 1.38 10.41-.47 12.18 1.69 29.71 1.71.33-9.94z" class="au"/><path d="m519.24 234.62 22.59 1.22.15-11.33-22.31-2.36-.44 12.47Zm5.25-8.12 13.32 1.25.03 5.11-13.6-.81.25-5.55Z" class="av"/><path d="m560.12 118.42-7.12-2.44-12.35 8.11 6.98 7.53 19.01 3.18-6.52-16.38z" class="k"/><path d="m470.78 85.25 2.45 17.49 12.87 53.91 26.73-2.9 15.5 13.91 15.29-22.3-5.01-29.06-4.54-2.28-1.76-13.71L534.68 80 512.6 66.89l-22.49 11.04-3.71-11.97-15.62 19.29z" class="ar"/><path d="m533.83 80.28-14.88 24.23-.38 50.73 15.28 18.62 14.52-24.11-.74-18.13-1.5-3.99.28-3.87 7.65-.5 1.09-17.75-11.47-.82-4.96 9.95-3.7.11-2.05-14.23.86-20.24zM479.83 108.84l20.05-3.56 19.07-.77-10.91 9.92-6.52 17.46-21.69-23.05z" class="u"/><path d="m551.79 109.06-5.8-.23-2.18 11.33 7.98-11.1zM512.83 153.75l18.82-2.07 2.2 22.18-21.02-20.11zM546.41 123.76l-5.03.38 6.25 7.48-1.22-7.86z" class="bc"/><path d="m472.11 85.17-4.02-7.66-9.15-6.98 14.29 32.21-1.12-17.57z" style="fill:#9f80ae;fill-rule:evenodd;stroke-width:0"/><path d="m533.83 80.28 13.92-6.94 22.27-5.22-6.3 32-18.77 1.43-15.3-1.26 4.18-20.01z" class="an"/><path d="m472.11 85.17 13.92-14.91 8.19-6.72 8.69-11.38-43.97 18.37 13.17 14.64zM533.83 80.28l-22.79-10.01 14.23-10.49 17.99-5.64 26.76 13.98-36.19 12.16z" class="bh"/><path d="m502.91 52.16 26.44-11.04 13.91 13.02-32.22 16.13-22.83 11.19-2.18-11.2 16.88-18.1z" class="an"/><path d="m529.65 100.29 34.07-.17-3.6 18.3-6.06 4.84.29-17.05-10.77-.02-3.54 11.2-6.43-1.41-3.96-15.69z" class="bh"/><circle cx="486.25" cy="117.82" r="3.03" class="bk"/><circle cx="507.87" cy="115.17" r="3.03" class="bk"/><path d="m520.58 285.75-27.85-13.07 1.36 21.69L515 299.6l5.58-13.85z" class="aw"/><path d="m518.67 141.34-19.4 5.08-12.33-2.48 12.05-5.69 19.68 3.09z" class="u"/><path d="m518.67 141.34-17.15-9.45-3.56 1.65-4.39-.7-6.63 11.1 31.73-2.6z" class="bh"/><path d="m497.51 106.89 4.01 25-3.56 1.65-4.39-.7-2.74-26.43 6.68.48z" style="fill:#e8cab6;fill-rule:evenodd;stroke-width:0"/><path d="m518.95 104.51-39.12 4.33-.89-5.08 37.6-1.97 2.41 2.72z" class="bh"/><path d="m493.57 132.8 4.49 2.69 3.46-3.6-7.95.91z" class="k"/><path d="m592.58 189.23-20.95 22.27 3.21 10.65 7.93-1 22.01-11.58-12.2-20.34z" class="aq"/><path d="m571.54 237.55 11.37-5.71-6.8-7-4.57 12.71z" class="u"/><path d="m571.63 211.5-8.88 9.34 8.79 16.71 11.23-16.4-11.14-9.65z" class="ar"/></g><g id="i"><path d="m393.71 320.5 11.3-1.46 9-26.7-17.62 2.2-7.18 12.74 4.5 13.22z" class="aj"/><path d="m378.43 304.72 2.66 14.13 12.62 1.65 6.28-26.68-21.56 10.9z" class="av"/><path d="m323.82 325.88 13.43-2.49 13.79-28.97-25.02 4.32-4.21 11.41 2.01 15.73z" class="aj"/><path d="m306.98 304.4 3.15 20.59 13.69.89 8.71-27.14-25.55 5.66zM441.51 338.25l-12.25-1.48-10.72-30.64 25.99 5.23v13.15l-3.02 13.74z" class="av"/><path d="m438.43 314.08 3.08 24.17 13.47-2.25 8.24-33-24.79 11.08z" class="aj"/><path d="m508.88 327.83-11.32-1.53-6.95-26.7 17.16-7.61 4.1 12.48-2.99 23.36z" class="av"/><path d="m528.11 296.6-5.91 28.68-13.32 2.55-3.57-34.85 22.8 3.62z" class="aj"/><path d="m301.65 272.07 5.33 32.33 131.45 9.68 6.1-27.94-21.14-3.58-83.49-13.63-38.25 3.14z" style="fill:#5f6878;fill-rule:evenodd;stroke-width:0"/><path d="m444.58 280.8 76-20.1 2.76 10.05-6.63 20.24L449.05 303l-4.47-22.2z" style="fill:#3d4554;fill-rule:evenodd;stroke-width:0"/><path d="m459.77 277.91 2.68 20.81 2.3-.63-1.79-20.18h-3.19zM472.79 276.38l-.89 20.17 2.43-.12 1.4-19.92-2.94-.13zM484.79 274.21l-2.17 20.43 2.17-.38 2.56-20.56-2.56.51zM495.64 271.53l-2.55 21.07 1.66-.26 4.09-21.57-3.2.76zM503.18 291.06l4.21-23.36 1.79-.13-3.83 22.6-2.17.89z" class="ac"/><path d="m514.08 263.7 4.49 5.71-6.7 17.98-57.27 10.36-2.65-11.06 2.65-5.89-19.21 10.19 3.04 23.09 89.68-17.48 7.31-35.9-21.34 3z" style="fill:#4b5464;fill-rule:evenodd;stroke-width:0"/><path d="m281.91 246.87 4.77 23.26 28.54 4 16.21-1.83 73.4 10.36 15.57 6.22 14.99 2.11 9.19-20.61-94.72-23.51h-67.95z" style="fill:#ab90b8;fill-rule:evenodd;stroke-width:0"/><path d="m435.39 290.99 16.56-4.3 12.8-7.37 51.96-14.55 8.93 2.8 21.05-5.45 5.1-25.71-91.78 15.33-26.15 23.75 1.53 15.5z" class="an"/><path d="m281.91 246.87 107.78-24.72 162.1 14.26-63 20.88-22.54 5.11-12.59 6.53-19.8 6.56-151.95-28.62z" class="am"/><path d="m315.22 274.13 5.34-10.43 95.94 15.43 3.9 9.75-105.18-14.75z" class="an"/><path d="m343.37 291.38-.92-6.68-17.61-2.04.92 7.01 17.61 1.71zM326.14 292.51l.74 5.6 17.62 1.4-.81-5.82-17.55-1.18z" class="am"/><path d="m451.95 286.69 4.57-9.9 65.06-18.09 4.06 8.87-73.69 19.12z" class="bh"/><path d="m331.65 244.87 61.1-16.87 112.56 13.67-79.13 21.03-94.53-17.83z" style="fill:#fbfafb;fill-rule:evenodd;stroke-width:0"/><path d="m345.64 248.87 75.26-18.96 2.87.58-75.25 18.96-2.88-.58zM377.24 254.04l68.36-21.25 3.07.57-68.37 22.02-3.06-1.34zM398.11 258.83l75.26-22.98 2.3.96-73.92 22.98-3.64-.96z" class="am"/><path d="M450.01 257.68 343.58 240l-2.69.96 107.78 18.06 1.34-1.34zM468.43 251.7l-108.87-16.91-1.54.96 109.45 17.29.96-1.34zM377.43 229.72l114.56 16.62-1.73.77-115.13-16.05 2.3-1.34z" class="am"/><path d="m432.14 246.06 8.71-.28 3.68 3.64-11.53.65-.86-4.01zM386.29 248.57l13.26-1.46 1.55 3.94-11.48 1.33-3.33-3.81zM381.32 238.17l9.51-.68 1.5 3.68-11.7.19.69-3.19z" class="aj"/><path d="m519.97 239.55 4.61-1.4 6.81.5-5.91 1.8-5.51-.9zM509.96 243.16l6.31-2.11 5.1.9-6.21 1.71-5.2-.5zM500.24 246.66l5.71-1.9 4.91.9-5.91 1.7-4.71-.7z" class="ai"/><path d="m453.66 268.93-12.94-2.73 7.13-2.2 2.16.05-.18-.66 5.32-1.65 2.04.17.06-.82 5.12-1.58 1.97.18v-.79l4.5-1.39 2.36.01v-.74l4.53-1.4 13.06 1.91-5.6 1.85-1.43-.12-.21.67-4.79 1.58-2.53.21.61.43-5.55 1.84-2.27-.05.33.69-6.05 2.01-1.94-.1.34.63-6.04 2z" class="aj"/><path d="m457.25 261.09-2.1.65 12.2 2.65 1.94-.64-12.04-2.66zM459.7 266.93l1.6-.53-11.47-3.01-1.98.61 11.85 2.93zM464.34 258.9l-1.97.61 12.47 2.4 1.92-.64-12.42-2.37zM471.2 256.78l-2.36.73 12.71 2.18 1.64-.55-11.99-2.36z" class="ae"/><path d="m490.74 231.04-17.95 6.66h-14.04l8.97-5.68 9.64-2.15 13.38 1.17z" style="fill:#1d2432;opacity:.1;fill-rule:evenodd;stroke-width:0"/><path d="m477.36 229.87-4.57 7.83-13.37 2.41-3.45-.69 8.13-6.57 13.26-2.98z" class="u"/><path d="m477.36 229.87-21.39 9.55 8.13-6.57 13.26-2.98z" class="bc"/><path d="m467.67 220.84-13.09 2.18.37 8.77 9.15 1.79 13.26-3.71-9.69-9.03z" class="ar"/><path d="m454.58 223.02-9.04 14.63 10.43 1.77 8.13-5.84-9.52-10.56z" class="u"/></g></svg>
------MultipartBoundary--tBp8PtLGWR49XapeMaeCh0VYA3JfcWRHeKgyP5bO24----
Content-Type: image/svg+xml
Content-Transfer-Encoding: quoted-printable
Content-Location: https://www.16personalities.com/static/animations/type-descriptions/introductions/architect.svg?v=2

<svg xmlns="http://www.w3.org/2000/svg" width="900" height="350" style="width:100%;height:100%;content-visibility:visible" viewBox="0 0 900 350"><defs><clipPath id="a"><path d="M0 0h900v350H0z"/></clipPath><clipPath id="b"><path fill="#fff" d="m177 219-6 124 573-1 74.655-17.819-30.93-16.873 51.902-40.518L787 228l-610-9"/></clipPath></defs><g clip-path="url(#a)"><g display="block"><g opacity=".1"><path d="m769.689 235.222-35.966-5.498-7.473-4.412 6.417-4.979 21.643-3.043 4.104-2.624v-4.225l-21.08 1.565-36.202-5.045-5.715-6.274L738.75 196l27.872 12.694 3.067 26.528zM787.655 307.256l-52.949-3.878-22.21-15.238 51.003-5.42 24.156 24.536zM659 284.364l-24.74-1.644-12.565-7.306 13.616-8.166L659 284.364zM581.089 306.25l-40.224-5.693-18.365 1.832-28.393-13.355 19.394-8.644 38.485 5.943 29.103 19.917zM177.864 240.751l-18.333 1.718-22.947-.86-6.878-8.636-11.956 1.134-29.383-6.729L76 235.992l-44.25-4.685-6.75-6.653-25-12.459 59.406-7.913 94.222-3.217 24.236 39.686zM849.5 222.05h-18.244l-12.022-2.645 16.349-6.229 13.917 8.874z" opacity="1"/></g><path fill="#DDDDDC" d="m86.311 186.16 4.439-14.79-78.416 4.471 24.333 19.345 49.644-9.026z"/><path fill="#858585" d="m0 212.195 32.501 8.981 5.567-17.86-1.401-11.13-24.333-16.344L0 212.195z"/><path fill="#A2A2A2" d="m86.311 186.16-4.308 34.416-49.504.6 4.168-28.991 49.644-6.025z"/><path fill="#DDDDDC" d="m674 160.652 46.333 7.549 48.355-6.144-5.339-11.694-85.682 3.407-3.667 6.882z"/><path fill="#858585" d="m720.334 166.202.092 13.782-8.425 25.713-46.334-5.59 8.334-39.454 46.333 5.549z"/><path fill="#A2A2A2" d="m712 205.697 8.333-.562 48.355-29.097v-13.981l-48.355 4.145L712 205.697z"/><path fill="#DDDDDC" d="m766 116.249 18.666-.685 21 3.186-26 5.696L766 116.249z"/><path fill="#858585" d="m766 116.25-11 90.712 27.333 7.704.043-67.695-2.709-24.525L766 116.25z"/><path fill="#A2A2A2" d="m779.666 122.446 26-3.696L814 210.441l-31.667 4.225-2.667-92.22z"/><path fill="#DDDDDC" d="m809.122 156.779 54.377 12.531-52.846 6.315-13.82-12.92 12.289-5.926z"/><path fill="#858585" d="m796.833 162.705-3.326 50.471 12.159 7.157 5.365-31.511-.377-15.198-13.821-10.919z"/><path fill="#A2A2A2" d="m810.653 173.625-4.987 46.709 59.834-4.095-2-46.929-52.847 4.315z"/><path fill="#DDDDDC" d="m864.547 193.877-.373-8.743L890 200.107l-40.5 11.347-16-9.491 31.047-8.086z"/><path fill="#858585" d="m833.5 201.962-2.244 16.62 18.244 3.468 2-6.551-2-6.044-16-7.493z"/><path fill="#A2A2A2" d="M849.5 209.455v12.596l50.5-5.233-10-16.71-40.5 9.347z"/><path fill="#DDDDDC" d="m728.834 176.038 30.142-1.858L766 186.672l-28.666.462-8.5-11.096z"/><path fill="#A2A2A2" d="m766 186.672 2.687 24.311-31.354 1.023-2-12.82 2-14.052L766 186.672z"/><path fill="#858585" d="m728.833 176.038-8.5 29.097 17 6.871v-26.872l-8.5-9.096z"/><path fill="#DDDDDC" d="m757.5 203.377 24.331-6.077 37.403 22.106-42.734 2-19-18.029z"/><path fill="#858585" d="m757.5 203.377-5.489 23.937 17.678 7.909 7.786-9.239-.975-6.579-19-16.028z"/><path fill="#A2A2A2" d="M819.234 219.405 823 232.046l-53.312 3.177 6.812-15.818h42.734z"/><path fill="#DDDDDC" d="m306 149.036-81.793-2.676 22.806 19.344 62.847-6.616-3.86-10.052z"/><path fill="#858585" d="m247.013 162.704 1.599 18.625-5.112 41.026-19.498-4.308.205-71.686 22.806 16.343z"/><path fill="#A2A2A2" d="m247.013 162.704 62.847-3.617-3.86 53.29-62.5 9.978 3.513-59.651z"/><path fill="#DDDDDC" d="m171.333 166.201 52.874-.942 10.293 9.74-50.526 13.674-12.641-22.472z"/><path fill="#858585" d="m171.333 166.202-3 23.459 17.148 15.475 2.25-9.198-3.756-9.265-12.642-20.471z"/><path fill="#A2A2A2" d="m234.5 175-10.499 43.047-51.365 1.001 5.395-33.914L234.5 175z"/><path fill="#DDDDDC" d="m88.367 159.14 51.414-11.429 47.275 19.192-55.057 15.064-43.632-22.827z"/><path fill="#858585" d="m88.367 159.141-5.069 42.822 33.202 26.47 18.08-40.449-2.58-17.021-43.633-11.822z"/><path fill="#A2A2A2" d="m132 170.962 55.054-4.059-15.418 57.148-55.136 4.382 15.5-57.471z"/><path fill="#DDDDDC" d="m64.5 206.39 18.798-4.428 27.339 6.322-36.305 14.892L64.5 206.39z"/><path fill="#858585" d="m64.5 206.39-15.75 24.326L76 235.992l1.334-13.996-3-4.824L64.5 206.39z"/><path fill="#A2A2A2" d="m110.637 208.284 7.113 25.823L76 235.992l-1.666-18.819 36.303-8.889z"/><path fill="#DDDDDC" d="m325.015 127.25-15.015 5-21.297-12.093 36.312-.907v8z"/><path fill="#A2A2A2" d="m310 129.25.84 19.786 6.939 12.765 7.237 9.021V127.25l-15.016 2z"/><path fill="#858585" d="m288.702 120.157 4.744 50.726 24.332-9.082L310 129.25l-21.298-9.093z"/><path fill="#A2A2A2" d="m296.783 173.964-3.337 57.344 51.054-3.875-10.743-41.305-8.743-11.948-28.231-.216z"/><path fill="#858585" d="m274.555 170.822 2.125 56.611 16.766 3.875 6.339-54.342-5.222-5.248-20.008-.896z"/><path fill="#DDDDDC" d="m325.014 160.29-50.458 10.533 25.228 6.143 25.23-2.785V160.29zM144.477 205.135l34.136-4.071 32.638 4.632-36.239 11.122-30.535-11.683z"/><path fill="#858585" d="m144.477 205.135-5.903 28.115 39.289 7.501L180.5 227.5l-5.488-15.599-30.535-6.766z"/><path fill="#A2A2A2" d="m211.25 205.696 8 29.304-41.386 5.75-2.852-28.849 36.238-6.205z"/><path fill="#DDDDDC" d="m698.333 213.175 34.333 7.158-11.333 28.932-101.667-2-1.5-17.832 80.167-16.258z"/><path fill="#A2A2A2" d="m732.666 220.334 4.667 41.49L723.666 266l-3.333-8.601v-10.134l12.333-26.931z"/><path fill="#737373" d="m720.333 247.265-101.305-7.586 19.232 19.104L723.666 266l-3.333-18.735z"/><path fill="#DDDDDC" d="M678.564 173.372 695.333 175l12 11.672-30.972 6.823-20.088 1.127-6.274-14.289 28.565-6.961z"/><path fill="#A2A2A2" d="M707.334 186.672 701 229.433l-53 10.245 8.274-45.056 51.06-7.95z"/><path fill="#DDDDDC" d="m648.999 107.842 32.334 6.991-14.66 3.555-12.061-.721-5.613-9.825z"/><path fill="#A2A2A2" d="M681.334 114.833 678 180.321l-8.5.72-14.888-63.375 26.722-2.833z"/><path fill="#DDDDDC" d="m697.666 252.912 9.295 11.676-45.962 7.66-26.74-15.466 19.407-3.424 44-.446z"/><path fill="#A2A2A2" d="M706.961 264.588 710 281.736l-51 2.628-.958-7.359 2.958-6.757 45.961-5.66z"/><path fill="#737373" d="m659 284.364-26-10.479 1.26-17.103L661 270.248l-2 14.116z"/></g><g display="block"><path fill="#95627B" d="M598.667 14.334 613 26.001l13.5-3.442 10.883-4.812-1.055-6.996-37.661 3.583z"/><path fill="#734D5F" d="M637.383 17.747 641 22.335v3.634l-9.94 7.311-13.035 5.685-.525-5.964-4.5-7 24.383-8.254z"/><path fill="#95627B" d="m641 25.967 2.5 3.409.594 3.625-7.719 7.958L627 46.251l-8.976-7.287L641 25.967z"/><path fill="#734D5F" d="m644.095 33.001 2.714 2.125v4.756l-6.388 10.281-13.422-3.912 17.096-13.25z"/><path fill="#D1A0B8" d="m649.385 36.252-4.649-12.917-5.403-16.167-4.334 2.458v2.709l11.274 25.615 3.112-1.698z"/><path fill="#B3879D" d="m635 12.333-36.333 2 .821-2 39.845-5.166L635 12.333z"/><path fill="#95627B" d="m676.5 75.388-9.333-5.637 1.583-17.125 3.458-10.587 8.417-2.157-1.615 13.897-2.51 21.609z"/><path fill="#734D5F" d="m672.208 42.038-5.041 27.712L656.084 71l4-16.75 5.583-12.916 6.541.704z"/><path fill="#95627B" d="m665.667 41.334-9.585 29.668-6.083-13.668 2.5-8.832 4.418-5.335 8.75-1.833z"/><path fill="#D1A0B8" d="m657.883 37.949 29.616-1.354-.666 4.363-5.166 1.85-2.358-1.294-22.392 1.653-.542-1.946 1.508-3.272z"/><path fill="#B3879D" d="m686.833 40.959-8.167 35.708-2.167-1.279 2.81-33.874 7.524-.555z"/><path fill="#785D87" d="M656.083 47.667 650 57.334l-9.579-7.172 3.079-7.352 6.798.623 5.785 4.234z"/><path fill="#90759F" d="m657.883 37.95-1.801 9.717-12.583-4.858 4.583-8.032 9.801 3.173z"/><path fill="#95627B" d="M663.667 27 670 26l-3.5 8.25-3.716-4.39.883-2.86zM653.667 22.334l-3.325-6.208-5.607 7.208h5.389l3.543-1z"/><path fill="#B3879D" d="m644.736 23.334 1.294 4.424 2.222 2.118-.169 4.901.53 1.816 1.729 3.783 4.27-1.022 3.271-1.404 2.929-2.199 2.698-.217 2.99-1.283-2.833-7.25-10-4.667-8.931 1z"/><path fill="#785D87" d="M663.51 35.534 659.999 29l-5.387 1.834L652.499 26l-6.469 1.76 2.052 7.019 5.75-1.779 4.05 4.95 5.628-2.416z"/><path fill="#95627B" d="m648.614 36.594 5.998 2.759L650 41.334l-1.386-4.74z"/><path fill="#EBEBEB" d="m648.919 29.333 1.997-.666.849 2.416H650l-1.081-1.75zM656.917 33.001l2.583-1.025.583 2.608h-2.25l-.916-1.583z"/></g><g display="block"><path d="m695.417 230.379 16.582 6.728 15.912-6.391-21.932-5.403-10.562 5.066z" opacity=".14"/><path fill="#785D87" d="m713.125 171.689-2.793-28.214 5.668 3.526-2.875 24.688zM697.667 117.25l24.333-5 21.667 8.196L723.5 129l-25.833-11.75z"/><path fill="#90759F" d="m714.415 202.032 9.084-56.556-3.463-1.296-4.037 2.821-8.666 39.672 3 15.023 4.082.336z"/><path fill="#785D87" d="m707.333 186.673-11.916 43.707 8.604.335 10.394-28.682-7.082-15.36z"/><path fill="#95627B" d="m716 147 1.576-12.938 9.245-4.057 7.511-1.255-10.832 16.725L716 147z"/><path fill="#734D5F" d="m719.334 135.25-6.324-4.275-8.094-.912L702 144.064l14 2.937 3.334-11.751z"/><path fill="#A687B9" d="m719.333 135.25-.46-5.64L723.5 126l20.167-5.554-9.334 8.304-15 6.5z"/><path fill="#90759F" d="m723.501 126-25.834-8.75 7.249 12.812 14.417 5.188 4.168-9.25z"/><path fill="#D1A0B8" d="m729.5 107.5-2.25 4.5 3 3.75 2.25-4-3-4.25z"/><path fill="#B3879D" d="m716.5 112.5-2.25 4.5 3 3.75 2.25-4-3-4.25z"/><path fill="#D1A0B8" d="m723.5 126-5.833-10.844 13.604-14.124 5.396 12.485L723.5 126z"/><path fill="#B3879D" d="m723.5 126.001-2.833-8.845-4.398-6.75-7.735-3.593 3.591 15.25 11.375 3.938z"/><path fill="#D1A0B8" d="m720.667 117.155 10.604-16.125-5.987-9.145-5.951-3.112-10.798 18.04 12.132 10.342z"/><path fill="#B3879D" d="m731.271 101.031 5.396-7.368-11.5-16.996-6.01 3.248.176 8.86 11.938 12.256z"/><path fill="#D1A0B8" d="m719.333 88.774-7.208-7.833L720.667 62l4.5 14.667-5.834 12.107z"/></g><g display="block"><path fill="#A687B9" d="m435.321 35 3.678-19.75 43.487 27.5 42.763-27.5 4.75 21.416-48.121 19.15L435.321 35z"/><path fill="#785D87" d="m440.5 33.376 2.25-9.626 8.516 6.25-7.248 4.25-3.518-.874zM511.814 30.725l10.019-6.975L523 34.25h-8l-3.186-3.525z"/><path fill="#90759F" d="M431.472 56.917 435.321 35l45.71-14.333 48.969 16 3.5 16-53.487 4.25h-48.541z"/><path fill="#D1A0B8" d="m444.018 56.395 2.732-12.77 6.596-3.612 3.261-.825 12.288-3.114 6.855.551L481.031 33l13.076 3.074L500 40.5l7.144-1.361 11.102 2.611 1.492 11.491-37.253 3.677-38.467-.523z"/><path fill="#95627B" d="m507.143 39.139 1.355 14.569-13.094 1.546-1.298-19.18 13.037 3.065zM481.031 33l.847 22.816-13.872-.422.889-19.32L481.031 33zM456.607 39.186V56.87l-12.588-.475 1.482-14.396 11.106-2.813z"/><path fill="#90759F" d="m450 217.29 41.986 4.761L546 219.406l5.986-26.362v-26.36l-60-1.425-65.486 6.207 4.328 22.284L450 217.29z"/><path fill="#785D87" d="m641.666 249-8.667 24.885-38.333 5.185 39-35.294 8 5.224z"/><path fill="#785D87" d="M657.333 214.666 654 252.999l-57.057 19.886 60.39-58.219z"/><path fill="#A687B9" d="m431.472 56.916 102.028-4.25 16 59.252 2.486 54.765-125.486 4.783-7-63.903 11.972-50.647z"/><path fill="#90759F" d="m358.986 30 72.486 26.917-4.972 114.548-41.486 13.14-42.514 5.837 3-82.878L358.986 30z"/><path fill="#785D87" d="m533.5 52.666 84-19.667 23 75.504 12 76.632-53.25-1.339-47.264-17.112L533.5 52.666z"/><path fill="#A687B9" d="M617.5 33 650 57.333l19.5 123.708-6 2.755-11 1.338L617.5 33z"/><path fill="#785D87" d="m358.986 30-33.972 10.319-8.508 142.814 17.251 9.911 8.743-2.602L358.986 30z"/><path fill="#A687B9" d="m342.5 190.442 84-18.977L450 217.29l-69.5 27.954-38-54.802zM551.986 166.683 546 219.404l47 14.702 59.5-48.971-100.514-18.452z"/><path fill="#90759F" d="m450 217.29 3.5 31.71-.514 27.327-71.027 9.741L375 268.661l5.5-23.417L450 217.29z"/><path fill="#785D87" d="m546 219.405-4.5 31.518 4.5 32.072 43.5 6.4 7.442-30.146L593 234.106l-47-14.701z"/><path fill="#90759F" d="m652.5 185.134 8.5 10.71 5.5 24.489-77 69.061 3.5-55.288 59.5-48.972z"/><path fill="#A687B9" d="m669.5 181.041-3 39.292-14-35.199 17-4.093z"/><path fill="#785D87" d="m380.499 245.244 1.46 40.823-53.46-64.018 5-21.654 9-9.953 38 54.802z"/><path fill="#90759F" d="m316.506 183.133 25.994 7.309-14 31.608-11.994-38.917z"/><path fill="#584164" d="m450 217.291 96 2.115v53.583l-93.014 3.338L450 217.291z"/><path fill="#EBEBEB" d="m430.828 71.75 105.442-2 9.73 41.772 4.133 43.735-123.095 3.809-4.053-41.399 7.843-45.917z"/><path fill="#EBEBEB" d="M430.828 71.75 371.472 48.5l-12.486 120.81 68.052-10.244 3.79-87.316z"/><path fill="#DDDDDC" d="m536.269 69.75 69.158-19.25 22.572 111.558-77.866-6.8-13.864-85.508z"/><path fill="#95627B" d="M480.013 275.358V229.87l33.486-.436v44.721l-33.486 1.203z"/><path fill="#D1A0B8" d="M484.75 237.265h23.75V243h-23.75v-5.735zM484.75 247.265h23.75V253h-23.75v-5.735zM484.75 257.265h23.75V263h-23.75v-5.735zM560.333 178.348l36.609 7.787-18.304 13.052-22.972-6.142 4.667-14.697z"/><path fill="#95627B" d="M555.666 193.044v5.142l20.638 5.914 2.334-5.914-22.972-5.142z"/><path fill="#B3879D" d="m567.152 201.477 29.79-21.144 22.724 4.801L585 208.911l-17.848-7.434z"/><path fill="#734D5F" d="m567.152 201.477-2.138 9.506 20.319 8.422 1.917-7.155-2.25-5.338-17.848-5.435z"/><path fill="#95627B" d="m619.666 185.134 7.471 8.488-41.804 25.782-.334-12.493 34.667-21.777z"/><path fill="#D1A0B8" d="m437.024 191.987-34.087 6.874-34.687 9.493 6.75 11.05 30.73-9.555 33.96-12.664-2.666-5.198z"/><path fill="#B3879D" d="m437.023 191.987 54.964-2.574 57.492-.647-.956 8.419-57.523 1-51.311-1-2.666-5.198z"/><path fill="#B3879D" d="m547.413 206.962-103.395-1.336-4.328-8.44h108.832l-1.109 9.776zM549.478 188.766l-112.455 3.221-4.689-9.146 118.102-2.508-.958 8.433z"/><path fill="#D1A0B8" d="m432.334 182.841-70.084 16.344 6 9.17 68.774-16.368-4.69-9.146zM439.69 197.186l4.328 8.44L381 229.434l-6-10.029 64.69-22.219z"/><path fill="#95627B" d="m457.75 197.186 1.541 8.637 16.211.209v-8.846H457.75zM486.56 197.186v8.989l16.688.216 1.002-9.205h-17.69zM517.249 197.186l-1 9.373 14 .181 2-9.554h-15zM456.755 191.422l-1.508-9.069 20.256-.431v8.963l-18.748.537zM486.56 190.569v-8.882l17.69-.376v8.751l-17.69.507zM518.247 189.661l1.247-8.675 16.775-.358-2.769 8.596-15.253.437zM456.755 191.422l-19.731.566 2.666 5.198h18.06l-.995-5.764z"/><path fill="#95627B" d="m475.502 190.885 11.058-.317v6.618h-11.058v-6.301zM504.249 190.062l13.998-.401-.998 7.524h-13v-7.123zM533.499 189.224l15.98-.458-.956 8.42h-16.274l1.25-7.962zM426.5 194.492l-4.809-9.169-13.451 3.137 6.461 8.84 11.799-2.808zM397.859 201.308l-6.098-9.005-14.128 3.295 7.246 8.799 12.98-3.089zM389.963 214.266l4.945 9.914 14.601-5.517-5.539-9.209-14.007 4.812zM417.371 204.852l12.976-4.457 4.974 8.516-12.334 4.66-5.616-8.719zM384.88 204.397l5.082 9.869L375 219.405l-6.75-11.05 16.63-3.958zM397.859 201.308l16.842-4.008 2.668 7.552-13.4 4.602-6.11-8.146z"/><path fill="#90759F" d="m437.5 80.5 41.5 1.25 2.014 47.25-43.514 1V80.5z"/><path fill="#EBEBEB" d="m441.75 83.834 34.192 1.666 1.56 39.25-5.34.358-12.049.059-12.056 1.56-7.807.523 1.5-43.416z"/><path fill="#B3879D" d="M438.5 139.25h6.5l-.982 11.75H438.5v-11.75zM447.386 139.25h6.114V150l-6.114 1v-11.75zM456.75 139.25h7.624L463 149.75h-6.25v-10.5zM467.006 139.25h6.936v10.5h-6.936v-10.5z"/><path fill="#95627B" d="m486.56 105.375 11.44-.125v11h-11.44v-10.875zM502.302 105.374H514.5v10.876h-12.198v-10.876zM518.406 105.375l11.094-.125v11h-11.094v-10.875z"/><path fill="#90759F" d="m486.56 125.25 2.683-1.75 1.991 4.5 4.171-6.75 1.095 1.374-5.266 8.25-4.674-5.624zM487.624 136.25l2.626-2.126.984 3.126 4.17-4.5 1.096 1.124-5.266 6.5-3.61-4.124zM488.25 145.875l2.25-2 1.78 3.375 4.22-4.625L498 144l-6.47 6.375-3.28-4.5z"/><path fill="none" stroke="#A2A2A2" stroke-miterlimit="10" d="M502.302 123.062H531M502.302 127.062H516M502.302 134.062H531M502.302 138.062H516M502.302 144.062H531M502.302 148.062H516M487.625 83h36.329M487.625 88h26.329M487.625 93h16.329"/><path fill="#95627B" d="m377.633 66 10.114 3.75-.762 13.25-11.986-4.333L377.633 66zM375 95.333l11.986 2.424-2.32 13.056-11-1.907L375 95.333zM372 124.25l10.5 1.812-1.127 11.138H370l2-12.95z"/><path fill="none" stroke="#A2A2A2" stroke-miterlimit="10" d="M394.907 75.666 419.499 83M393.906 80.667l15.334 4.274M393.579 103.606l25.092 5.382M392.975 108.669l15.622 3.058M391.184 131.319l25.596 1.858M391.286 136.417l15.894.868"/><path fill="#D1A0B8" d="m369 148.824 50.5-3.099v8.377l-51.25 6.189.75-11.467z"/><path fill="none" stroke="#A2A2A2" stroke-miterlimit="10" d="m560.761 80.5 8.46 62.124 23.78-1.52M566.719 124.25l23.69-2M564.274 107.297l26.136-3.682M562.463 93l23.786-4"/><path fill="#FCE3D4" d="m447.429 94.833 1.837 12.465 1.163 11.453 4.854-.242 4.55.242 4.542-.692 6.75-.334-2.957-26.412-9.697 4.321-11.042-.801z"/><path fill="#F5C9B3" d="m452.084 101.838 4.522-.731 1.394.559 1.595-1.041 5.655-1.047-4.881 8.765-2.845.871-5.44-7.376z"/><path fill="#737373" d="m448.064 95.452 1.203 11.846-2.15-2.88-1.822-11.922 12.094-4.466 13.736.866v12.943l-1.279 4.459-2.618-13.802-8.757 4.139-10.407-1.183z"/><path fill="#737373" d="m452.084 101.839 3.666-2.218.858 1.487-4.524.731zM459.594 100.625v-2.094l5.656 1.048-5.656 1.046z"/><path fill="#FFEFE8" d="m459.594 100.625.775 7.718-2.845.87-.917-8.105 2.987-.483z"/><path fill="#C2917C" d="m460.369 108.343-1.702 2.47-1.142-1.6 2.844-.87zM453.166 112.499l6.429.751 6.905-2.001v1l-6.905 2.584-6.429-1v-1.334z"/><path fill="#F5C9B3" d="M447.117 104.417h-1.821l1.516 5.458 2.75.346-.296-2.924-2.149-2.88zM471.124 101.838h2l-.437 5.481-2.612 1.023-.229-2.045 1.278-4.459z"/><path fill="#95627B" d="m455.284 118.51-7.22 8.324 24.098-1.725-7.787-7.049-5.098 1.024-3.993-.574z"/><path fill="#C2917C" d="m455.283 118.51 4.312 5.74 4.78-6.19-9.092.45z"/><path fill="#B3879D" d="m548.522 77.667 23.144-5.333 1.333 7-22.865 5.606-1.612-7.273zM581.33 85.5l16.825-3.804 1.333 7-16.547 4.078-1.611-7.274zM584.447 101.342l17.02-2.81.92 7.067-16.759 3.099-1.181-7.356zM588.121 119.418l17.161-1.751.481 7.109-16.918 2.057-.724-7.415zM589.769 137.733l17.205-1.255.275 7.12-16.971 1.568-.509-7.433z"/><path fill="#2B2B2B" d="M463.75 103.625a.938.938 0 1 1-1.876-.002.938.938 0 0 1 1.876.002zM455.284 104.562a.938.938 0 1 1-1.876-.002.938.938 0 0 1 1.876.002z"/><path fill="#95627B" d="m426.5 194.492 10.524-2.505 2.666 5.199-9.343 3.209-3.847-5.903z"/><path fill="#DDDDDC" d="m450.787 235.5 14.462 8.276L451.266 255l-18.933-11.224 18.454-8.276z"/><path fill="#737373" d="m432.334 243.775-1.507 12.136 13.19 25.526 11.266-11.291-4.016-17.147-18.933-9.224z"/><path fill="#A2A2A2" d="m465.249 243.775 14.763 31.582-35.605 21.494-4.717-13.99 7.295-11.537 4.281-18.325 13.983-9.224z"/><path fill="#DDDDDC" d="m430.828 255.912 16.158 15.412-20.486 15.722-73.644-11.927 6.13-17.721 22.351 11.263 49.491-12.749z"/><path fill="#8F8F8F" d="m446.986 271.324-2.578 25.526-86.038-5.052-5.514-16.679 94.13-3.795z"/><path fill="#DDDDDC" d="m527.258 271.123-13.758 2.763 10.999 18.465 44.193-6.017-7.931-8.334-19.897 2.365-13.606-9.242zM546 240.132l10.75 10-15.25 8.65-11.25-18.449 15.75-.201z"/><path fill="#737373" d="m530.25 240.333-2.992 30.789 13.606 13.243 2.406-17.621-1.77-9.961-11.25-16.45z"/><path fill="#A2A2A2" d="M556.75 250.132 560.76 278l-19.896 6.364.636-27.582 15.25-6.65z"/><path fill="#737373" d="m513.5 273.886-7.004 14.528 16.004 9.836 3.912-4.396-.912-2.503-12-17.465z"/><path fill="#A2A2A2" d="m525.5 291.351 43.193-5.017 1.807 9.639-48 2.277 3-6.899z"/><path fill="#DDDDDC" d="m555.666 271.818 21.675-15.905L619.028 263l-36.894 24.365-26.468-15.547z"/><path fill="#737373" d="m555.666 271.818-3.68 25.034 29.102 9.398 3.658-13.769-2.612-8.116-26.468-12.547z"/><path fill="#A2A2A2" d="m619.029 263 6.304 29.351-44.244 13.899 1.046-21.886L619.029 263z"/><path fill="#4F5252" d="m184.685 64.654-13.333 16.333-5.319 31.343 18.652-14.675V64.654z"/><path fill="#858585" d="m182.018 97.654 2.667-33 37.444 16.012 15.754 7.326 46.636-25.334 11.934 24.334-55.552 13.25-58.883-2.588z"/><path fill="#4F5252" d="m191.928 93.457.528-16.804 21.84 7.331-10.642 6.454-11.726 3.019zM267.479 80.807l12.945-6.483 5.515 10.424h-13.174l-5.286-3.941z"/><path fill-opacity=".1" d="m169.346 329.325 103.983-11.333 63.245-24.44-49.055-26.158-73.515-1.331-148.003 32.186 103.345 31.076z"/><path fill="#4F5252" d="m203.655 235.992-10.752 36.256 20.48 30.08-9.728-66.336zM182.019 97.654l-15.985 14.675 37.11 98.989 4.896 3.738 5.646-2.064-6.867-48.37-24.8-66.968z"/><path fill="#6E7073" d="m182.019 97.654 55.083-23.329 59.352 12.667 6.685 112.404-3.354 5v11.956l.023 17.973-52.169 12.028-17.977-1.111-15.976-32.25-31.667-115.338z"/><path fill="#4F5252" d="m199.019 103.987 38.865-15.996 44.653 9.5 6.844 79.852 4.471 10.543-2.333 14.395-63.393 9.272-21.307-74.636-7.8-32.93z"/><path fill-opacity=".14" d="m183.232 82.644 8.225-9.99 10.894 7.297 9.472-6.005-22.138-7.601-16 8.15-1.334 4.492 10.881 3.657z"/><path fill="#95627B" d="m196.033 32.654 7.985-13 2.855 17.666-5.188-1-5.652-3.666z"/><path fill="#B3879D" d="m169.769 37.321-12.584-10.167 5.833 19.5 5.168-3.833 1.583-5.5z"/><path fill="#734D5F" d="m177.099 73.946 11.883-7.242 13.934 5.746.739-22.712-16.6 12.103-17.286-6.188 7.33 18.293z"/><path fill="#95627B" d="m187.056 61.841-.203-14.187-3.848-10.333h-13.237l-6.75 9.333 8.334 34.332 11.88 1.657-7.872-22.661 11.696 1.859z"/><path fill="#B3879D" d="m183.005 37.321 13.028-4.667 10.84 4.667 4.949 39.345-9.47 3.286-1.268-24.298-14.028 6.188-4.051-24.521z"/><path fill="#734D5F" d="m174.351 47.82 7.501 7.834-7.668-1.334.167-6.5zM191.351 53.821l5.834-9.5 2 6.667-7.834 2.833z"/><path fill="#D1A0B8" d="m191.929 59.692-5.896-4.038v3.094l1.023 3.094 4.873-2.15z"/><path fill="#B3879D" d="m186.034 55.654-3.536 5.463 4.558.725-1.022-6.188z"/><path fill="#6E7073" d="m203.143 211.318 10.542 1.674 12.202 30.25 2.238 26.417-14.742 32.669-17.864-70.092 7.624-20.918z"/><path fill="#4F5252" d="m291.519 202.282 33.496 18.893L336.573 255v38.552l-23.571-8.22-21.483-83.05z"/><path fill="#858585" d="m303.139 199.396 49.532 21.904-22.318 9.416-14.179-3.64-24.655-24.795 11.62-2.885z"/><path fill="#737373" d="m316.174 227.077 14.179 28.576L342.5 255l16.486-3.321-6.315-30.378-36.497 5.776z"/><path fill="#4F5252" d="m358.986 251.678-.615 40.12-21.797 1.754-6.22-37.9 28.632-3.974z"/><path fill="#737373" d="m313.002 285.332-68.394 6.017-3.109-29.593 74.104-8.845-2.601 32.421z"/><path fill="#858585" d="m231.498 241.679 68.309-7.354 15.797 18.584-70.336 10.09-13.77-21.32z"/><path fill="#858585" d="m213.685 212.991 2.314 23 20.817 9.25 8.823-11.136-17.513-22.552-14.441 1.438z"/><path fill="#737373" d="m215.998 235.992-2.001 32.385 24.54 2.917 14.65-5.096-7.549-32.092-29.64 1.886z"/><path fill="#4F5252" d="m252.201 262.005-5.722 39.283-33.096 1.039.614-33.95 38.204-6.372z"/><g opacity=".14"><path d="m297.557 208.355-1.263 12.387-17.262 9.845-40.148-7.364-6.092 1.431-8.402 3.838-9.739-6.569-.966-8.931-18.558-67.594 38.735-2.129.639 37.065 48.862 23.949 14.194 4.072z" opacity="1"/></g></g><g display="block"><path fill="#95627B" d="m247.027 240.007 32.005-4.016 20.987 9.25-20.077 12.5-27.741 4.264-5.174-21.998z"/><path fill="#DFBCA4" d="m265.528 262.158 4.477 26.958 8.191-.721 4.49-17.52L281.5 264l-15.972-1.842z"/><path fill="#8A6651" d="m282.686 270.875-17.159-8.717 9.973-1.159 9.363 1.383-2.177 8.493z"/><path fill="#DFBCA4" d="m291.519 260.687-1.689 9.329 10.681 16.415 5.156-1.682 2.345-3.707-4.241-18.466-12.252-1.889z"/><path fill="#8A6651" d="m303.771 262.576-13.941 7.439-4.967-7.634 7.575-1.694 11.333 1.889z"/><path fill="#584164" d="m309.834 287.572-6.302 5.709 1.135 2.386 18.667-11.084-1.239-2-12.261 4.989z"/><path fill="#785D87" d="m308.012 281.042 14.083 1.541-18.564 10.699-3.02-6.85 7.501-5.39z"/><path fill="#734D5F" d="m300.019 245.242 3.752 17.334-51.57-.571 47.818-16.763zM300.019 245.241l-52.992-5.233 15.735-5.903 16.27-3.518 20.987 14.654z"/><path fill="#584164" d="m270.856 296.564-1.794 2.044-.079 2.75 16.427-.073.007-2.885-14.561-1.836z"/><path fill="#785D87" d="m278.195 288.395 7.223 10.005-16.356.209.943-9.493 8.19-.721z"/><path fill="#584164" d="m219.333 188.805-2.745 4.203-8.549-.58 6.611-8.798 4.683 5.175z"/><path fill="#785D87" d="m214.65 183.629 1.938 9.379 18.463 1.138 6.851-7.578-13.778-6.902-13.474 3.963z"/><path fill="#90759F" d="m214.65 183.629 18.607 2.007h4.559l1.067-3.734-28.988-21.286 4.755 23.013z"/><path fill="#95627B" d="M267.347 180.742h8.855l16.13 12.302 4.119 5.142 1.106 10.17-17.787-4.944-5.44-5.285-6.983-17.385z"/><path fill="#B3879D" d="m283.363 204.282-31.967 5.246-14.627 3.464 12.87 24.922 29.393-7.327 4.331-26.305z"/><path fill="#D1A0B8" d="m238.884 181.902 28.462-1.16 16.017 23.54-46.594 8.71-3.512-27.356 5.627-3.734z"/><path fill="#EBEBEB" d="m255.597 190.127 12.882 6.74-8.27-16.124-4.612 9.384zM238.883 181.902l16.714 8.225-4.2 14.155-12.514-22.38z"/><path fill="#95627B" d="m236.769 212.992 13.834 6.083 7.707 1.796 20.723 9.716-32.006 9.421-1.388-5.902-7.709-9.927-1.161-11.187z"/><path fill="#584164" d="m209.894 160.616 28.99 21.286-14.048-35.854-14.942 14.568zM271.124 113.407l14.036 14.688-6.172 28.208-7.864-42.896z"/><path fill="#DFBCA4" d="m271.125 113.407 3.108 15.04 3.746 5.527-.802 8.72 5.58 27.004-19.994 5.847-8.742 11.024-12.118-3-21.868-30.804 24.549-22.336 26.541-17.022z"/><path fill="#584164" d="m206.818 136.918 15.689-29.685 39.351-9.791-27.643 20.55-27.397 18.926z"/><path fill="#C3977A" d="m238.884 138.064 10.048 41.268 4.836 3.505 1.829 7.291-16.713-8.225-18.849-29.139 18.849-14.7z"/><path fill="#8A6651" d="m245.279 180.086 17.484-4.541-7.166 14.582-10.318-10.041z"/><path fill="#E8C9B6" d="m267.345 153.675-5.849 1.355-5.271-21.677 5.849-1.355 5.271 21.677z"/><path fill="#95627B" d="m244.437 148.74-2.118-8.653 14.586-3.961-.679-2.773-17.342 4.711 3.478 14.187 17.368-4.607-.679-2.772-14.614 3.868zM276.994 127.793l-14.998 4.075.672 2.747 12.146-3.258 1.794 8.692-11.862 3.22.681 2.774 14.515-3.955-2.948-14.295z"/><path fill="#464646" d="m256.226 133.352-6.321 1.718h-6.855l3.516-2.708 3.311.339 6.349.651zM262.075 131.999l4.794-4.834 6.894-.982-8.566-1.992-3.122 7.808z"/><path fill="#584164" d="m225.927 145.26 5.953 9.477 1.981-1.266-.296-11.222-7.638 3.011z"/><path fill="#8A6651" d="m267.345 153.676-2.084 2.498-3.764-1.144 5.848-1.354z"/><path fill="#DFBCA4" d="m234.215 158.457-7.523 4.573-6.657-10.266 7.165-5.482 7.015 11.175z"/><path fill="#C3977A" d="m257.067 145.397-4.649-5.865-9.685 2.253-.415-1.699 14.586-3.959 2.146 8.746-1.983.524zM264.746 143.268l.477-7.101 5.969-3.805-8.524 2.253 2.078 8.653zM266.059 148.389l7.705-4.618-8.308 2.271.603 2.347zM242.361 152.251l17.996-1.576-.626-3.03-17.37 4.606z"/><path fill="#8A6651" d="m226.975 163.492 4.719 7.295 2.521-12.33-7.522 4.573.282.462zM222.425 153.288l4.08-2.807 3.586 5.472-7.666-2.665z"/><path fill="#785D87" d="m195.126 145.397 14.769 15.219 66.307-51.088-12.291-9.286-68.785 45.155z"/><path fill="#A687B9" d="m195.126 145.398 40.341-19.282 40.735-16.588-9.974-14.972-71.102 50.842z"/><path fill="#8A6651" d="m272.366 119.417-24.888 12.242 23.665-18.234 1.223 5.992z"/><path fill="#D1A0B8" d="m254.187 165.218 9.584 2.058 7.982-3.874-7.418.001-10.148 1.815z"/><path fill="#95627B" d="m271.753 163.402-17.566 1.816 8.793-4.046 8.773 2.23z"/><path fill="#2B2B2B" d="M273.765 136.467a2.315 2.315 0 1 1-4.63 0 2.315 2.315 0 0 1 4.63 0zM255.749 141.014a2.315 2.315 0 1 1-4.63 0 2.315 2.315 0 0 1 4.63 0z"/><path fill="#C3977A" d="m274.329 172.163 7.075 8.578 7.115-2.25-1.5-6.364-12.69.036z"/><path fill="#A687B9" d="m292.333 193.044 1.519-5.157 8.663 1 7.148 13.395-12.105 6.073-5.225-15.311z"/><path fill="#DFBCA4" d="m302.514 188.887-9.769-16.761-3.726 1-2.079 3.481 5.392 16.437 10.182-4.157z"/><path fill="#E8C9B6" d="m292.745 172.126-11.009-6.787-7.407 6.823 12.611 4.445 5.805-4.481z"/><path fill="#95627B" d="m233.257 185.637 3.512 27.356-2.554 4.75-9.826 10.75-2-35.004 10.868-7.852z"/><path fill="#A687B9" d="m236.769 212.993 9.5 3.475-2.07 7.46-3.786 3.451-16.024 1.114 12.38-15.5z"/><path fill="#8A6651" d="m255.332 233.153-.745 4.63 8.176-2.406-4.528-2.404-2.903.18z"/><path fill="#8A6651" d="m249.961 226.083.961 4.868 4.41 2.202.791-7.506-6.162.436z"/><path fill="#DFBCA4" d="m246.269 216.468 12.04 4.404-.722 4.005-2.143 2.109-15.031.392 5.856-10.91z"/><path fill="#C3977A" d="m258.309 220.872 4.453 14.506-7.43-2.224.112-6.168 2.865-6.114z"/></g><g display="block"><path fill="#785D87" d="m95.345 114.409 24-9.357 24.152 3.095-20.452 12.907-27.7-6.645zM159.531 243.251l-5.903-33.083-12.253-10.204 6.747 49.376 11.409-6.089z"/><path fill="#90759F" d="m153.629 210.167-27.708-23.069 2.646-6.177 2.926-2.618 18.852 18.143 3.284 13.721z"/><path fill="#785D87" d="m125.921 187.098-2.877-49.106 8.782-9.5-.333 49.811-5.572 8.795z"/><path fill="#734D5F" d="m123.435 144.67-10.053-8.543-6.851-12.717 18.513 1.956.599 6.255-2.208 13.049z"/><path fill="#95627B" d="m124.044 127.366 6.953-7.726 8.777-5.23-7.948 19.629-8.39 10.631.608-17.304z"/><path fill="#90759F" d="m124.044 127.367 1.405-5.387-2.405-3.67-27.699-3.901 11.186 9 17.513 3.958z"/><path fill="#A687B9" d="m123.043 118.31 20.454-10.165-3.723 6.265-15.731 12.957-1-9.057z"/><path fill="#D1A0B8" d="m123.045 116.311-.833-14.901-4.165-5.454-7.65-4.34-5.718 11.625 6.093 13.341 12.273-.271z"/><path fill="#D1A0B8" d="m110.397 91.616 1.301-6.413 9.981-5.212 8.026 12.033-7.494 9.387-11.814-9.795z"/><path fill="#B3879D" d="m122.211 101.411-11.44 15.172 12.273 1.728 4.391-12.569-5.224-4.331zM121.679 79.992l-4.333-5.765h-5.443l-5.224 8.098 3.718 9.292 11.282-11.625z"/><path fill="#D1A0B8" d="m111.903 74.227 9.776-12.735 5.756 10.441-5.756 8.059-9.776-5.765z"/><path fill="#B3879D" d="m121.638 105.438-2.379 4.434 2.891 3.834 1.886-4.697-2.398-3.57z"/><path fill="#D1A0B8" d="m120.75 64.249-1.75 4 1.75 3.75 2.25-3.75-2.25-4z"/></g><g clip-path="url(#b)" display="block"><path fill-opacity=".1" d="m661.001 320.794-20.076-4.9-18.803-1.269-10.368 3.064-35.622 3.45 30.787 8.528 43.082-3.147 15-2.46-4-3.266z"/><path fill="#90759F" d="M611.753 317.688 609 321.833l3.216.5 3.836-3.52 7.948-1.978-4.001-4.707-8.246 5.56z"/><path fill="#785D87" d="m648.724 307.073-12.768 9.227-3.516-1.525 4.27-4.71 4.015-2.252 7.999-.74z"/><path fill="#90759F" d="m648.723 307.073 2.408-5.984-18.169-5.118-1.106 6.971 4.853 7.123 12.014-2.992z"/><path fill="#785D87" d="m657.872 306.527 7.795 4.006 1.713 1.056-2.38 1.387-9.45.089.783-4.007 1.539-2.531z"/><path fill="#90759F" d="m665.667 310.533 7.165-2.973.221 2.403-1.705 2.165-6.349.848.668-2.443z"/><path fill="#A687B9" d="m672.833 307.56 11.188 11.356-12.674-6.788 1.486-4.568z"/><path fill="#785D87" d="m622.399 304.377 11.86-.933 19.409-.067-1.167 11.185-27.167 3.127-11.768-4.714 8.833-8.598z"/><path fill="#A687B9" d="m657.872 306.526-9.268 3.269-9.437-.737-18.977-2.532-4.138-6.861h6.346l11.219-5.709 18.548 4.874 5.707 7.696z"/><path fill="#A687B9" d="m620.19 306.527-14.406-6.485 3.84-1.793 6.427 1.416h6.347l-2.208 6.862zM657.873 306.527l-24.256-12.57L652.5 297.5l5.373 9.027zM623.204 316.836l5.173-3.86 2.197 3.53 3.686 10.014h-4.086l-6.97-9.684z"/><path fill="#785D87" d="M658.044 312.975 650 326.519h-3.832l2.043-6.02 2.789-3.664 7.044-3.86z"/><path fill="#90759F" d="m658.043 312.975-.171-6.448-18.705 2.532 1.758 6.836 7.286 4.604 9.832-7.524zM604.035 299.041l-8.511 12.518-.219 3.065 3.945 1.389 14.315-3.038L612 307.56l-7.965-8.519z"/><path fill="#785D87" d="m595.523 311.56-4.167 6.128 7.894-1.675-3.727-4.453z"/><path fill="#2B2B2B" d="M603.191 308.325a2 2 0 1 1-3.148 2.47 2 2 0 0 1 3.148-2.47z"/><path fill="#A687B9" d="m604.034 299.041 7.799-.792 10.565 6.128-8.833 8.598-9.531-13.934z"/><path fill="#A687B9" d="m616.052 299.665 2.977-5.334-5.813-3.664-2.383 5.291v2.558l5.219 1.149z"/><path fill="#785D87" d="m612.219 302.833-1.386-6.875-9.216-.708 5.429 8.194 5.173-.611z"/></g><g display="block"><path fill="#584164" d="m229.895 313.184-14.869-5.526-2.145-8.126 17.014-2.963v16.615zM130.345 306.38l21.667-5.741-3-8.593-20-7.694 1.333 22.028z"/><path fill="#A687B9" d="m166.762 252.188 83.016 29.248-77.781 23.892-52.235-45.452 47-7.688z"/><path fill="#90759F" d="m249.779 281.436.976 28.222-20.86 3.527-2.364-13.857-44.519 11.517-2 14.147-11.667 4.334v-16.141l2.653-10.857 77.781-20.892z"/><path fill="#785D87" d="m171.998 302.328-52.236-42.451-1.19 37.697 11.773 8.807.667-19.806 26.333 21.417-2.319 13.666 14.319 7.667 1.411-14.358 1.242-12.639z"/><g opacity=".14"><path d="m119.762 259.877 28.249 22.958 28.037-8.211-7.455-14.747h-48.831zM186.124 281.375l32.387-3.262-2.917 6.748-8.885 1.57-20.585-5.056z" opacity="1"/></g><path fill="#CECECD" d="m148.012 272.325-11.5-15.188v8.926l11.5 16.772v-10.51z"/><path fill="#EBEBEB" d="m178.679 267.394-30.668 4.931-1 4.67 1 5.841 30.001-6.45.667-8.992z"/><path fill="#95627B" d="m148.012 273.325-11.5-16.188 30.25-4.948 11.916 15.205-30.666 5.931z"/><path fill="#B3879D" d="m157.596 258.138 18.453-12.896-39.466-6.628-21.012 11.481 42.025 8.043z"/><path fill="#DDDDDC" d="m176.048 255.685-18.453 10.378-1.459-5.186 1.459-3.739 18.453-11.897v10.444z"/><path fill="#734D5F" d="m157.595 257.138-42.024-7.043.107 9.231 41.917 6.737v-8.925z"/><path fill="#EBEBEB" d="m230.351 250.199-14.758-6.948v11.25l-1.196 7.004 1.196 23.356 9.168-3.415-6.25-3.334v-7.692l11.84-20.221z"/><path fill="#CECECD" d="m200.837 250.199 14.758-6.948v41.61l-9.168-3.415 6.251-3.334v-9.116l-11.841-18.797z"/><path fill="#EBEBEB" d="m200.837 250.199 14.758 4.302.666-4.875-.666-6.375-14.758 6.948z"/><path fill="#CECECD" d="M215.594 243.252v11.25l14.758-4.302-14.758-6.948z"/><path fill="#785D87" d="m206.709 251.911 8.885-3.807 8.039 3.807-8.039 2.591-8.885-2.591zM205.719 253.663l9.876 3.089v11.625l-9.876-14.714z"/><path fill="#90759F" d="m215.594 256.751 9.25-2.92-9.25 14.546v-11.626z"/></g><g display="block"><path fill="#DDDDDC" d="m755.656 269.428 36-6.423 47.666 7.999-50.333 18.073-33.333-19.649z"/><path fill="#737373" d="m755.656 269.429-13 22.664 45 15.162 6.666-11.885-5.333-8.294-33.333-17.647z"/><path fill="#A2A2A2" d="m839.322 271.004 6.167 26.035-57.834 10.217 1.334-20.181 50.333-16.071z"/></g><path fill-opacity=".1" d="m745.498 317.306-20.194-5.178-11.528 1.068-13.111.26-39.664 7.338 4 3.266 29.497 2.46 36.401-3.38 26.602-3.392-12.003-2.442z" display="block"/><g display="block"><path fill="#B3879D" d="m736.832 309.453 9.498 4.436.792 1.336-1.625 2.08-12.589-2.416 3.924-5.436z"/><path fill="#95627B" d="m746.331 313.89 9.917-9.25 2.166 3v1.917l-12.916 7.749.833-3.416z"/><path fill="#D1A0B8" d="m756.247 304.639 20.75 10.585-18.583-5.668-2.167-4.917z"/></g><g display="block"><path fill="#95627B" d="m705.331 274.056-15.167 2.675-3.247 2.34 2.232 3.65 10.515 7.335 3.667-5.599 2-10.401z"/><path fill="#734D5F" d="m690.164 276.731-7.664 1.352 6.646 4.636 1.018-5.988z"/><path fill="#2B2B2B" d="M698.497 278.64a2 2 0 1 1-4.001-.001 2 2 0 0 1 4.001.001z"/><path fill="#B3879D" d="m705.33 274.056 8.444 7.043-1.277 7.041-6.417 3.75-6.416-1.834 5.666-16z"/><path fill="#D1A0B8" d="m712.498 288.14-7.168-14.084 9.418 6.334-2.25 7.75z"/><path fill="#B3879D" d="m714.747 280.39 6.25-3.75-3.861-11.192-3.623 5.19-3.35 5.002 4.584 4.75z"/><path fill="#95627B" d="m714.748 280.39-1.234-9.752-12.382-4.888 6.073 11.997 7.543 2.643z"/></g><path fill="#B3879D" d="m703.346 293.639-7.848 2.418-5.334 3.166 3.333 2 3.833-2.5 11.666.416-5.65-5.5z" display="block"/><g display="block"><path fill="#B3879D" d="m727.664 292.723-15.167-4.583-3.501 11 15.416 10.416 12.42-.103-9.168-16.73z"/><path fill="#D1A0B8" d="m736.832 309.452-24.336-21.313 17.792 2.6 6.544 18.713z"/><path fill="#95627B" d="m699.665 290.056 12.832-1.916 2.61 9.287-1.333 3.129-4.778-1.416-9.331-9.084z"/></g><g display="block"><path fill="#B3879D" d="m730.9 323.14-7.238-5.834-12.498 2.251v3.583H730.9z"/><path fill="#95627B" d="M736.832 309.453 730.9 323.14l-17.125-9.944 3.362-8.556 19.696 4.813z"/></g><path fill="#D1A0B8" d="m708.996 299.139-6.998 9.503-1.334 4.813 3.167 1.769 1.5-5.576 11.805-5.009-2.027-7.207-6.113 1.707z" display="block"/></g></svg>